<?xml version="1.0" encoding="UTF-8" standalone="no"?>
<!-- Generator: Adobe Illustrator 16.0.0, SVG Export Plug-In . SVG Version: 6.00 Build 0)  -->

<svg
   xmlns:dc="http://purl.org/dc/elements/1.1/"
   xmlns:cc="http://creativecommons.org/ns#"
   xmlns:rdf="http://www.w3.org/1999/02/22-rdf-syntax-ns#"
   xmlns:svg="http://www.w3.org/2000/svg"
   xmlns="http://www.w3.org/2000/svg"
   xmlns:sodipodi="http://sodipodi.sourceforge.net/DTD/sodipodi-0.dtd"
   xmlns:inkscape="http://www.inkscape.org/namespaces/inkscape"
   sodipodi:docname="logo.svg"
   inkscape:version="0.92.2 2405546, 2018-03-11"
   id="svg2"
   xml:space="preserve"
   enable-background="new 0 0 308 308"
   viewBox="0 0 308 308"
   height="308px"
   width="308px"
   y="0px"
   x="0px"
   version="1.1"><sodipodi:namedview
     inkscape:current-layer="svg2"
     inkscape:window-maximized="1"
     inkscape:window-y="27"
     inkscape:window-x="0"
     inkscape:cy="-54.813559"
     inkscape:cx="-82.220338"
     inkscape:zoom="0.76623377"
     showgrid="false"
     id="namedview41"
     inkscape:window-height="1053"
     inkscape:window-width="1920"
     inkscape:pageshadow="2"
     inkscape:pageopacity="0"
     guidetolerance="10"
     gridtolerance="10"
     objecttolerance="10"
     borderopacity="1"
     bordercolor="#666666"
     pagecolor="#ffffff" /><metadata
     id="metadata45"><rdf:RDF><cc:Work
         rdf:about=""><dc:format>image/svg+xml</dc:format><dc:type
           rdf:resource="http://purl.org/dc/dcmitype/StillImage" /><dc:title /></cc:Work></rdf:RDF></metadata><defs
     id="defs43"><inkscape:perspective
       sodipodi:type="inkscape:persp3d"
       inkscape:vp_x="0 : 154 : 1"
       inkscape:vp_y="0 : 1000 : 0"
       inkscape:vp_z="308 : 154 : 1"
       inkscape:persp3d-origin="154 : 102.66667 : 1"
       id="perspective961" /></defs><g
     id="image_base" /><g
     id="drawing"><circle
       fill="#7F7F7F"
       cx="154"
       cy="154"
       r="154"
       id="circle6" /><rect
       x="24.257"
       y="87.299"
       fill="none"
       width="257.485"
       height="117.402"
       id="rect8" /><g
       transform="matrix(0.27494423,0,0,0.25799127,72.522099,18.142993)"
       id="g14"><g
         transform="translate(-674.14841,236.701)"
         id="g836"><path
           d="m 746.96785,-129.92782 v 409.464 c 0,225.219 0.214,409.683 0.539,410.007 0.324,0.324 14.239,-1.076 31.067,-2.912 16.828,-1.833 40.019,-4.203 51.562,-5.175 17.69,-1.509 70.762,-4.85 76.804,-4.958 1.833,0 1.94,-9.163 2.157,-173.468 l 0.322,-173.062 -0.106,-0.299 v 0.216 z"
           id="path4"
           inkscape:connector-curvature="0"
           style="clip-rule:evenodd;opacity:1;fill:#fafafa;fill-rule:evenodd" /><polygon
           points="229.276,550.191 229.17,549.893 229.17,550.108 66.827,90.294 229.092,643.652 "
           id="polygon6"
           transform="translate(680.14085,-220.22182)"
           style="clip-rule:evenodd;opacity:1;fill:#f2f2f2;fill-rule:evenodd" /><path
           d="m 1037.6758,-129.38782 -0.324,181.122004 -0.323,181.015996 160.94,456.686 c -0.092,0.092 -0.518,0.139 -1.213,0.148 0.804,0 1.302,-0.047 1.429,-0.148 0.54,-0.433 0.648,-184.789 0.54,-409.792 l -0.324,-409.032 z"
           id="path8"
           inkscape:connector-curvature="0"
           style="clip-rule:evenodd;opacity:1;fill:#fafafa;fill-rule:evenodd" /><polygon
           points="510.948,890.137 357.059,361.421 356.888,452.972 "
           id="polygon10"
           transform="translate(680.14085,-220.22182)"
           style="clip-rule:evenodd;opacity:1;fill:#f2f2f2;fill-rule:evenodd" /><path
           d="m 746.96785,-129.92782 162.343,459.814 v -0.216 l 12.837,36.226 c 71.302,201.714 109.59495,309.955 109.81095,310.171 0.108,0.107 10.896,0.756 23.946,1.4 39.481,1.94 88.452,6.146 125.669,10.78 8.521,1.08 15.964,1.62 16.396,1.188 l -160.94,-456.688 v 0.108 l -14.889,-42.044 c -14.563,-41.077 -24.26995,-68.569 -82.84295,-233.950996 -15.748,-44.526 -29.125,-82.152004 -29.663,-83.877004 l -1.08,-3.019 h -80.794 z"
           id="path12"
           inkscape:connector-curvature="0"
           style="clip-rule:evenodd;opacity:1;fill:#ffffff;fill-rule:evenodd" /></g></g></g><g
     id="guides"
     display="none" /></svg>