<svg width="308" height="308" xmlns="http://www.w3.org/2000/svg">

 <g>
  <title>background</title>
  <rect fill="none" id="canvas_background" height="310" width="310" y="-1" x="-1"/>
 </g>
 <g>
  <title>Layer 1</title>
  <g id="svgg">
   <path fill-rule="evenodd" fill="#ff3334" d="m198.361,16.1c-0.34,0.885 -0.306,137.885 0.035,139.847c0.609,3.495 0.329,3.443 -1.514,-0.278c-8.812,-17.792 -33.488,-30.306 -55.368,-28.081c-51.812,5.271 -73.705,66.806 -36.647,103.006c30.991,30.272 84.479,17.838 98.156,-22.817c3.719,-11.057 3.496,-6.569 3.65,-73.377c0.075,-32.45 0.179,-59.114 0.231,-59.254c0.101,-0.269 8.755,3.037 52.413,20.018c8.535,3.32 15.6,6.036 15.7,6.036c0.101,0 0.183,-12.494 0.183,-27.765l0,-27.765l-2.9,-1.093c-1.595,-0.6 -6.68,-2.567 -11.3,-4.369c-13.825,-5.394 -24.135,-9.408 -28.8,-11.213c-2.42,-0.936 -7.73,-2.999 -11.8,-4.585c-4.07,-1.586 -8.48,-3.302 -9.8,-3.814c-1.32,-0.511 -4.509,-1.755 -7.086,-2.763c-4.513,-1.765 -5.068,-1.952 -5.153,-1.733" id="path0"/>
   <path fill-rule="evenodd" fill="#ffcc00" d="m197.867,15.867c-0.147,0.146 -0.267,16.436 -0.267,36.2c0,19.763 -0.073,35.933 -0.163,35.933c-0.09,0 -1.035,-0.438 -2.1,-0.974c-19.764,-9.938 -49.125,-13.923 -69.337,-9.41c-15.263,3.407 -22.384,6.065 -35.6,13.285c-1.21,0.661 -2.484,1.448 -2.831,1.75c-0.348,0.302 -0.828,0.549 -1.067,0.549c-0.24,0 -0.495,0.135 -0.569,0.3c-0.073,0.165 -1.573,1.275 -3.333,2.466c-25.061,16.966 -42.463,45.638 -46.873,77.232c-0.82,5.869 -0.907,22.649 -0.145,27.602c0.91,5.906 2.649,14.114 3.814,18c0.363,1.21 0.798,2.74 0.967,3.4c2.051,7.998 11.757,26.33 17.596,33.231c0.573,0.676 1.581,1.936 2.241,2.799c22.35,29.22 65.269,45.646 103.4,39.573c5.489,-0.875 12.192,-2.343 13.8,-3.023c0.44,-0.186 2.51,-0.876 4.6,-1.532c50.688,-15.925 83.653,-70.338 74.787,-123.446c-1.288,-7.717 -4.72,-20.588 -5.973,-22.402c-0.152,-0.22 -0.607,-1.3 -1.01,-2.4c-0.404,-1.1 -1.602,-3.8 -2.662,-6c-1.703,-3.532 -2.504,-5.04 -4.776,-8.982c-4.746,-8.237 -15.705,-21.217 -23.172,-27.445c-2.908,-2.425 -5.102,-4.114 -8.678,-6.68l-3.684,-2.643l-0.151,50.075c-0.172,56.761 0.011,53.545 -3.658,64.452c-13.677,40.655 -67.165,53.089 -98.156,22.817c-32.422,-31.671 -19.983,-86.208 22.861,-100.239c26.324,-8.62 58.109,3.014 69.154,25.314c1.843,3.721 2.123,3.773 1.514,0.278c-0.461,-2.652 -0.389,-139.288 0.075,-139.751c0.124,-0.124 1.172,0.148 2.329,0.604c1.157,0.456 2.196,0.737 2.309,0.624c0.113,-0.113 -0.135,-0.317 -0.552,-0.454c-0.416,-0.136 -1.436,-0.501 -2.265,-0.809c-1.7,-0.632 -2.045,-0.674 -2.425,-0.294m7.333,2.603c2.143,0.969 4.297,1.648 3.773,1.19c-0.415,-0.363 -4.892,-2.076 -5.309,-2.032c-0.145,0.016 0.546,0.395 1.536,0.842m4.8,1.894c0.33,0.186 1.05,0.459 1.6,0.604l1,0.265l-1,-0.602c-0.55,-0.332 -1.27,-0.604 -1.6,-0.605c-0.533,-0.001 -0.533,0.036 0,0.338m4.202,1.606c2.1,0.936 3.679,1.415 3.28,0.995c-0.386,-0.406 -3.922,-1.776 -4.482,-1.736c-0.22,0.015 0.321,0.349 1.202,0.741m3.831,1.393c0.092,0.09 2.327,1.009 4.967,2.043c2.64,1.034 6.123,2.413 7.739,3.065c1.616,0.651 3.023,1.1 3.126,0.997c0.103,-0.103 -1.76,-0.941 -4.139,-1.863c-2.379,-0.922 -5.878,-2.29 -7.776,-3.04c-3.183,-1.26 -4.338,-1.614 -3.917,-1.202m16.767,6.57c0.33,0.203 1.05,0.491 1.6,0.638c0.695,0.186 0.817,0.154 0.4,-0.104c-0.33,-0.203 -1.05,-0.491 -1.6,-0.638c-0.695,-0.186 -0.817,-0.154 -0.4,0.104m2.833,1.028c0.399,0.385 7.325,3.014 7.494,2.845c0.103,-0.103 -0.153,-0.31 -0.57,-0.459c-0.416,-0.15 -2.067,-0.784 -3.667,-1.41c-2.758,-1.077 -3.634,-1.34 -3.257,-0.976m8.367,3.403c0.33,0.186 1.05,0.459 1.6,0.604l1,0.265l-1,-0.602c-0.55,-0.332 -1.27,-0.604 -1.6,-0.605c-0.533,-0.001 -0.533,0.036 0,0.338m5.2,1.982c0.974,0.58 2.658,1.001 2.2,0.551c-0.22,-0.217 -0.94,-0.509 -1.6,-0.651c-0.783,-0.168 -0.992,-0.133 -0.6,0.1m4.202,1.624c2.558,1.14 3.818,1.346 1.447,0.236c-1.184,-0.553 -2.354,-0.993 -2.6,-0.978c-0.247,0.016 0.272,0.35 1.153,0.742m4.25,1.635c1.034,0.604 13.246,5.231 13.4,5.077c0.147,-0.148 -1.256,-0.734 -8.738,-3.654c-4.515,-1.761 -6.036,-2.225 -4.662,-1.423m14.648,5.683l0.9,0.434l0,27.766l0,27.766l-0.85,-0.27c-0.572,-0.181 -0.761,-0.125 -0.576,0.173c0.374,0.606 1.824,0.561 1.834,-0.057c0.004,-0.275 0.001,-12.816 -0.008,-27.869c-0.016,-28.032 -0.04,-28.467 -1.549,-28.404c-0.466,0.019 -0.396,0.15 0.249,0.461m-67.617,30.044c-0.113,0.297 0.313,0.479 1.169,0.498c1.649,0.037 1.673,-0.039 0.179,-0.559c-0.852,-0.297 -1.218,-0.281 -1.348,0.061m4.868,1.662c1.184,0.553 2.354,0.993 2.6,0.978c0.532,-0.034 -2.319,-1.34 -3.753,-1.72c-0.549,-0.146 -0.03,0.188 1.153,0.742m3.469,1.34c0.557,0.489 4.197,1.782 4.412,1.567c0.101,-0.101 -0.826,-0.57 -2.06,-1.042c-2.426,-0.929 -2.943,-1.044 -2.352,-0.525m5.78,2.235c0.55,0.332 1.27,0.604 1.6,0.605c0.803,0.002 -0.148,-0.558 -1.6,-0.942l-1,-0.265l1,0.602m2.62,0.948c0.597,0.498 7.013,2.984 7.205,2.792c0.169,-0.17 -6.73,-3.109 -7.296,-3.109c-0.159,0 -0.118,0.143 0.091,0.317m9.38,3.744c0.99,0.442 2.61,1.077 3.6,1.411c0.99,0.334 2.34,0.851 3,1.15c1.849,0.835 5.396,2.179 5.715,2.166c0.671,-0.029 -1.533,-0.992 -7.354,-3.216c-6.22,-2.375 -8.34,-3.021 -4.961,-1.511m14.751,5.733c1.184,0.553 2.354,0.993 2.6,0.978c0.532,-0.034 -2.319,-1.34 -3.753,-1.72c-0.549,-0.146 -0.03,0.188 1.153,0.742m4.049,1.575c0.55,0.332 1.27,0.604 1.6,0.605c0.803,0.002 -0.148,-0.558 -1.6,-0.942l-1,-0.265l1,0.602m2.6,0.914c0.22,0.211 2.47,1.157 5,2.103c4.386,1.641 5.537,2.097 8.5,3.374c1.96,0.845 5.188,1.886 5.349,1.725c0.078,-0.078 -4.02,-1.749 -9.106,-3.714c-10.891,-4.206 -10.255,-3.978 -9.743,-3.488" id="path1"/>
  </g>
 </g>
</svg>