<?xml version="1.0" encoding="utf-8"?>
<!-- Generator: Adobe Illustrator 16.0.0, SVG Export Plug-In . SVG Version: 6.00 Build 0)  -->
<!DOCTYPE svg PUBLIC "-//W3C//DTD SVG 1.1//EN" "http://www.w3.org/Graphics/SVG/1.1/DTD/svg11.dtd">
<svg version="1.1" xmlns="http://www.w3.org/2000/svg" xmlns:xlink="http://www.w3.org/1999/xlink" x="0px" y="0px" width="308px"
	 height="308px" viewBox="0 0 308 308" enable-background="new 0 0 308 308" xml:space="preserve">
<g id="image_base">
</g>
<g id="drawing">
	<g>
		<circle fill="#7F7F7F" cx="154" cy="154" r="154"/>
		<g>
			<g>
				<path fill="#FFFFFF" d="M184.002,173.479c-0.71,0-1.432-0.101-2.147-0.313c-3.971-1.187-6.23-5.364-5.046-9.334
					c3.786-12.693,2.721-24.881-3.078-35.244c-6.3-11.256-17.846-19.828-31.68-23.517c-18.432-4.911-43.933,0.989-55.114,33.811
					c-1.337,3.923-5.599,6.017-9.522,4.683c-3.923-1.336-6.018-5.6-4.684-9.521c13.589-39.886,46.549-50.575,73.186-43.47
					c17.731,4.728,32.641,15.913,40.909,30.687c7.826,13.984,9.334,30.188,4.364,46.859
					C190.218,171.375,187.234,173.479,184.002,173.479z"/>
			</g>
			<g>
				<path fill="#FFFFFF" d="M178.963,211.945c-14.275,0-34.409-0.217-54.042-0.431c-19.119-0.205-37.177-0.399-49.589-0.399
					c-0.543,0-1.082-0.059-1.61-0.174c-25.661-5.643-38.797-24.492-34.282-49.195c2.497-13.659,14.732-26.191,29.757-30.476
					c14.776-4.209,29.296,0.037,39.83,11.658c2.785,3.069,2.552,7.815-0.52,10.597c-3.072,2.786-7.817,2.548-10.598-0.518
					c-8.977-9.903-19.265-8.826-24.598-7.305c-9.589,2.734-17.625,10.616-19.109,18.743c-2.998,16.398,4.802,27.617,21.975,31.665
					c12.456,0.01,30.172,0.199,48.904,0.4c26.048,0.281,52.974,0.572,65.666,0.352c10.409-0.183,15.261-11.375,15.261-18.883
					c0-8.61-5.102-18.438-19.418-20.19c-4.114-0.504-7.04-4.247-6.535-8.358c0.503-4.113,4.229-7.049,8.357-6.537
					c22.521,2.759,32.602,19.608,32.602,35.085c0,16.399-11.224,33.561-30.006,33.885C187.794,211.92,183.7,211.945,178.963,211.945
					z"/>
			</g>
			<g>
				<path fill="#FFFFFF" d="M227.761,213.742c-1.545,0-3.104-0.477-4.443-1.462c-3.337-2.458-4.05-7.154-1.593-10.491
					c16.988-23.069,0.909-48.494,0.743-48.749c-2.251-3.479-1.254-8.124,2.225-10.374c3.477-2.252,8.122-1.255,10.375,2.224
					c0.901,1.392,21.807,34.474-1.259,65.796C232.338,212.685,230.064,213.742,227.761,213.742z"/>
			</g>
			<g>
				<path fill="#FFFFFF" d="M249.518,225.998c-1.401,0-2.816-0.393-4.08-1.212c-3.475-2.257-4.462-6.903-2.205-10.38
					c25.122-38.683,0.037-73.112-0.221-73.457c-2.478-3.32-1.796-8.022,1.525-10.502c3.318-2.476,8.02-1.797,10.5,1.524
					c0.33,0.443,8.153,11.047,12.127,27.417c3.686,15.184,4.709,38.47-11.347,63.192
					C254.38,224.793,251.975,225.998,249.518,225.998z"/>
			</g>
		</g>
	</g>
</g>
<g id="guides" display="none">
</g>
</svg>
