<?xml version="1.0" encoding="utf-8"?>
<!-- Generator: Adobe Illustrator 16.0.0, SVG Export Plug-In . SVG Version: 6.00 Build 0)  -->
<!DOCTYPE svg PUBLIC "-//W3C//DTD SVG 1.1//EN" "http://www.w3.org/Graphics/SVG/1.1/DTD/svg11.dtd">
<svg version="1.1" id="Layer_1" xmlns="http://www.w3.org/2000/svg" xmlns:xlink="http://www.w3.org/1999/xlink" x="0px" y="0px"
	 width="308px" height="308px" viewBox="0 0 308 308" enable-background="new 0 0 308 308" xml:space="preserve">
<circle fill="#FFFFFF" cx="154" cy="154" r="154"/>
<g id="image_base">
</g>
<g id="guides" display="none">
</g>
<g>
	<path fill="#7F7F7F" d="M141.594,0c8.563,0,17.129,0,25.692,0c2.856,0.69,5.679,1.628,8.576,2.032
		c34.741,4.851,64.466,19.884,88.624,45.085c35.478,37.004,49.087,81.313,41.465,131.917
		c-8.989,59.725-56.494,110.913-115.293,124.663c-7.059,1.652-14.209,2.878-21.316,4.303c-9.934,0-19.869,0-29.804,0
		c-4.649-0.813-9.313-1.554-13.947-2.453C38.828,288.741-12.632,205.063,2.684,126.213C14.828,63.682,63.659,14.191,125.95,3.063
		C131.18,2.131,136.379,1.025,141.594,0z M242.747,209.167c-1.044-18.418-5.528-36.101-11.973-53.286
		c-7.538-20.113-17.819-38.661-35.053-52.132c-28.578-22.341-61.676-33.443-97.457-36.844c-12.224-1.163-19.191,7.836-16.663,19.989
		c0.762,3.662,2.631,5.402,6.554,5.866c8.137,0.958,16.352,1.907,24.277,3.886c34.16,8.528,63.186,25.053,82.814,55.294
		c13.521,20.833,20.355,43.882,21.517,68.64c0.347,7.425,2.53,9.374,9.859,8.592C239.086,227.838,243.43,222.43,242.747,209.167z
		 M190.904,220.419c-1.398-7.536-2.366-15.185-4.285-22.588c-4.99-19.278-12.322-37.58-28.176-50.667
		c-20.146-16.63-44.051-24.378-69.747-26.863c-8.146-0.79-13.453,6.085-11.1,14.019c0.51,1.721,2.96,3.454,4.868,4.036
		c3.051,0.936,6.439,0.702,9.616,1.333c35.454,7.036,62.417,24.868,74.516,60.377c3.1,9.098,4.182,18.953,5.485,28.554
		c0.63,4.622,2.655,5.851,6.706,5.472C187.314,233.292,190.677,229.327,190.904,220.419z"/>
</g>
</svg>
