<?xml version="1.0" encoding="utf-8"?>
<!-- Generator: Adobe Illustrator 16.0.0, SVG Export Plug-In . SVG Version: 6.00 Build 0)  -->
<!DOCTYPE svg PUBLIC "-//W3C//DTD SVG 1.1//EN" "http://www.w3.org/Graphics/SVG/1.1/DTD/svg11.dtd">
<svg version="1.1" xmlns="http://www.w3.org/2000/svg" xmlns:xlink="http://www.w3.org/1999/xlink" x="0px" y="0px" width="308px"
	 height="308px" viewBox="0 0 308 308" enable-background="new 0 0 308 308" xml:space="preserve">
<g id="image_base">
</g>
<g id="drawing">
	<circle fill="#7F7F7F" cx="154" cy="154" r="154"/>
	<path fill-rule="evenodd" clip-rule="evenodd" fill="#FFFFFF" d="M252.103,128.927c-0.208-0.46-0.417-0.922-0.625-1.382
		c-2.166,0-4.332,0-6.498,0c-20.235,0-40.474-0.13-60.708,0.1c-4.54,0.052-6.526-1.42-7.969-5.765
		c-6.3-18.986-13.019-37.833-19.605-56.722c-0.475-1.359-1.109-2.663-2.04-4.868c-7.261,21.479-14.268,41.894-21,62.399
		c-1.253,3.818-2.944,5.188-7.097,5.141c-21.226-0.24-42.456-0.111-63.684-0.111c-1.869,0-3.738,0-6.981,0
		c2.507,2.114,3.787,3.262,5.134,4.322c17.307,13.608,34.525,27.333,52.017,40.7c3.685,2.815,4.178,5.201,2.735,9.375
		c-6.798,19.655-13.284,39.419-19.863,59.151c-0.556,1.669-0.991,3.38-1.879,6.442c19.178-13.929,37.109-26.68,54.688-39.901
		c4.668-3.511,7.707-3.981,12.64-0.218c16.232,12.387,32.939,24.153,49.479,36.138c1.31,0.951,2.731,1.749,5.02,3.201
		c-7.524-22.717-14.556-44.342-21.936-65.85c-1.287-3.744-0.521-5.737,2.405-7.977c8.662-6.628,17.157-13.476,25.701-20.258
		C232.069,144.883,242.082,136.901,252.103,128.927z"/>
</g>
<g id="guides" display="none">
</g>
</svg>
