<?xml version="1.0" encoding="utf-8"?>
<!-- Generator: Adobe Illustrator 16.0.0, SVG Export Plug-In . SVG Version: 6.00 Build 0)  -->
<!DOCTYPE svg PUBLIC "-//W3C//DTD SVG 1.1//EN" "http://www.w3.org/Graphics/SVG/1.1/DTD/svg11.dtd">
<svg version="1.1" id="Layer_1" xmlns="http://www.w3.org/2000/svg" xmlns:xlink="http://www.w3.org/1999/xlink" x="0px" y="0px"
	 width="308px" height="308px" viewBox="0 0 308 308" enable-background="new 0 0 308 308" xml:space="preserve">
<circle display="none" fill="#FFFFFF" cx="154" cy="154" r="154"/>
<g id="image_base" display="none">
</g>
<g id="guides" display="none">
</g>
<g>
	<path fill="#7F7F7F" d="M264.487,47.117c-24.157-25.201-53.883-40.234-88.624-45.085c-2.896-0.404-5.72-1.342-8.575-2.032
		c-8.563,0-17.129,0-25.692,0c-5.215,1.025-10.414,2.131-15.644,3.063C63.66,14.191,14.829,63.682,2.685,126.213
		c-15.315,78.85,36.145,162.528,122.907,179.334c4.634,0.899,9.298,1.641,13.947,2.453c9.935,0,19.87,0,29.804,0
		c7.107-1.425,14.257-2.65,21.316-4.303c58.799-13.75,106.304-64.938,115.292-124.663C313.573,128.43,299.965,84.121,264.487,47.117
		z"/>
	<g>
		<path fill="#FFFFFF" d="M230.774,155.881c-7.538-20.113-17.818-38.661-35.053-52.132c-28.578-22.341-61.676-33.443-97.457-36.844
			c-12.224-1.163-19.191,7.836-16.663,19.989c0.762,3.662,2.631,5.402,6.554,5.866c8.138,0.958,16.353,1.907,24.277,3.886
			c34.16,8.528,63.187,25.053,82.814,55.294c13.521,20.833,20.354,43.882,21.517,68.64c0.347,7.425,2.53,9.374,9.859,8.592
			c12.464-1.334,16.808-6.742,16.125-20.005C241.703,190.749,237.219,173.066,230.774,155.881z"/>
		<path fill="#FFFFFF" d="M158.443,147.164c-20.146-16.63-44.051-24.378-69.747-26.863c-8.146-0.79-13.452,6.085-11.1,14.019
			c0.51,1.721,2.96,3.454,4.868,4.036c3.051,0.936,6.438,0.702,9.616,1.333c35.454,7.036,62.417,24.868,74.516,60.377
			c3.1,9.098,4.182,18.953,5.485,28.554c0.63,4.622,2.654,5.851,6.706,5.472c8.526-0.8,11.89-4.765,12.116-13.673
			c-1.397-7.536-2.365-15.185-4.284-22.588C181.629,178.553,174.297,160.251,158.443,147.164z"/>
	</g>
</g>
</svg>
