<?xml version="1.0" encoding="utf-8"?>
<!-- Generator: Adobe Illustrator 16.0.0, SVG Export Plug-In . SVG Version: 6.00 Build 0)  -->
<!DOCTYPE svg PUBLIC "-//W3C//DTD SVG 1.1//EN" "http://www.w3.org/Graphics/SVG/1.1/DTD/svg11.dtd">
<svg version="1.1" id="Layer_1" xmlns="http://www.w3.org/2000/svg" xmlns:xlink="http://www.w3.org/1999/xlink" x="0px" y="0px"
	 width="308px" height="308px" viewBox="0 0 308 308" enable-background="new 0 0 308 308" xml:space="preserve">
<circle display="none" fill="#FFFFFF" cx="154" cy="154" r="154"/>
<g id="image_base" display="none">
</g>
<g id="guides" display="none">
</g>
<path fill="#7F7F7F" d="M264.487,47.117C240.33,21.916,210.604,6.883,175.863,2.032c-2.896-0.404-5.72-1.342-8.574-2.032
	c-8.563,0-17.129,0-25.692,0c-5.215,1.025-10.414,2.131-15.644,3.063C63.66,14.191,14.829,63.682,2.685,126.213
	c-15.314,78.85,36.146,162.528,122.907,179.334c4.634,0.898,9.298,1.641,13.947,2.453c9.935,0,19.87,0,29.804,0
	c7.107-1.425,14.257-2.65,21.316-4.303c58.799-13.75,106.304-64.938,115.291-124.663C313.573,128.43,299.965,84.121,264.487,47.117z
	"/>
<g>
	<path fill="#FFFFFF" d="M157.117,70.651v-6.922c-56.183-1.702-109.483,47.168-108.587,108.539h7.009
		c0.683-27.938,10.338-52.019,30.022-71.699C105.24,80.902,129.289,71.213,157.117,70.651z"/>
	<path fill="#FFFFFF" d="M201.648,97.918c0.568-5.016,1.136-10.03,1.708-15.045c0.247-2.168,0.576-4.327,0.967-7.242
		c6.384,1.353,12.439,2.262,18.241,4.003c3.279,0.983,6.497,2.921,9.124,5.151c6.838,5.808,7.092,13.5,5.06,21.48
		c-0.807,3.187-2.115,6.248-3.423,10.034c1.521-0.671,2.703-0.945,3.559-1.628c1.406-1.117,2.727-2.394,3.852-3.787
		c8.257-10.223,8.587-19.229,0.706-29.701c-2.616-3.466-5.749-6.684-9.152-9.38c-5.048-3.994-10.639-7.299-15.822-11.133
		c-4.252-3.145-8.093-6.735-9.117-12.333c-0.082-0.448-0.891-1.018-1.414-1.09c-3.663-0.477-7.34-0.836-11.19-1.249
		c-1.766,15.57-3.533,31.12-5.301,46.69c-9.164-3.148-19.026-4.876-29.31-4.876c-48.332,0-87.491,37.806-87.491,84.456
		c0,46.637,39.159,84.44,87.491,84.44c48.298,0,87.456-37.804,87.456-84.44C247.59,140.125,229.003,112.191,201.648,97.918z
		 M217.515,227.669c-15.325,14.803-35.705,22.948-57.381,22.948c-21.71,0-42.09-8.146-57.416-22.948
		c-15.325-14.796-23.772-34.477-23.772-55.401c0-20.943,8.446-40.622,23.772-55.42c15.326-14.8,35.706-22.948,57.416-22.948
		c9.928,0,19.579,1.729,28.602,5.004c-0.809,7.128-1.62,14.271-2.433,21.417c-9.436-5.321-20.441-8.384-32.208-8.384
		c-35.004,0-63.358,27.003-63.358,60.331c0,33.315,28.355,60.313,63.358,60.313c34.98,0,63.335-26.998,63.335-60.313
		c0-17.013-7.407-32.381-19.301-43.347c0.923-8.145,1.847-16.29,2.771-24.435c5.99,3.373,11.578,7.5,16.611,12.361
		c15.326,14.798,23.773,34.478,23.773,55.419C241.288,193.192,232.842,212.873,217.515,227.669z M135.074,187.3
		c10.786,11.509,31.245,14.418,44.945,6.508c7.468-4.306,12.146-10.386,13.001-19.201c1.008-10.41,2.291-20.786,3.469-31.187
		c0.251-2.208,0.502-4.417,0.752-6.626c8.957,9.854,13.862,22.308,13.862,35.474c0,14.501-5.933,28.13-16.699,38.38
		c-10.761,10.259-25.08,15.903-40.306,15.903c-15.249,0-29.561-5.645-40.328-15.903c-10.768-10.25-16.7-23.879-16.7-38.38
		c0-14.502,5.932-28.147,16.7-38.402c10.767-10.253,25.08-15.898,40.328-15.898c11.357,0,22.206,3.145,31.452,8.995
		c-1.021,9.005-2.047,18.032-3.073,27.096c-1.302-0.819-2.139-1.403-3.021-1.9c-12.922-7.223-26.148-8.127-39.172-0.655
		C126.556,159.401,123.829,175.306,135.074,187.3z"/>
	<path fill="#FFFFFF" d="M155.94,128.264c-26.631-0.395-44.438,24.071-42.512,42.518h6.75c0.248-9.801,3.699-18.202,10.58-25.039
		c6.878-6.84,15.349-10.234,25.185-10.502v-6.977H155.94z"/>
</g>
</svg>
