<?xml version="1.0" encoding="utf-8"?>
<!-- Generator: Adobe Illustrator 16.0.0, SVG Export Plug-In . SVG Version: 6.00 Build 0)  -->
<!DOCTYPE svg PUBLIC "-//W3C//DTD SVG 1.1//EN" "http://www.w3.org/Graphics/SVG/1.1/DTD/svg11.dtd">
<svg version="1.1"
	 id="svg2" xmlns:inkscape="http://www.inkscape.org/namespaces/inkscape" xmlns:sodipodi="http://sodipodi.sourceforge.net/DTD/sodipodi-0.dtd" xmlns:dc="http://purl.org/dc/elements/1.1/" xmlns:svg="http://www.w3.org/2000/svg" xmlns:rdf="http://www.w3.org/1999/02/22-rdf-syntax-ns#" xmlns:cc="http://creativecommons.org/ns#" inkscape:export-ydpi="96" inkscape:version="0.92.2 5c3e80d, 2017-08-06" sodipodi:docname="logo.svg" inkscape:export-filename="/home/colin/.local/share/MellowPlayer/MellowPlayer/plugins/Jamendo/logo.svg.png" inkscape:export-xdpi="96"
	 xmlns="http://www.w3.org/2000/svg" xmlns:xlink="http://www.w3.org/1999/xlink" x="0px" y="0px" width="308px" height="308px"
	 viewBox="0 0 308 308" enable-background="new 0 0 308 308" xml:space="preserve">
<circle id="circle6" fill="#7F7F7F" cx="154" cy="154" r="154"/>
<g>
	<g id="g98">
		<path id="path96" shape-rendering="optimizeQuality" inkscape:connector-curvature="0" fill="#FFFFFF" d="M97.27,189.07
			c-1.072,0-2.143-0.238-3.093-0.713c-3.449-1.785-4.876-5.947-3.092-9.396l14.033-28.068c1.784-3.449,5.948-4.876,9.396-3.092
			c3.449,1.784,4.878,5.946,3.093,9.396l-14.034,28.067C102.265,187.643,99.886,189.07,97.27,189.07z"/>
	</g>
	<g id="g102">
		<path id="path100" shape-rendering="optimizeQuality" inkscape:connector-curvature="0" fill="#FFFFFF" d="M181.592,189.07
			c-1.072,0-2.143-0.238-3.093-0.713c-3.449-1.785-4.876-5.947-3.092-9.396l28.067-56.136c1.784-3.449,5.946-4.876,9.396-3.092
			s4.876,5.947,3.093,9.396l-28.068,56.136C186.587,187.643,184.089,189.07,181.592,189.07L181.592,189.07z"/>
	</g>
	<g id="g106">
		<path id="path104" shape-rendering="optimizeQuality" inkscape:connector-curvature="0" fill="#FFFFFF" d="M167.558,161.002
			c-1.07,0-2.141-0.238-3.093-0.713c-3.447-1.784-4.876-5.947-3.092-9.396l14.034-28.068c1.784-3.449,5.946-4.876,9.396-3.092
			s4.876,5.947,3.092,9.396l-14.034,28.069C172.553,159.575,170.055,161.002,167.558,161.002z"/>
	</g>
	<g id="g110">
		<path id="path108" shape-rendering="optimizeQuality" inkscape:connector-curvature="0" fill="#FFFFFF" d="M125.337,189.07
			c-1.07,0-2.141-0.238-3.093-0.713c-3.448-1.785-4.876-5.947-3.092-9.396l28.067-56.136c1.784-3.449,5.948-4.876,9.397-3.092
			c3.447,1.784,4.876,5.947,3.092,9.396l-28.067,56.136C130.451,187.643,127.953,189.07,125.337,189.07z"/>
	</g>
	<path id="path144" shape-rendering="optimizeQuality" inkscape:connector-curvature="0" fill="#FFFFFF" d="M253.782,91.308
		L158.4,36.243c-2.735-1.546-6.065-1.546-8.801,0L54.216,91.308c-2.735,1.546-4.4,4.52-4.4,7.612v110.131
		c0,3.092,1.665,6.065,4.4,7.611l95.383,55.065c1.309,0.833,2.854,1.189,4.4,1.189s3.093-0.356,4.4-1.189l95.383-55.065
		c2.737-1.546,4.402-4.52,4.402-7.611V98.92C258.184,95.828,256.519,92.854,253.782,91.308L253.782,91.308z M242.604,200.845
		c0,2.735-1.428,5.114-3.688,6.541l-81.111,46.858c-1.188,0.715-2.496,0.952-3.686,0.952c-1.309,0-2.616-0.356-3.687-0.952
		l-81.111-46.859c-2.26-1.307-3.687-3.807-3.687-6.541v-93.718c0-2.616,1.427-5.114,3.687-6.541l81.111-46.859
		c2.26-1.308,5.112-1.308,7.492,0l81.111,46.859c2.26,1.308,3.687,3.806,3.687,6.541v93.719H242.604z"/>
</g>
</svg>
