<?xml version="1.0" encoding="UTF-8" standalone="no"?>
<!-- Generator: Adobe Illustrator 16.0.0, SVG Export Plug-In . SVG Version: 6.00 Build 0)  -->

<svg
   xmlns:dc="http://purl.org/dc/elements/1.1/"
   xmlns:cc="http://creativecommons.org/ns#"
   xmlns:rdf="http://www.w3.org/1999/02/22-rdf-syntax-ns#"
   xmlns:svg="http://www.w3.org/2000/svg"
   xmlns="http://www.w3.org/2000/svg"
   xmlns:sodipodi="http://sodipodi.sourceforge.net/DTD/sodipodi-0.dtd"
   xmlns:inkscape="http://www.inkscape.org/namespaces/inkscape"
   version="1.1"
   x="0px"
   y="0px"
   width="308px"
   height="308px"
   viewBox="0 0 308 308"
   enable-background="new 0 0 308 308"
   xml:space="preserve"
   id="svg2"
   inkscape:version="0.92.2 (5c3e80d, 2017-08-06)"
   sodipodi:docname="logo.svg"><metadata
     id="metadata45"><rdf:RDF><cc:Work
         rdf:about=""><dc:format>image/svg+xml</dc:format><dc:type
           rdf:resource="http://purl.org/dc/dcmitype/StillImage" /><dc:title /></cc:Work></rdf:RDF></metadata><defs
     id="defs43" /><sodipodi:namedview
     pagecolor="#ffffff"
     bordercolor="#666666"
     borderopacity="1"
     objecttolerance="10"
     gridtolerance="10"
     guidetolerance="10"
     inkscape:pageopacity="0"
     inkscape:pageshadow="2"
     inkscape:window-width="2493"
     inkscape:window-height="1385"
     id="namedview41"
     showgrid="false"
     inkscape:zoom="3.0649351"
     inkscape:cx="62.19249"
     inkscape:cy="172.53134"
     inkscape:window-x="67"
     inkscape:window-y="27"
     inkscape:window-maximized="1"
     inkscape:current-layer="drawing"
     showguides="true"
     inkscape:guide-bbox="true"><sodipodi:guide
       position="134.42373,153.67373"
       orientation="0,1"
       id="guide4507"
       inkscape:locked="false" /><sodipodi:guide
       position="154.32627,225.12712"
       orientation="1,0"
       id="guide4509"
       inkscape:locked="false" /></sodipodi:namedview><g
     id="image_base" /><g
     id="drawing"><circle
       cx="154"
       cy="154"
       r="154"
       id="circle6"
       fill="#7F7F7F" /><rect
       x="24.257"
       y="87.299"
       fill="none"
       width="257.485"
       height="117.402"
       id="rect8" /><g
       id="g4633"
       transform="matrix(7.4695077,0,0,7.4695077,42.089447,42.594539)"><g
         id="g4561"><path
           id="path4527"
           d="M 19.982,14.438 13.742,9.902 C 13.513,9.736 13.209,9.711 12.958,9.84 c -0.253,0.128 -0.411,0.388 -0.411,0.669 v 9.069 c 0,0.284 0.158,0.543 0.411,0.671 0.107,0.054 0.224,0.081 0.342,0.081 0.154,0 0.31,-0.049 0.442,-0.146 l 6.24,-4.532 c 0.197,-0.145 0.312,-0.369 0.312,-0.607 0.001,-0.242 -0.117,-0.465 -0.312,-0.607 z"
           inkscape:connector-curvature="0"
           style="fill:#ffffff" /><path
           id="path4529"
           d="M 15.026,0.002 C 6.726,0.002 0,6.728 0,15.028 c 0,8.297 6.726,15.021 15.026,15.021 8.298,0 15.025,-6.725 15.025,-15.021 C 30.052,6.728 23.324,0.002 15.026,0.002 Z m 0,27.54 C 8.114,27.542 2.51,21.941 2.51,15.028 2.51,8.118 8.114,2.51 15.026,2.51 c 6.911,0 12.514,5.607 12.514,12.518 0.001,6.913 -5.603,12.514 -12.514,12.514 z"
           inkscape:connector-curvature="0"
           style="fill:#ffffff" /><g
           id="g4531" /><g
           id="g4533" /><g
           id="g4535" /><g
           id="g4537" /><g
           id="g4539" /><g
           id="g4541" /><g
           id="g4543" /><g
           id="g4545" /><g
           id="g4547" /><g
           id="g4549" /><g
           id="g4551" /><g
           id="g4553" /><g
           id="g4555" /><g
           id="g4557" /><g
           id="g4559" /></g><g
         id="g4563" /><g
         id="g4565" /><g
         id="g4567" /><g
         id="g4569" /><g
         id="g4571" /><g
         id="g4573" /><g
         id="g4575" /><g
         id="g4577" /><g
         id="g4579" /><g
         id="g4581" /><g
         id="g4583" /><g
         id="g4585" /><g
         id="g4587" /><g
         id="g4589" /><g
         id="g4591" /></g></g><g
     id="guides"
     display="none" /></svg>