<svg id="svg" version="1.1" width="400" height="400" xmlns="http://www.w3.org/2000/svg" xmlns:xlink="http://www.w3.org/1999/xlink" style="display: block;"><g id="svgg"><path id="path0" d="M234.800 1.200 C 234.800 1.420,234.991 1.600,235.224 1.600 C 235.457 1.600,235.555 1.750,235.441 1.933 C 235.328 2.117,235.498 2.267,235.819 2.267 C 236.302 2.267,236.289 2.140,235.740 1.533 C 234.984 0.698,234.800 0.633,234.800 1.200 M368.133 89.400 C 368.133 89.730,368.222 89.912,368.330 89.803 C 368.438 89.695,368.797 89.830,369.129 90.103 C 369.654 90.536,369.669 90.485,369.251 89.700 C 368.702 88.670,368.133 88.517,368.133 89.400 M1.400 235.600 C 2.265 236.556,2.267 236.556,2.267 235.818 C 2.267 235.497,2.117 235.328,1.933 235.441 C 1.750 235.555,1.600 235.457,1.600 235.224 C 1.600 234.991,1.392 234.800,1.138 234.800 C 0.876 234.800,0.989 235.146,1.400 235.600 M398.596 235.207 C 398.458 235.430,398.207 235.528,398.039 235.424 C 397.871 235.320,397.733 235.497,397.733 235.818 C 397.733 236.651,398.299 236.536,398.800 235.600 C 399.233 234.791,399.060 234.456,398.596 235.207 M368.133 310.678 C 368.133 310.977,368.317 311.161,368.542 311.086 C 369.179 310.874,369.285 310.133,368.678 310.133 C 368.378 310.133,368.133 310.378,368.133 310.678 M88.800 368.453 C 88.800 368.628,89.205 368.988,89.700 369.251 C 90.485 369.669,90.536 369.654,90.103 369.129 C 89.830 368.797,89.695 368.438,89.803 368.330 C 89.912 368.222,89.730 368.133,89.400 368.133 C 89.070 368.133,88.800 368.277,88.800 368.453 M310.133 368.678 C 310.133 368.977,310.317 369.161,310.542 369.086 C 311.179 368.874,311.285 368.133,310.678 368.133 C 310.378 368.133,310.133 368.378,310.133 368.678 M235.397 397.930 C 235.505 398.038,235.370 398.397,235.097 398.729 C 234.664 399.254,234.715 399.269,235.500 398.851 C 236.530 398.302,236.683 397.733,235.800 397.733 C 235.470 397.733,235.288 397.822,235.397 397.930 " stroke="none" fill="#000000" fill-rule="evenodd"></path><path id="path1" d="M174.800 0.400 C 174.800 0.643,173.000 0.800,170.200 0.800 C 166.133 0.800,165.507 0.893,164.800 1.600 C 164.132 2.268,163.467 2.400,160.774 2.400 C 157.578 2.400,155.759 2.887,156.212 3.620 C 156.353 3.848,155.143 4.000,153.186 4.000 C 150.262 4.000,149.904 4.083,149.716 4.800 C 149.538 5.481,149.170 5.600,147.242 5.600 C 145.473 5.600,144.828 5.775,144.293 6.400 C 143.747 7.038,143.113 7.200,141.166 7.200 C 139.062 7.200,138.696 7.310,138.516 8.000 C 138.340 8.673,137.970 8.800,136.180 8.800 C 134.405 8.800,134.012 8.932,133.800 9.600 C 133.590 10.260,133.195 10.400,131.536 10.400 C 129.862 10.400,129.490 10.534,129.316 11.200 C 129.152 11.827,128.770 12.000,127.553 12.000 C 126.503 12.000,126.000 12.178,126.000 12.549 C 126.000 12.918,125.322 13.163,123.933 13.297 C 122.670 13.418,121.680 13.749,121.389 14.148 C 121.126 14.506,120.527 14.800,120.056 14.800 C 119.585 14.800,118.840 15.160,118.400 15.600 C 117.960 16.040,117.152 16.400,116.603 16.400 C 116.040 16.400,115.390 16.748,115.107 17.200 C 114.780 17.724,114.174 18.000,113.350 18.000 C 112.430 18.000,112.037 18.214,111.884 18.800 C 111.724 19.413,111.338 19.600,110.237 19.600 C 109.067 19.600,108.800 19.748,108.800 20.400 C 108.800 21.067,108.533 21.200,107.200 21.200 C 105.867 21.200,105.600 21.333,105.600 22.000 C 105.600 22.652,105.333 22.800,104.163 22.800 C 103.062 22.800,102.676 22.987,102.516 23.600 C 102.361 24.194,101.970 24.400,101.000 24.400 C 100.030 24.400,99.639 24.606,99.484 25.200 C 99.362 25.666,98.938 26.000,98.470 26.000 C 97.243 26.000,96.400 26.425,96.400 27.043 C 96.400 27.349,96.040 27.600,95.600 27.600 C 95.067 27.600,94.800 27.867,94.800 28.400 C 94.800 29.067,94.533 29.200,93.200 29.200 C 92.178 29.200,91.600 29.382,91.600 29.705 C 91.600 29.983,91.195 30.395,90.700 30.620 C 90.205 30.845,89.832 31.209,89.872 31.430 C 89.911 31.650,89.461 31.867,88.872 31.912 C 88.282 31.957,87.530 32.319,87.200 32.716 C 86.870 33.114,86.285 33.560,85.900 33.707 C 85.515 33.854,85.200 34.251,85.200 34.587 C 85.200 34.933,84.852 35.200,84.400 35.200 C 83.960 35.200,83.240 35.560,82.800 36.000 C 82.360 36.440,81.742 36.800,81.427 36.800 C 81.112 36.800,80.740 37.160,80.600 37.600 C 80.460 38.040,80.088 38.400,79.773 38.400 C 79.458 38.400,79.200 38.760,79.200 39.200 C 79.200 39.822,78.933 40.000,78.003 40.000 C 77.240 40.000,76.626 40.290,76.307 40.800 C 76.032 41.240,75.491 41.600,75.104 41.600 C 74.667 41.600,74.400 41.903,74.400 42.400 C 74.400 42.933,74.133 43.200,73.600 43.200 C 73.084 43.200,72.800 43.467,72.800 43.950 C 72.800 44.450,72.430 44.774,71.690 44.922 C 71.080 45.044,69.919 45.787,69.110 46.572 C 68.301 47.357,67.451 48.000,67.220 48.000 C 66.989 48.000,66.800 48.276,66.800 48.613 C 66.800 48.949,66.485 49.341,66.100 49.482 C 65.715 49.624,65.256 49.978,65.080 50.270 C 64.904 50.561,64.511 50.800,64.207 50.800 C 63.903 50.800,63.540 51.160,63.400 51.600 C 63.260 52.040,62.888 52.400,62.573 52.400 C 62.258 52.400,62.000 52.760,62.000 53.200 C 62.000 53.733,61.733 54.000,61.200 54.000 C 60.667 54.000,60.400 54.267,60.400 54.800 C 60.400 55.333,60.133 55.600,59.600 55.600 C 59.067 55.600,58.800 55.867,58.800 56.400 C 58.800 56.933,58.533 57.200,58.000 57.200 C 57.467 57.200,57.200 57.467,57.200 58.000 C 57.200 58.533,56.933 58.800,56.400 58.800 C 55.867 58.800,55.600 59.067,55.600 59.600 C 55.600 60.133,55.333 60.400,54.800 60.400 C 54.267 60.400,54.000 60.667,54.000 61.200 C 54.000 61.733,53.733 62.000,53.200 62.000 C 52.760 62.000,52.400 62.258,52.400 62.573 C 52.400 62.888,52.040 63.260,51.600 63.400 C 51.160 63.540,50.800 63.903,50.800 64.207 C 50.800 64.511,50.561 64.904,50.270 65.080 C 49.978 65.256,49.624 65.715,49.482 66.100 C 49.341 66.485,48.949 66.800,48.613 66.800 C 48.276 66.800,48.000 66.989,48.000 67.220 C 48.000 67.451,47.357 68.301,46.572 69.110 C 45.787 69.919,45.044 71.080,44.922 71.690 C 44.774 72.430,44.450 72.800,43.950 72.800 C 43.467 72.800,43.200 73.084,43.200 73.600 C 43.200 74.133,42.933 74.400,42.400 74.400 C 41.903 74.400,41.600 74.667,41.600 75.104 C 41.600 75.491,41.240 76.032,40.800 76.307 C 40.290 76.626,40.000 77.240,40.000 78.003 C 40.000 78.933,39.822 79.200,39.200 79.200 C 38.760 79.200,38.400 79.458,38.400 79.773 C 38.400 80.088,38.040 80.460,37.600 80.600 C 37.160 80.740,36.800 81.112,36.800 81.427 C 36.800 81.742,36.440 82.360,36.000 82.800 C 35.560 83.240,35.200 83.960,35.200 84.400 C 35.200 84.852,34.933 85.200,34.587 85.200 C 34.251 85.200,33.854 85.515,33.707 85.900 C 33.560 86.285,33.114 86.870,32.716 87.200 C 32.319 87.530,31.957 88.282,31.912 88.872 C 31.867 89.461,31.650 89.911,31.430 89.872 C 31.209 89.832,30.845 90.205,30.620 90.700 C 30.395 91.195,29.983 91.600,29.705 91.600 C 29.382 91.600,29.200 92.178,29.200 93.200 C 29.200 94.533,29.067 94.800,28.400 94.800 C 27.867 94.800,27.600 95.067,27.600 95.600 C 27.600 96.040,27.349 96.400,27.043 96.400 C 26.425 96.400,26.000 97.243,26.000 98.470 C 26.000 98.938,25.666 99.362,25.200 99.484 C 24.606 99.639,24.400 100.030,24.400 101.000 C 24.400 101.970,24.194 102.361,23.600 102.516 C 22.987 102.676,22.800 103.062,22.800 104.163 C 22.800 105.333,22.652 105.600,22.000 105.600 C 21.333 105.600,21.200 105.867,21.200 107.200 C 21.200 108.533,21.067 108.800,20.400 108.800 C 19.748 108.800,19.600 109.067,19.600 110.237 C 19.600 111.338,19.413 111.724,18.800 111.884 C 18.214 112.037,18.000 112.430,18.000 113.350 C 18.000 114.174,17.724 114.780,17.200 115.107 C 16.748 115.390,16.400 116.040,16.400 116.603 C 16.400 117.152,16.040 117.960,15.600 118.400 C 15.160 118.840,14.800 119.650,14.800 120.200 C 14.800 120.750,14.649 121.200,14.464 121.200 C 13.916 121.200,13.200 123.135,13.200 124.619 C 13.200 125.580,13.017 126.000,12.600 126.000 C 12.170 126.000,12.000 126.439,12.000 127.553 C 12.000 128.770,11.827 129.152,11.200 129.316 C 10.534 129.490,10.400 129.862,10.400 131.536 C 10.400 133.195,10.260 133.590,9.600 133.800 C 8.932 134.012,8.800 134.405,8.800 136.180 C 8.800 137.970,8.673 138.340,8.000 138.516 C 7.310 138.696,7.200 139.062,7.200 141.166 C 7.200 143.113,7.038 143.747,6.400 144.293 C 5.775 144.828,5.600 145.473,5.600 147.242 C 5.600 149.170,5.481 149.538,4.800 149.716 C 4.083 149.904,4.000 150.262,4.000 153.186 C 4.000 155.143,3.848 156.353,3.620 156.212 C 2.887 155.759,2.400 157.578,2.400 160.774 C 2.400 163.467,2.268 164.132,1.600 164.800 C 0.893 165.507,0.800 166.133,0.800 170.200 C 0.800 173.000,0.643 174.800,0.400 174.800 C 0.138 174.800,0.000 183.533,0.000 200.200 C 0.000 216.867,0.138 225.600,0.400 225.600 C 0.643 225.600,0.800 227.343,0.800 230.029 C 0.800 234.121,1.298 236.168,2.100 235.367 C 2.207 235.260,2.327 236.844,2.367 238.886 C 2.408 240.929,2.613 242.660,2.823 242.734 C 3.033 242.808,3.102 243.034,2.977 243.237 C 2.852 243.440,3.031 243.714,3.375 243.846 C 3.863 244.033,4.000 244.729,4.000 247.029 C 4.000 249.562,4.111 250.031,4.800 250.400 C 5.453 250.749,5.600 251.238,5.600 253.052 C 5.600 254.938,5.721 255.307,6.400 255.484 C 7.104 255.668,7.200 256.030,7.200 258.484 C 7.200 260.916,7.300 261.301,7.981 261.479 C 8.620 261.646,8.784 262.094,8.881 263.942 C 8.970 265.630,9.152 266.200,9.600 266.200 C 10.043 266.200,10.232 266.759,10.322 268.343 C 10.421 270.071,10.596 270.526,11.222 270.690 C 11.822 270.847,12.000 271.244,12.000 272.427 C 12.000 273.292,12.236 274.100,12.541 274.280 C 12.839 274.456,13.187 275.404,13.315 276.386 C 13.442 277.368,13.829 278.378,14.173 278.630 C 14.518 278.882,14.800 279.459,14.800 279.911 C 14.800 281.156,15.221 282.000,15.843 282.000 C 16.165 282.000,16.400 282.407,16.400 282.967 C 16.400 284.348,16.798 285.200,17.443 285.200 C 17.812 285.200,18.000 285.668,18.000 286.586 C 18.000 287.562,18.236 288.098,18.800 288.400 C 19.317 288.677,19.600 289.238,19.600 289.987 C 19.600 290.795,19.842 291.223,20.400 291.400 C 20.995 291.589,21.200 292.005,21.200 293.027 C 21.200 294.133,21.355 294.400,22.000 294.400 C 22.667 294.400,22.800 294.667,22.800 296.000 C 22.800 297.333,22.933 297.600,23.600 297.600 C 24.252 297.600,24.400 297.867,24.400 299.037 C 24.400 300.138,24.587 300.524,25.200 300.684 C 25.901 300.867,26.239 301.779,26.036 302.934 C 26.004 303.118,26.342 303.364,26.789 303.481 C 27.235 303.598,27.600 304.020,27.600 304.420 C 27.600 304.819,27.960 305.260,28.400 305.400 C 28.995 305.589,29.200 306.005,29.200 307.027 C 29.200 307.981,29.383 308.400,29.800 308.400 C 30.133 308.400,30.400 308.756,30.400 309.200 C 30.400 309.916,30.816 310.187,31.700 310.047 C 31.865 310.021,31.962 310.135,31.915 310.300 C 31.680 311.137,32.444 313.200,32.990 313.200 C 33.333 313.200,33.600 313.550,33.600 314.000 C 33.600 314.518,33.867 314.800,34.355 314.800 C 34.902 314.800,35.184 315.187,35.374 316.200 C 35.531 317.038,35.870 317.600,36.218 317.600 C 36.542 317.600,36.800 317.971,36.800 318.437 C 36.800 318.938,37.121 319.359,37.600 319.484 C 38.040 319.599,38.400 319.959,38.400 320.284 C 38.400 320.609,38.760 320.969,39.200 321.084 C 39.640 321.199,40.000 321.618,40.000 322.014 C 40.000 323.162,40.440 324.000,41.043 324.000 C 41.349 324.000,41.600 324.360,41.600 324.800 C 41.600 325.333,41.867 325.600,42.400 325.600 C 42.933 325.600,43.200 325.867,43.200 326.400 C 43.200 326.933,43.467 327.200,44.000 327.200 C 44.573 327.200,44.800 327.467,44.800 328.138 C 44.800 328.654,45.160 329.402,45.600 329.800 C 46.040 330.198,46.400 330.754,46.400 331.035 C 46.400 331.316,46.760 331.660,47.200 331.800 C 47.640 331.940,48.000 332.216,48.000 332.414 C 48.000 332.611,48.595 333.368,49.322 334.096 C 50.049 334.823,50.764 335.729,50.910 336.109 C 51.056 336.489,51.451 336.800,51.787 336.800 C 52.124 336.800,52.400 337.058,52.400 337.373 C 52.400 337.688,52.760 338.060,53.200 338.200 C 53.640 338.340,54.000 338.729,54.000 339.064 C 54.000 339.400,54.360 339.769,54.800 339.884 C 55.240 339.999,55.600 340.359,55.600 340.684 C 55.600 341.009,55.960 341.369,56.400 341.484 C 56.840 341.599,57.200 341.942,57.200 342.247 C 57.200 342.551,57.560 342.800,58.000 342.800 C 58.533 342.800,58.800 343.067,58.800 343.600 C 58.800 344.133,59.067 344.400,59.600 344.400 C 60.133 344.400,60.400 344.667,60.400 345.200 C 60.400 345.733,60.667 346.000,61.200 346.000 C 61.733 346.000,62.000 346.267,62.000 346.800 C 62.000 347.333,62.267 347.600,62.800 347.600 C 63.240 347.600,63.555 347.747,63.500 347.926 C 63.369 348.352,65.812 350.800,66.369 350.800 C 66.606 350.800,66.800 351.058,66.800 351.373 C 66.800 351.688,67.160 352.060,67.600 352.200 C 68.040 352.340,68.400 352.712,68.400 353.027 C 68.400 353.342,68.639 353.600,68.930 353.600 C 69.222 353.600,69.883 354.050,70.400 354.600 C 70.917 355.150,71.668 355.600,72.070 355.600 C 72.471 355.600,72.800 355.887,72.800 356.237 C 72.800 356.588,73.160 356.969,73.600 357.084 C 74.040 357.199,74.400 357.542,74.400 357.847 C 74.400 358.151,74.739 358.400,75.153 358.400 C 75.570 358.400,76.000 358.757,76.116 359.200 C 76.276 359.813,76.662 360.000,77.763 360.000 C 78.933 360.000,79.200 360.148,79.200 360.800 C 79.200 361.240,79.458 361.600,79.773 361.600 C 80.088 361.600,80.460 361.960,80.600 362.400 C 80.740 362.840,81.202 363.200,81.627 363.200 C 82.052 363.200,82.400 363.451,82.400 363.757 C 82.400 364.369,83.241 364.800,84.433 364.800 C 84.933 364.800,85.200 365.078,85.200 365.600 C 85.200 366.117,85.467 366.400,85.953 366.400 C 86.370 366.400,86.800 366.757,86.916 367.200 C 87.101 367.910,88.287 368.270,89.700 368.047 C 89.865 368.021,89.955 368.218,89.900 368.485 C 89.845 368.752,90.205 369.155,90.700 369.380 C 91.195 369.605,91.600 370.015,91.600 370.290 C 91.600 370.565,92.320 370.906,93.200 371.046 C 94.185 371.204,94.800 371.518,94.800 371.864 C 94.800 372.172,95.115 372.541,95.500 372.682 C 95.885 372.824,96.340 373.171,96.511 373.454 C 96.682 373.736,97.447 374.085,98.211 374.228 C 99.004 374.377,99.600 374.727,99.600 375.045 C 99.600 375.413,100.072 375.600,101.000 375.600 C 102.133 375.600,102.400 375.752,102.400 376.400 C 102.400 377.067,102.667 377.200,104.000 377.200 C 105.333 377.200,105.600 377.333,105.600 378.000 C 105.600 378.667,105.867 378.800,107.200 378.800 C 108.533 378.800,108.800 378.933,108.800 379.600 C 108.800 380.222,109.067 380.400,109.997 380.400 C 110.760 380.400,111.374 380.690,111.693 381.200 C 112.031 381.742,112.626 382.000,113.534 382.000 C 114.538 382.000,114.927 382.201,115.084 382.800 C 115.239 383.394,115.630 383.600,116.600 383.600 C 117.570 383.600,117.961 383.806,118.116 384.400 C 118.268 384.983,118.662 385.200,119.563 385.200 C 120.267 385.200,121.145 385.545,121.600 386.000 C 122.157 386.557,122.933 386.800,124.153 386.800 C 125.496 386.800,125.950 386.966,126.092 387.510 C 126.215 387.980,126.726 388.255,127.603 388.322 C 128.332 388.377,129.131 388.699,129.378 389.038 C 129.626 389.376,130.632 389.752,131.614 389.873 C 132.596 389.995,133.615 390.364,133.878 390.694 C 134.141 391.023,135.221 391.388,136.278 391.503 C 137.335 391.619,138.344 391.958,138.520 392.257 C 138.727 392.609,139.606 392.800,141.020 392.800 C 142.667 392.800,143.396 392.996,144.000 393.600 C 144.619 394.219,145.333 394.400,147.153 394.400 C 149.170 394.400,149.537 394.514,149.716 395.200 C 149.900 395.905,150.262 396.000,152.763 396.000 C 155.067 396.000,155.750 396.150,156.400 396.800 C 157.119 397.519,162.450 398.048,164.600 397.614 C 164.820 397.570,164.867 397.667,164.703 397.830 C 163.768 398.765,165.465 399.200,170.049 399.200 C 172.950 399.200,174.800 399.356,174.800 399.600 C 174.800 399.862,183.533 400.000,200.200 400.000 C 216.867 400.000,225.600 399.862,225.600 399.600 C 225.600 399.357,227.384 399.200,230.151 399.200 C 234.537 399.200,236.219 398.752,235.297 397.830 C 235.133 397.667,235.180 397.570,235.400 397.614 C 237.550 398.048,242.881 397.519,243.600 396.800 C 244.247 396.153,244.933 396.000,247.186 396.000 C 249.562 396.000,250.035 395.882,250.400 395.200 C 250.753 394.540,251.238 394.400,253.165 394.400 C 255.360 394.400,256.812 393.745,256.130 393.063 C 255.985 392.918,257.058 392.800,258.513 392.800 C 260.320 392.800,261.262 392.628,261.480 392.257 C 261.656 391.958,262.689 391.616,263.776 391.497 C 264.917 391.372,265.949 391.011,266.220 390.641 C 266.477 390.288,267.051 390.000,267.494 390.000 C 269.164 390.000,270.800 389.480,270.800 388.950 C 270.800 388.588,271.278 388.400,272.197 388.400 C 273.160 388.400,273.748 388.152,274.093 387.600 C 274.445 387.036,275.026 386.800,276.064 386.800 C 277.925 386.800,278.800 386.467,278.800 385.757 C 278.800 385.384,279.275 385.200,280.237 385.200 C 281.338 385.200,281.724 385.013,281.884 384.400 C 282.043 383.794,282.430 383.600,283.484 383.600 C 284.538 383.600,284.925 383.406,285.084 382.800 C 285.241 382.201,285.630 382.000,286.633 382.000 C 287.562 382.000,288.103 381.755,288.400 381.200 C 288.685 380.668,289.238 380.400,290.052 380.400 C 290.938 380.400,291.332 380.180,291.484 379.600 C 291.641 378.999,292.030 378.800,293.047 378.800 C 294.133 378.800,294.400 378.642,294.400 378.000 C 294.400 377.333,294.667 377.200,296.000 377.200 C 297.333 377.200,297.600 377.067,297.600 376.400 C 297.600 375.751,297.867 375.600,299.013 375.600 C 299.872 375.600,300.512 375.375,300.646 375.024 C 300.767 374.708,301.404 374.331,302.060 374.187 C 302.717 374.043,303.351 373.672,303.470 373.362 C 303.588 373.053,303.926 372.800,304.220 372.800 C 304.514 372.800,304.990 372.464,305.277 372.054 C 305.565 371.643,306.385 371.179,307.100 371.022 C 307.823 370.863,308.400 370.484,308.400 370.168 C 308.400 369.856,308.760 369.600,309.200 369.600 C 309.916 369.600,310.187 369.184,310.047 368.300 C 310.021 368.135,310.135 368.021,310.300 368.047 C 311.713 368.270,312.899 367.910,313.084 367.200 C 313.200 366.757,313.630 366.400,314.047 366.400 C 314.533 366.400,314.800 366.117,314.800 365.600 C 314.800 365.078,315.067 364.800,315.567 364.800 C 316.759 364.800,317.600 364.369,317.600 363.757 C 317.600 363.451,317.948 363.200,318.373 363.200 C 318.798 363.200,319.260 362.840,319.400 362.400 C 319.540 361.960,320.002 361.600,320.427 361.600 C 320.933 361.600,321.200 361.324,321.200 360.800 C 321.200 360.172,321.467 360.000,322.437 360.000 C 323.338 360.000,323.732 359.783,323.884 359.200 C 324.000 358.757,324.430 358.400,324.847 358.400 C 325.261 358.400,325.600 358.151,325.600 357.847 C 325.600 357.542,325.960 357.199,326.400 357.084 C 326.840 356.969,327.200 356.588,327.200 356.237 C 327.200 355.887,327.515 355.597,327.900 355.593 C 328.285 355.589,329.024 355.139,329.542 354.593 C 330.060 354.047,330.653 353.600,330.859 353.600 C 331.066 353.600,332.172 352.644,333.317 351.476 C 334.463 350.308,335.715 349.234,336.100 349.089 C 336.485 348.944,336.800 348.549,336.800 348.213 C 336.800 347.876,337.058 347.600,337.373 347.600 C 337.688 347.600,338.054 347.259,338.186 346.843 C 338.318 346.427,338.781 345.994,339.213 345.881 C 339.646 345.767,340.000 345.409,340.000 345.084 C 340.000 344.759,340.360 344.399,340.800 344.284 C 341.240 344.169,341.600 343.788,341.600 343.437 C 341.600 343.087,341.870 342.800,342.200 342.800 C 342.530 342.800,342.800 342.551,342.800 342.247 C 342.800 341.942,343.160 341.599,343.600 341.484 C 344.040 341.369,344.400 341.009,344.400 340.684 C 344.400 340.359,344.760 339.999,345.200 339.884 C 345.640 339.769,346.000 339.400,346.000 339.064 C 346.000 338.729,346.360 338.340,346.800 338.200 C 347.240 338.060,347.600 337.688,347.600 337.373 C 347.600 337.058,347.876 336.800,348.213 336.800 C 348.549 336.800,348.944 336.485,349.089 336.100 C 349.234 335.715,350.308 334.463,351.476 333.317 C 352.644 332.172,353.600 331.066,353.600 330.859 C 353.600 330.653,354.047 330.060,354.593 329.542 C 355.139 329.024,355.589 328.306,355.593 327.947 C 355.597 327.587,355.960 327.199,356.400 327.084 C 356.840 326.969,357.200 326.588,357.200 326.237 C 357.200 325.887,357.470 325.600,357.800 325.600 C 358.130 325.600,358.400 325.261,358.400 324.847 C 358.400 324.430,358.757 324.000,359.200 323.884 C 359.774 323.734,360.000 323.338,360.000 322.484 C 360.000 321.630,360.226 321.234,360.800 321.084 C 361.240 320.969,361.600 320.600,361.600 320.264 C 361.600 319.929,361.960 319.540,362.400 319.400 C 362.840 319.260,363.200 318.798,363.200 318.373 C 363.200 317.948,363.451 317.600,363.757 317.600 C 364.369 317.600,364.800 316.759,364.800 315.567 C 364.800 315.067,365.078 314.800,365.600 314.800 C 366.117 314.800,366.400 314.533,366.400 314.047 C 366.400 313.630,366.757 313.200,367.200 313.084 C 367.910 312.899,368.270 311.713,368.047 310.300 C 368.021 310.135,368.135 310.021,368.300 310.047 C 369.184 310.187,369.600 309.916,369.600 309.200 C 369.600 308.760,369.856 308.400,370.168 308.400 C 370.484 308.400,370.863 307.823,371.022 307.100 C 371.179 306.385,371.643 305.565,372.054 305.277 C 372.464 304.990,372.800 304.514,372.800 304.220 C 372.800 303.926,373.053 303.588,373.362 303.470 C 373.672 303.351,374.043 302.717,374.187 302.060 C 374.331 301.404,374.708 300.767,375.024 300.646 C 375.375 300.512,375.600 299.872,375.600 299.013 C 375.600 297.867,375.751 297.600,376.400 297.600 C 377.067 297.600,377.200 297.333,377.200 296.000 C 377.200 294.667,377.333 294.400,378.000 294.400 C 378.642 294.400,378.800 294.133,378.800 293.047 C 378.800 292.030,378.999 291.641,379.600 291.484 C 380.180 291.332,380.400 290.938,380.400 290.052 C 380.400 289.238,380.668 288.685,381.200 288.400 C 381.755 288.103,382.000 287.562,382.000 286.633 C 382.000 285.630,382.201 285.241,382.800 285.084 C 383.406 284.925,383.600 284.538,383.600 283.484 C 383.600 282.430,383.794 282.043,384.400 281.884 C 385.013 281.724,385.200 281.338,385.200 280.237 C 385.200 279.275,385.384 278.800,385.757 278.800 C 386.467 278.800,386.800 277.925,386.800 276.064 C 386.800 275.026,387.036 274.445,387.600 274.093 C 388.152 273.748,388.400 273.160,388.400 272.197 C 388.400 271.278,388.588 270.800,388.950 270.800 C 389.498 270.800,390.000 269.152,390.000 267.350 C 390.000 266.828,390.151 266.400,390.336 266.400 C 390.878 266.400,391.600 264.472,391.600 263.024 C 391.600 262.203,391.832 261.597,392.200 261.455 C 392.651 261.282,392.800 260.558,392.800 258.546 C 392.800 257.072,392.918 255.985,393.063 256.130 C 393.745 256.812,394.400 255.360,394.400 253.165 C 394.400 251.238,394.540 250.753,395.200 250.400 C 395.882 250.035,396.000 249.562,396.000 247.186 C 396.000 244.933,396.153 244.247,396.800 243.600 C 397.519 242.881,398.048 237.550,397.614 235.400 C 397.570 235.180,397.667 235.133,397.830 235.297 C 398.752 236.219,399.200 234.537,399.200 230.151 C 399.200 227.384,399.357 225.600,399.600 225.600 C 399.862 225.600,400.000 216.867,400.000 200.200 C 400.000 183.533,399.862 174.800,399.600 174.800 C 399.356 174.800,399.200 172.950,399.200 170.049 C 399.200 165.465,398.765 163.768,397.830 164.703 C 397.667 164.867,397.570 164.820,397.614 164.600 C 398.048 162.450,397.519 157.119,396.800 156.400 C 396.150 155.750,396.000 155.067,396.000 152.763 C 396.000 150.262,395.905 149.900,395.200 149.716 C 394.517 149.537,394.400 149.170,394.400 147.200 C 394.400 145.230,394.283 144.863,393.600 144.684 C 392.896 144.500,392.800 144.138,392.800 141.657 C 392.800 139.707,392.633 138.741,392.257 138.520 C 391.958 138.344,391.619 137.335,391.503 136.278 C 391.388 135.221,391.023 134.141,390.694 133.878 C 390.364 133.615,389.995 132.596,389.873 131.614 C 389.752 130.632,389.376 129.626,389.038 129.378 C 388.699 129.131,388.377 128.332,388.322 127.603 C 388.255 126.726,387.980 126.215,387.510 126.092 C 386.966 125.950,386.800 125.496,386.800 124.153 C 386.800 122.933,386.557 122.157,386.000 121.600 C 385.545 121.145,385.200 120.267,385.200 119.563 C 385.200 118.662,384.983 118.268,384.400 118.116 C 383.806 117.961,383.600 117.570,383.600 116.600 C 383.600 115.630,383.394 115.239,382.800 115.084 C 382.201 114.927,382.000 114.538,382.000 113.534 C 382.000 112.626,381.742 112.031,381.200 111.693 C 380.690 111.374,380.400 110.760,380.400 109.997 C 380.400 109.067,380.222 108.800,379.600 108.800 C 378.933 108.800,378.800 108.533,378.800 107.200 C 378.800 105.867,378.667 105.600,378.000 105.600 C 377.333 105.600,377.200 105.333,377.200 104.000 C 377.200 102.667,377.067 102.400,376.400 102.400 C 375.752 102.400,375.600 102.133,375.600 101.000 C 375.600 100.072,375.413 99.600,375.045 99.600 C 374.725 99.600,374.376 98.997,374.222 98.179 C 374.076 97.397,373.703 96.661,373.393 96.542 C 373.084 96.423,372.721 95.983,372.588 95.563 C 372.455 95.143,372.111 94.800,371.824 94.800 C 371.525 94.800,371.193 94.118,371.046 93.200 C 370.906 92.320,370.565 91.600,370.290 91.600 C 370.015 91.600,369.605 91.195,369.380 90.700 C 369.155 90.205,368.752 89.845,368.485 89.900 C 368.218 89.955,368.021 89.865,368.047 89.700 C 368.270 88.287,367.910 87.101,367.200 86.916 C 366.757 86.800,366.400 86.370,366.400 85.953 C 366.400 85.467,366.117 85.200,365.600 85.200 C 365.078 85.200,364.800 84.933,364.800 84.433 C 364.800 83.241,364.369 82.400,363.757 82.400 C 363.451 82.400,363.200 82.052,363.200 81.627 C 363.200 81.202,362.840 80.740,362.400 80.600 C 361.960 80.460,361.600 80.088,361.600 79.773 C 361.600 79.458,361.240 79.200,360.800 79.200 C 360.148 79.200,360.000 78.933,360.000 77.763 C 360.000 76.662,359.813 76.276,359.200 76.116 C 358.757 76.000,358.400 75.570,358.400 75.153 C 358.400 74.739,358.151 74.400,357.847 74.400 C 357.542 74.400,357.199 74.040,357.084 73.600 C 356.969 73.160,356.588 72.800,356.237 72.800 C 355.887 72.800,355.600 72.471,355.600 72.070 C 355.600 71.668,355.150 70.917,354.600 70.400 C 354.050 69.883,353.600 69.222,353.600 68.930 C 353.600 68.639,353.342 68.400,353.027 68.400 C 352.712 68.400,352.340 68.040,352.200 67.600 C 352.060 67.160,351.688 66.800,351.373 66.800 C 351.058 66.800,350.800 66.606,350.800 66.369 C 350.800 65.812,348.352 63.369,347.926 63.500 C 347.747 63.555,347.600 63.240,347.600 62.800 C 347.600 62.267,347.333 62.000,346.800 62.000 C 346.267 62.000,346.000 61.733,346.000 61.200 C 346.000 60.667,345.733 60.400,345.200 60.400 C 344.667 60.400,344.400 60.133,344.400 59.600 C 344.400 59.067,344.133 58.800,343.600 58.800 C 343.067 58.800,342.800 58.533,342.800 58.000 C 342.800 57.560,342.551 57.200,342.247 57.200 C 341.942 57.200,341.599 56.840,341.484 56.400 C 341.369 55.960,341.009 55.600,340.684 55.600 C 340.359 55.600,339.999 55.240,339.884 54.800 C 339.769 54.360,339.400 54.000,339.064 54.000 C 338.729 54.000,338.340 53.640,338.200 53.200 C 338.060 52.760,337.688 52.400,337.373 52.400 C 337.058 52.400,336.800 52.124,336.800 51.787 C 336.800 51.451,336.489 51.056,336.109 50.910 C 335.729 50.764,334.823 50.049,334.096 49.322 C 333.368 48.595,332.611 48.000,332.414 48.000 C 332.216 48.000,331.940 47.640,331.800 47.200 C 331.660 46.760,331.316 46.400,331.035 46.400 C 330.754 46.400,330.198 46.040,329.800 45.600 C 329.402 45.160,328.654 44.800,328.138 44.800 C 327.467 44.800,327.200 44.573,327.200 44.000 C 327.200 43.467,326.933 43.200,326.400 43.200 C 325.867 43.200,325.600 42.933,325.600 42.400 C 325.600 41.867,325.333 41.600,324.800 41.600 C 324.360 41.600,324.000 41.349,324.000 41.043 C 324.000 40.440,323.162 40.000,322.014 40.000 C 321.618 40.000,321.199 39.640,321.084 39.200 C 320.969 38.760,320.609 38.400,320.284 38.400 C 319.959 38.400,319.599 38.040,319.484 37.600 C 319.359 37.121,318.938 36.800,318.437 36.800 C 317.971 36.800,317.600 36.542,317.600 36.218 C 317.600 35.870,317.038 35.531,316.200 35.374 C 315.187 35.184,314.800 34.902,314.800 34.355 C 314.800 33.867,314.518 33.600,314.000 33.600 C 313.550 33.600,313.200 33.333,313.200 32.990 C 313.200 32.444,311.137 31.680,310.300 31.915 C 310.135 31.962,310.021 31.865,310.047 31.700 C 310.187 30.816,309.916 30.400,309.200 30.400 C 308.756 30.400,308.400 30.133,308.400 29.800 C 308.400 29.383,307.981 29.200,307.027 29.200 C 306.005 29.200,305.589 28.995,305.400 28.400 C 305.260 27.960,304.819 27.600,304.420 27.600 C 304.020 27.600,303.598 27.235,303.481 26.789 C 303.364 26.342,303.118 26.004,302.934 26.036 C 301.779 26.239,300.867 25.901,300.684 25.200 C 300.524 24.587,300.138 24.400,299.037 24.400 C 297.867 24.400,297.600 24.252,297.600 23.600 C 297.600 22.933,297.333 22.800,296.000 22.800 C 294.667 22.800,294.400 22.667,294.400 22.000 C 294.400 21.355,294.133 21.200,293.027 21.200 C 292.005 21.200,291.589 20.995,291.400 20.400 C 291.223 19.842,290.795 19.600,289.987 19.600 C 289.238 19.600,288.677 19.317,288.400 18.800 C 288.098 18.236,287.562 18.000,286.586 18.000 C 285.668 18.000,285.200 17.812,285.200 17.443 C 285.200 16.798,284.348 16.400,282.967 16.400 C 282.407 16.400,282.000 16.165,282.000 15.843 C 282.000 15.221,281.156 14.800,279.911 14.800 C 279.459 14.800,278.882 14.518,278.630 14.173 C 278.378 13.829,277.368 13.442,276.386 13.315 C 275.404 13.187,274.456 12.839,274.280 12.541 C 274.100 12.236,273.292 12.000,272.427 12.000 C 271.244 12.000,270.847 11.822,270.690 11.222 C 270.526 10.596,270.071 10.421,268.343 10.322 C 266.759 10.232,266.200 10.043,266.200 9.600 C 266.200 9.152,265.630 8.970,263.942 8.881 C 262.094 8.784,261.646 8.620,261.479 7.981 C 261.301 7.300,260.916 7.200,258.484 7.200 C 256.030 7.200,255.668 7.104,255.484 6.400 C 255.307 5.721,254.938 5.600,253.052 5.600 C 251.238 5.600,250.749 5.453,250.400 4.800 C 250.031 4.111,249.562 4.000,247.029 4.000 C 244.729 4.000,244.033 3.863,243.846 3.375 C 243.714 3.031,243.440 2.852,243.237 2.977 C 243.034 3.102,242.808 3.033,242.734 2.823 C 242.660 2.613,240.929 2.408,238.886 2.367 C 236.844 2.327,235.260 2.207,235.367 2.100 C 236.168 1.298,234.121 0.800,230.029 0.800 C 227.343 0.800,225.600 0.643,225.600 0.400 C 225.600 0.138,216.867 0.000,200.200 0.000 C 183.533 0.000,174.800 0.138,174.800 0.400 M232.800 163.867 C 232.910 174.684,233.140 183.674,233.311 183.845 C 233.482 184.016,234.202 183.445,234.911 182.578 C 251.505 162.267,286.507 174.433,290.787 202.000 C 291.009 203.430,291.365 205.410,291.578 206.400 C 292.096 208.808,292.106 221.842,291.592 223.603 C 291.367 224.371,291.009 226.204,290.796 227.676 C 290.584 229.148,290.158 230.948,289.851 231.676 C 289.543 232.404,288.899 234.080,288.419 235.400 C 287.938 236.720,287.376 238.070,287.170 238.400 C 286.963 238.730,286.574 239.450,286.304 240.000 C 284.992 242.677,279.124 250.000,278.291 250.000 C 278.095 250.000,277.184 250.604,276.267 251.342 C 274.485 252.776,270.469 254.800,269.405 254.800 C 269.050 254.800,268.184 255.115,267.480 255.500 C 265.164 256.766,251.654 256.483,247.020 255.071 C 241.056 253.253,238.787 251.724,233.300 245.821 C 232.585 245.052,231.976 244.463,231.946 244.511 C 231.916 244.560,231.781 246.760,231.646 249.400 L 231.400 254.200 223.752 254.308 L 216.103 254.417 215.852 253.158 C 215.713 252.466,215.597 228.208,215.594 199.250 C 215.590 168.845,215.436 146.360,215.229 146.033 C 214.963 145.613,214.487 146.238,213.402 148.433 C 212.595 150.065,211.520 152.120,211.012 153.000 C 210.503 153.880,209.434 155.860,208.634 157.400 C 207.834 158.940,206.771 160.920,206.271 161.800 C 205.234 163.625,201.410 170.703,200.328 172.800 C 199.931 173.570,199.427 174.470,199.207 174.800 C 198.988 175.130,198.332 176.300,197.750 177.400 C 196.157 180.409,194.884 182.779,193.666 185.000 C 193.064 186.100,191.698 188.620,190.633 190.600 C 189.567 192.580,187.962 195.550,187.066 197.200 C 186.170 198.850,185.100 200.830,184.688 201.600 C 184.277 202.370,183.146 204.440,182.176 206.200 C 181.206 207.960,180.143 209.972,179.813 210.671 C 179.483 211.370,178.702 212.810,178.077 213.871 C 177.452 214.932,176.072 217.420,175.011 219.400 C 173.950 221.380,172.596 223.900,172.002 225.000 C 170.994 226.867,170.301 228.144,166.356 235.400 C 165.519 236.940,164.501 238.830,164.093 239.600 C 163.685 240.370,163.151 241.360,162.905 241.800 C 162.659 242.240,162.347 242.870,162.210 243.200 C 162.074 243.530,161.537 244.520,161.018 245.400 C 160.498 246.280,159.477 248.170,158.748 249.600 C 158.019 251.030,156.979 252.695,156.437 253.300 L 155.450 254.400 93.158 254.400 C 58.897 254.400,30.581 254.291,30.233 254.157 C 29.407 253.840,29.418 252.037,30.254 250.845 C 30.613 250.332,31.446 248.897,32.105 247.656 C 32.763 246.415,33.909 244.275,34.651 242.900 C 35.393 241.525,36.654 239.185,37.454 237.700 C 38.254 236.215,39.991 233.020,41.314 230.600 C 42.637 228.180,44.526 224.670,45.512 222.800 C 46.498 220.930,47.441 219.220,47.607 219.000 C 47.772 218.780,48.716 217.070,49.703 215.200 C 53.413 208.173,56.421 202.580,56.802 202.000 C 57.019 201.670,57.847 200.140,58.642 198.600 C 59.437 197.060,60.504 195.080,61.012 194.200 C 61.520 193.320,62.275 191.970,62.690 191.200 C 63.105 190.430,64.363 188.090,65.487 186.000 C 66.611 183.910,67.989 181.390,68.549 180.400 C 69.109 179.410,70.221 177.340,71.021 175.800 C 71.820 174.260,72.904 172.280,73.429 171.400 C 74.343 169.868,74.838 168.908,75.387 167.600 C 75.525 167.270,76.068 166.280,76.593 165.400 C 77.119 164.520,78.199 162.540,78.993 161.000 C 79.788 159.460,80.860 157.480,81.375 156.600 C 81.890 155.720,82.875 153.920,83.563 152.600 C 84.251 151.280,85.344 149.300,85.991 148.200 C 86.639 147.100,87.293 145.930,87.446 145.600 C 87.599 145.270,87.899 144.775,88.112 144.499 C 88.421 144.100,103.204 144.018,160.550 144.099 L 232.600 144.200 232.800 163.867 M344.600 173.193 C 351.322 174.290,354.025 175.294,359.200 178.616 C 363.011 181.062,368.800 187.717,368.800 189.652 C 368.800 189.966,369.076 190.616,369.413 191.097 C 370.208 192.233,371.600 197.689,371.600 199.672 L 371.600 201.216 363.326 201.108 L 355.052 201.000 354.554 199.200 C 352.258 190.898,346.294 186.400,337.581 186.400 C 331.846 186.400,327.658 188.039,323.784 191.800 C 314.782 200.540,313.518 222.289,321.297 234.596 C 322.259 236.118,327.006 240.423,328.000 240.674 C 328.550 240.813,329.442 241.213,329.982 241.563 C 331.730 242.696,341.692 242.471,343.988 241.247 C 349.854 238.120,352.826 234.106,354.537 227.000 L 355.018 225.000 363.309 224.892 L 371.600 224.784 371.601 225.692 C 371.614 237.341,359.373 252.719,348.436 254.793 C 347.304 255.008,345.978 255.398,345.489 255.660 C 341.035 258.045,323.663 255.687,317.820 251.905 C 311.099 247.554,306.624 242.771,304.149 237.294 C 303.579 236.032,302.772 234.334,302.356 233.521 C 301.940 232.707,301.600 231.695,301.600 231.271 C 301.600 230.847,301.316 229.713,300.970 228.750 C 299.230 223.919,299.115 206.140,300.795 201.800 C 301.050 201.140,301.408 199.880,301.589 199.000 C 302.082 196.613,304.641 190.823,306.008 189.000 C 306.669 188.120,307.477 186.914,307.804 186.321 C 308.531 185.003,312.961 180.497,314.604 179.405 C 323.991 173.165,332.995 171.300,344.600 173.193 M249.945 186.588 C 249.842 186.692,248.608 187.071,247.203 187.431 C 236.438 190.188,230.754 203.433,232.779 221.040 C 233.309 225.651,234.344 228.541,237.489 234.185 C 238.024 235.145,241.612 238.527,243.447 239.800 C 244.611 240.608,246.238 241.298,248.795 242.069 C 251.017 242.740,259.606 242.321,260.800 241.485 C 261.338 241.108,262.077 240.800,262.442 240.800 C 262.807 240.800,264.210 239.942,265.560 238.893 C 273.971 232.357,277.451 217.621,273.800 204.000 C 273.417 202.570,272.855 201.045,272.552 200.611 C 272.248 200.177,272.000 199.536,272.000 199.185 C 272.000 197.195,266.633 190.876,263.258 188.893 C 260.125 187.052,251.052 185.481,249.945 186.588 " stroke="none" fill="#a5a5a5" fill-rule="evenodd"></path><path id="path2" d="M255.484 6.400 C 255.599 6.840,255.970 7.200,256.309 7.200 C 256.826 7.200,256.809 7.073,256.200 6.400 C 255.802 5.960,255.431 5.600,255.375 5.600 C 255.320 5.600,255.369 5.960,255.484 6.400 M392.876 143.897 C 392.949 144.279,393.321 144.651,393.703 144.724 C 394.181 144.817,394.326 144.672,394.168 144.260 C 393.821 143.357,392.711 143.045,392.876 143.897 M88.112 144.499 C 87.899 144.775,87.599 145.270,87.446 145.600 C 87.293 145.930,86.639 147.100,85.991 148.200 C 85.344 149.300,84.251 151.280,83.563 152.600 C 82.875 153.920,81.890 155.720,81.375 156.600 C 80.860 157.480,79.788 159.460,78.993 161.000 C 78.199 162.540,77.119 164.520,76.593 165.400 C 76.068 166.280,75.525 167.270,75.387 167.600 C 74.838 168.908,74.343 169.868,73.429 171.400 C 72.904 172.280,71.820 174.260,71.021 175.800 C 70.221 177.340,69.109 179.410,68.549 180.400 C 67.989 181.390,66.611 183.910,65.487 186.000 C 64.363 188.090,63.105 190.430,62.690 191.200 C 62.275 191.970,61.520 193.320,61.012 194.200 C 60.504 195.080,59.437 197.060,58.642 198.600 C 57.847 200.140,57.019 201.670,56.802 202.000 C 56.421 202.580,53.413 208.173,49.703 215.200 C 48.716 217.070,47.772 218.780,47.607 219.000 C 47.441 219.220,46.498 220.930,45.512 222.800 C 44.526 224.670,42.637 228.180,41.314 230.600 C 39.991 233.020,38.254 236.215,37.454 237.700 C 36.654 239.185,35.393 241.525,34.651 242.900 C 33.909 244.275,32.763 246.415,32.105 247.656 C 31.446 248.897,30.613 250.332,30.254 250.845 C 29.418 252.037,29.407 253.840,30.233 254.157 C 30.581 254.291,58.897 254.400,93.158 254.400 L 155.450 254.400 156.437 253.300 C 156.979 252.695,158.019 251.030,158.748 249.600 C 159.477 248.170,160.498 246.280,161.018 245.400 C 161.537 244.520,162.074 243.530,162.210 243.200 C 162.347 242.870,162.659 242.240,162.905 241.800 C 163.151 241.360,163.685 240.370,164.093 239.600 C 164.501 238.830,165.519 236.940,166.356 235.400 C 170.301 228.144,170.994 226.867,172.002 225.000 C 172.596 223.900,173.950 221.380,175.011 219.400 C 176.072 217.420,177.452 214.932,178.077 213.871 C 178.702 212.810,179.483 211.370,179.813 210.671 C 180.143 209.972,181.206 207.960,182.176 206.200 C 183.146 204.440,184.277 202.370,184.688 201.600 C 185.100 200.830,186.170 198.850,187.066 197.200 C 187.962 195.550,189.567 192.580,190.633 190.600 C 191.698 188.620,193.064 186.100,193.666 185.000 C 194.884 182.779,196.157 180.409,197.750 177.400 C 198.332 176.300,198.988 175.130,199.207 174.800 C 199.427 174.470,199.931 173.570,200.328 172.800 C 201.410 170.703,205.234 163.625,206.271 161.800 C 206.771 160.920,207.834 158.940,208.634 157.400 C 209.434 155.860,210.503 153.880,211.012 153.000 C 211.520 152.120,212.595 150.065,213.402 148.433 C 214.487 146.238,214.963 145.613,215.229 146.033 C 215.436 146.360,215.590 168.845,215.594 199.250 C 215.597 228.208,215.713 252.466,215.852 253.158 L 216.103 254.417 223.752 254.308 L 231.400 254.200 231.646 249.400 C 231.781 246.760,231.916 244.560,231.946 244.511 C 231.976 244.463,232.585 245.052,233.300 245.821 C 238.787 251.724,241.056 253.253,247.020 255.071 C 251.654 256.483,265.164 256.766,267.480 255.500 C 268.184 255.115,269.050 254.800,269.405 254.800 C 270.469 254.800,274.485 252.776,276.267 251.342 C 277.184 250.604,278.095 250.000,278.291 250.000 C 279.124 250.000,284.992 242.677,286.304 240.000 C 286.574 239.450,286.963 238.730,287.170 238.400 C 287.376 238.070,287.938 236.720,288.419 235.400 C 288.899 234.080,289.543 232.404,289.851 231.676 C 290.158 230.948,290.584 229.148,290.796 227.676 C 291.009 226.204,291.367 224.371,291.592 223.603 C 292.106 221.842,292.096 208.808,291.578 206.400 C 291.365 205.410,291.009 203.430,290.787 202.000 C 286.507 174.433,251.505 162.267,234.911 182.578 C 234.202 183.445,233.482 184.016,233.311 183.845 C 233.140 183.674,232.910 174.684,232.800 163.867 L 232.600 144.200 160.550 144.099 C 103.204 144.018,88.421 144.100,88.112 144.499 M329.600 173.191 C 327.510 173.567,324.839 174.198,323.665 174.595 C 321.359 175.373,317.936 177.190,314.604 179.405 C 312.961 180.497,308.531 185.003,307.804 186.321 C 307.477 186.914,306.669 188.120,306.008 189.000 C 304.641 190.823,302.082 196.613,301.589 199.000 C 301.408 199.880,301.050 201.140,300.795 201.800 C 299.115 206.140,299.230 223.919,300.970 228.750 C 301.316 229.713,301.600 230.847,301.600 231.271 C 301.600 231.695,301.940 232.707,302.356 233.521 C 302.772 234.334,303.579 236.032,304.149 237.294 C 306.624 242.771,311.099 247.554,317.820 251.905 C 323.663 255.687,341.035 258.045,345.489 255.660 C 345.978 255.398,347.304 255.008,348.436 254.793 C 359.373 252.719,371.614 237.341,371.601 225.692 L 371.600 224.784 363.309 224.892 L 355.018 225.000 354.537 227.000 C 352.826 234.106,349.854 238.120,343.988 241.247 C 341.692 242.471,331.730 242.696,329.982 241.563 C 329.442 241.213,328.550 240.813,328.000 240.674 C 327.006 240.423,322.259 236.118,321.297 234.596 C 314.912 224.496,314.460 207.740,320.262 196.275 C 325.803 185.325,342.628 182.878,350.704 191.847 C 352.858 194.240,353.545 195.552,354.554 199.200 L 355.052 201.000 363.326 201.108 L 371.600 201.216 371.600 199.672 C 371.600 197.689,370.208 192.233,369.413 191.097 C 369.076 190.616,368.800 189.966,368.800 189.652 C 368.800 188.791,366.093 184.872,363.819 182.442 C 356.515 174.636,342.556 170.863,329.600 173.191 M258.800 187.111 C 264.224 188.550,272.000 195.663,272.000 199.185 C 272.000 199.536,272.248 200.177,272.552 200.611 C 277.247 207.324,275.671 225.721,269.641 234.593 C 267.969 237.052,263.623 240.800,262.442 240.800 C 262.077 240.800,261.338 241.108,260.800 241.485 C 259.606 242.321,251.017 242.740,248.795 242.069 C 246.238 241.298,244.611 240.608,243.447 239.800 C 241.612 238.527,238.024 235.145,237.489 234.185 C 234.344 228.541,233.309 225.651,232.779 221.040 C 230.754 203.433,236.438 190.188,247.203 187.431 C 248.608 187.071,249.842 186.692,249.945 186.588 C 250.405 186.129,256.442 186.485,258.800 187.111 M6.225 256.028 C 7.057 256.946,7.200 256.979,7.200 256.247 C 7.200 255.942,6.823 255.595,6.363 255.474 C 5.560 255.264,5.555 255.287,6.225 256.028 " stroke="none" fill="#ffffff" fill-rule="evenodd"></path></g></svg>