<?xml version="1.0" encoding="utf-8"?>
<!-- Generator: Adobe Illustrator 16.0.0, SVG Export Plug-In . SVG Version: 6.00 Build 0)  -->
<!DOCTYPE svg PUBLIC "-//W3C//DTD SVG 1.1//EN" "http://www.w3.org/Graphics/SVG/1.1/DTD/svg11.dtd">
<svg version="1.1" id="Layer_1" xmlns="http://www.w3.org/2000/svg" xmlns:xlink="http://www.w3.org/1999/xlink" x="0px" y="0px"
	 width="308px" height="308px" viewBox="0 0 308 308" enable-background="new 0 0 308 308" xml:space="preserve">
<circle fill="#7F7F7F" cx="153.999" cy="154.945" r="154.08"/>
<g>
	<path fill="#FFFFFF" d="M84.048,101.238h0.433c3.3,3.785,7.03,7.138,10.545,10.761l23.904,23.903v0.433
		C107.357,147.854,95.838,159.482,84.265,171c-11.628-11.572-23.201-23.201-34.828-34.773c0.596-1.136,1.731-1.892,2.596-2.812
		C62.687,122.653,73.503,112.054,84.048,101.238z"/>
	<path fill="#FFFFFF" d="M153.81,101.238h0.433c0.326,0.486,0.649,0.919,1.082,1.352c11.194,11.086,22.228,22.334,33.529,33.367
		c-0.271,0.649-0.865,1.082-1.353,1.568c-11.193,11.14-22.335,22.334-33.529,33.475c-11.681-11.518-23.146-23.254-34.88-34.719
		C130.448,124.438,142.399,113.027,153.81,101.238z"/>
	<path fill="#FFFFFF" d="M223.571,101.238h0.434c2.164,2.596,4.705,4.813,7.03,7.246c8.761,8.761,17.469,17.468,26.229,26.229
		c0.434,0.487,1.137,0.919,1.298,1.623C246.825,147.746,235.47,159.59,223.68,171l-33.259-33.259
		c-0.541-0.595-1.243-1.028-1.514-1.784c5.895-5.732,11.627-11.627,17.467-17.414C212.107,112.757,217.948,107.133,223.571,101.238z
		"/>
	<path fill="#FFFFFF" d="M119.578,205.342c11.411-11.414,22.875-22.822,34.286-34.289l0.485,0.217
		c11.465,11.52,22.93,23.039,34.502,34.449c-0.377,0.865-1.189,1.352-1.784,2.055c-8.327,8.273-16.656,16.656-24.984,24.93
		c-2.705,2.598-5.3,5.516-8.058,7.951c-3.947-3.57-7.57-7.572-11.411-11.25c-7.786-7.787-15.519-15.574-23.361-23.309
		C119.362,205.881,119.47,205.557,119.578,205.342L119.578,205.342z"/>
</g>
</svg>
