<?xml version="1.0" encoding="utf-8"?>
<!-- Generator: Adobe Illustrator 16.0.0, SVG Export Plug-In . SVG Version: 6.00 Build 0)  -->
<!DOCTYPE svg PUBLIC "-//W3C//DTD SVG 1.1//EN" "http://www.w3.org/Graphics/SVG/1.1/DTD/svg11.dtd">
<svg version="1.1" xmlns="http://www.w3.org/2000/svg" xmlns:xlink="http://www.w3.org/1999/xlink" x="0px" y="0px" width="308px"
	 height="308px" viewBox="0 0 308 308" enable-background="new 0 0 308 308" xml:space="preserve">
<g id="image_base">
</g>
<g id="drawing">
	<circle fill="#7F7F7F" cx="154" cy="154" r="154"/>
	<path fill="#FFFFFF" d="M112.076,144.792c-28.217,0-51.054,22.858-51.063,51.043c0.008,28.196,22.845,51.054,51.063,51.054
		c28.193,0,50.999-22.858,51.012-51.054c0-14.399-0.002-8.292-0.002-14.568l0,0h-18.232c0,0,0,0.18,0,14.568
		c-0.017,9.082-3.663,17.215-9.607,23.175c-5.96,5.949-14.087,9.608-23.169,9.608c-9.094,0-17.21-3.66-23.186-9.608
		c-5.947-5.96-9.594-14.094-9.607-23.175c0.013-9.072,3.661-17.205,9.607-23.165c5.975-5.95,14.092-9.599,23.186-9.609
		c16.771,0,66.407,0,83.856,0c28.207,0,51.047-22.7,51.054-50.896c-0.007-28.207-22.847-51.043-51.054-51.054
		c-28.198,0.011-51.044,22.848-51.054,51.054c0,14.325-0.013,14.42-0.013,14.42h18.222c0,0,0-0.096,0-14.42
		c0.016-9.072,3.716-17.205,9.675-23.175c5.955-5.938,14.083-9.599,23.17-9.599c9.082,0,17.226,3.66,23.185,9.61
		c5.938,5.959,9.591,14.092,9.591,23.164c0,9.093-3.652,17.215-9.597,23.165c-5.954,5.949-14.097,9.451-23.18,9.462H112.076
		L112.076,144.792z"/>
</g>
<g id="guides" display="none">
</g>
</svg>
