<?xml version="1.0" encoding="UTF-8" standalone="no"?>
<!-- Generator: Adobe Illustrator 16.0.0, SVG Export Plug-In . SVG Version: 6.00 Build 0)  -->

<svg
   xmlns:dc="http://purl.org/dc/elements/1.1/"
   xmlns:cc="http://creativecommons.org/ns#"
   xmlns:rdf="http://www.w3.org/1999/02/22-rdf-syntax-ns#"
   xmlns:svg="http://www.w3.org/2000/svg"
   xmlns="http://www.w3.org/2000/svg"
   xmlns:sodipodi="http://sodipodi.sourceforge.net/DTD/sodipodi-0.dtd"
   xmlns:inkscape="http://www.inkscape.org/namespaces/inkscape"
   version="1.1"
   x="0px"
   y="0px"
   width="308px"
   height="308px"
   viewBox="0 0 308 308"
   enable-background="new 0 0 308 308"
   xml:space="preserve"
   id="svg2"
   inkscape:version="0.91 r13725"
   sodipodi:docname="logo.svg"><metadata
     id="metadata45"><rdf:RDF><cc:Work
         rdf:about=""><dc:format>image/svg+xml</dc:format><dc:type
           rdf:resource="http://purl.org/dc/dcmitype/StillImage" /><dc:title /></cc:Work></rdf:RDF></metadata><defs
     id="defs43" /><sodipodi:namedview
     pagecolor="#ffffff"
     bordercolor="#666666"
     borderopacity="1"
     objecttolerance="10"
     gridtolerance="10"
     guidetolerance="10"
     inkscape:pageopacity="0"
     inkscape:pageshadow="2"
     inkscape:window-width="1280"
     inkscape:window-height="747"
     id="namedview41"
     showgrid="false"
     inkscape:zoom="1.0836182"
     inkscape:cx="-12.835045"
     inkscape:cy="217.59715"
     inkscape:window-x="0"
     inkscape:window-y="0"
     inkscape:window-maximized="1"
     inkscape:current-layer="svg2" /><g
     id="image_base" /><circle
     style="fill:#7f7f7f"
     id="circle6"
     r="154"
     cy="154"
     cx="154" /><g
     id="guides"
     display="none" /><path
     inkscape:connector-curvature="0"
     id="path3476"
     d="m 93.645442,236.45091 c -0.937172,-0.56715 -2.340873,-4.24569 -3.119339,-8.17453 -2.238108,-11.29552 -2.403386,-11.54397 -7.97277,-11.98481 -5.936546,-0.46988 -5.31154,1.29367 -12.688829,-35.80375 -5.134442,-25.81903 -5.019925,-35.85527 0.587409,-51.4803 5.359045,-14.93315 10.284685,-22.44299 22.144302,-33.762093 18.245085,-17.413559 37.440575,-24.99905 62.611105,-24.74206 12.32845,0.125873 16.09711,0.717526 25.68452,4.032287 15.70589,5.430171 25.36009,11.354901 36.23264,22.235778 15.25134,15.263028 24.68448,36.964818 24.74974,56.939118 0.0219,6.71704 -9.88282,58.76321 -11.72297,61.60018 -0.43998,0.67833 -2.90682,1.23332 -5.48186,1.23332 -5.06155,0 -4.77071,-0.5228 -8.38809,15.07806 l -1.21606,5.24454 -15.38574,0.36989 c -14.17554,0.34078 -15.59952,0.15123 -18.10379,-2.41001 -1.49494,-1.52893 -2.98362,-3.76042 -3.30819,-4.95885 -1.09835,-4.05562 9.9156,-55.72976 12.62089,-59.21337 2.24514,-2.89109 3.41571,-3.23399 9.92105,-2.90625 4.05656,0.20438 11.57398,1.92711 16.70538,3.82829 5.83436,2.16163 9.81528,2.99414 10.62556,2.22208 0.71264,-0.67903 1.70367,-5.41687 2.20227,-10.52853 1.03529,-10.61394 0.63658,-11.15844 -8.96899,-12.24861 l -6.07597,-0.68958 -1.74632,-8.178 c -3.55073,-16.62817 -17.45338,-33.93934 -32.7639,-40.79665 -14.89292,-6.670288 -27.701,-8.127805 -41.44638,-4.716469 -12.56359,3.118038 -19.83583,7.064989 -28.86009,15.663559 -9.27891,8.84122 -13.137691,15.46625 -16.803593,28.84961 l -2.513979,9.17795 -5.457826,0.42548 c -8.457395,0.65932 -9.403003,2.04525 -8.488323,12.4409 1.096246,12.45921 2.067778,13.26056 11.2308,9.26346 10.526086,-4.59168 22.369831,-6.26447 26.425731,-3.7323 3.5822,2.23643 3.07313,0.57438 9.39224,30.66425 5.60331,26.68138 5.86396,31.29789 1.99071,35.25922 -2.5354,2.59306 -4.15932,2.86756 -16.85654,2.84943 -7.72797,-0.0105 -14.817628,-0.48411 -15.754798,-1.05124 z"
     style="fill:#ffffff" /></svg>