<?xml version="1.0" encoding="utf-8"?>
<!-- Generator: Adobe Illustrator 16.0.0, SVG Export Plug-In . SVG Version: 6.00 Build 0)  -->
<!DOCTYPE svg PUBLIC "-//W3C//DTD SVG 1.1//EN" "http://www.w3.org/Graphics/SVG/1.1/DTD/svg11.dtd">
<svg version="1.1" id="Layer_1" xmlns="http://www.w3.org/2000/svg" xmlns:xlink="http://www.w3.org/1999/xlink" x="0px" y="0px"
	 width="559.654px" height="509.613px" viewBox="0 0 559.654 509.613" enable-background="new 0 0 559.654 509.613"
	 xml:space="preserve">
<path fill="#FFFFFF" d="M559.654,295.902c0-54.767-33.952-101.603-81.955-120.611c11.581-15.154,18.466-34.089,18.466-54.635
	c0-49.742-40.323-90.065-90.065-90.065c-25.814,0-49.088,10.862-65.509,28.263C315.98,23.297,274.912,0,228.395,0
	c-75.31,0-136.36,61.05-136.36,136.359c0,11.642,1.463,22.94,4.207,33.728C40.798,185.072,0,235.719,0,295.902
	c0,70.383,55.793,127.723,125.563,130.232c33.324,50.301,90.424,83.479,155.282,83.479c65.167,0,122.502-33.495,155.757-84.2
	C505.142,421.964,559.654,365.3,559.654,295.902z"/>
<g>
	<polygon points="404.279,268.21 404.28,268.21 404.28,268.21 	"/>
	<path d="M457.637,322.15c-1.618-6.329-4.006-12.257-7.021-17.723l1.257,0.257c2.366-11.563,3.545-23.461,3.545-35.362
		c0-46.887-18.28-90.967-51.434-124.121c-33.154-33.154-77.524-51.412-124.164-51.412c-47.316,0-91.024,18.258-124.178,51.412
		c-33.154,33.154-51.47,77.234-51.47,124.121c0,11.901,1.199,23.799,3.566,35.362l1.307-0.268
		c-3.02,5.468-5.408,11.399-7.027,17.733c-10.268,40.166,13.97,81.051,54.136,91.317c21.298,5.444,42.796,1.187,59.825-10.002
		L155.374,268.21c-8.538,2.288-16.584,6.071-23.771,11.112c-0.217-3.325-0.336-6.661-0.336-10
		c0-81.881,66.764-148.496,148.553-148.496s148.538,66.615,148.538,148.496c0,3.333-0.116,6.663-0.331,9.983
		c-7.182-5.034-15.218-8.81-23.746-11.096l-60.604,135.256c17.029,11.188,38.527,15.446,59.825,10.002
		C443.666,403.201,467.903,362.316,457.637,322.15z"/>
	<polygon points="155.374,268.21 155.374,268.21 155.375,268.21 	"/>
</g>
</svg>
