<?xml version="1.0" encoding="utf-8"?>
<!-- Generator: Adobe Illustrator 16.0.0, SVG Export Plug-In . SVG Version: 6.00 Build 0)  -->
<!DOCTYPE svg PUBLIC "-//W3C//DTD SVG 1.1//EN" "http://www.w3.org/Graphics/SVG/1.1/DTD/svg11.dtd">
<svg version="1.1" id="Layer_1" xmlns="http://www.w3.org/2000/svg" xmlns:xlink="http://www.w3.org/1999/xlink" x="0px" y="0px"
	 width="559.654px" height="509.614px" viewBox="0 0 559.654 509.614" enable-background="new 0 0 559.654 509.614"
	 xml:space="preserve">
<g>
	<circle fill="#7F8C8D" cx="228.396" cy="136.36" r="136.361"/>
	<circle fill="#7F8C8D" cx="406.1" cy="120.656" r="90.065"/>
	<circle fill="#7F8C8D" cx="429.976" cy="295.903" r="129.678"/>
	<circle fill="#7F8C8D" cx="130.328" cy="295.903" r="130.328"/>
	<circle fill="#7F8C8D" cx="280.844" cy="323.469" r="186.145"/>
</g>
<g>
	<polygon fill="#DEDEDE" points="404.279,268.21 404.28,268.21 404.28,268.21 	"/>
	<path fill="#DEDEDE" d="M457.637,322.151c-1.618-6.329-4.006-12.257-7.021-17.723l1.257,0.257
		c2.366-11.563,3.545-23.461,3.545-35.362c0-46.887-18.28-90.967-51.434-124.121c-33.154-33.154-77.524-51.413-124.164-51.413
		c-47.316,0-91.024,18.259-124.178,51.413c-33.154,33.154-51.47,77.234-51.47,124.121c0,11.901,1.199,23.799,3.566,35.362
		l1.307-0.268c-3.02,5.468-5.408,11.399-7.027,17.733c-10.268,40.166,13.97,81.051,54.136,91.317
		c21.298,5.444,42.796,1.187,59.825-10.002L155.374,268.21c-8.538,2.288-16.584,6.071-23.771,11.112
		c-0.217-3.325-0.336-6.661-0.336-10c0-81.881,66.764-148.496,148.553-148.496s148.538,66.615,148.538,148.496
		c0,3.333-0.116,6.663-0.331,9.983c-7.182-5.034-15.218-8.81-23.746-11.096l-60.604,135.256
		c17.029,11.188,38.527,15.446,59.825,10.002C443.666,403.202,467.903,362.317,457.637,322.151z"/>
	<polygon fill="#DEDEDE" points="155.374,268.21 155.374,268.21 155.375,268.21 	"/>
</g>
</svg>
