<svg id="svg" version="1.1" width="400" height="400" xmlns="http://www.w3.org/2000/svg" xmlns:xlink="http://www.w3.org/1999/xlink" style="display: block;"><g id="svgg"><path id="path0" d="M169.000 37.492 C 11.842 55.820,-55.458 202.600,54.103 288.082 C 58.628 291.612,63.413 295.405,64.737 296.510 L 67.144 298.520 64.605 309.510 C 60.143 328.828,52.649 348.705,45.663 359.750 L 42.975 364.000 45.425 364.000 C 49.198 364.000,59.762 361.350,67.510 358.461 C 71.354 357.027,75.625 355.488,77.000 355.040 C 81.678 353.517,114.242 338.895,125.240 333.380 L 136.197 327.884 143.348 329.521 C 267.374 357.904,394.926 288.722,399.665 190.500 C 404.164 97.250,292.385 23.103,169.000 37.492 M175.810 112.541 C 186.829 118.054,198.795 133.900,199.100 143.384 C 199.171 145.584,199.604 144.662,200.571 140.247 C 204.935 120.331,216.920 109.990,236.560 109.195 C 291.935 106.952,319.030 171.157,280.056 212.263 C 261.180 232.171,203.363 278.121,199.199 276.523 C 190.310 273.112,139.388 232.194,121.804 214.333 C 97.812 189.963,94.318 161.128,112.131 134.497 C 126.466 113.063,156.296 102.779,175.810 112.541 " stroke="none" fill="#b0a9b0" fill-rule="evenodd"></path></g></svg>