<svg width="640" height="480" xmlns="http://www.w3.org/2000/svg">
 <g class="layer">
  <title>Layer 1</title>
  <circle id="svg_7" r="240" cy="240.000001" cx="320.000011" stroke-width="0" stroke="#000000" fill="#9e9a9a"/>
  <path fill-rule="evenodd" fill="#ffffff" d="m299.647522,106.779724c-130.995911,15.991577 -187.092468,144.060211 -95.770081,218.64505c3.771729,3.080017 7.760132,6.389496 8.86377,7.353638l2.006287,1.753754l-2.116333,9.58902c-3.719177,16.855377 -9.965698,34.198395 -15.788757,43.83548l-2.240479,3.70813l2.042114,0c3.144897,0 11.950317,-2.312134 18.408508,-4.832886c3.204102,-1.25116 6.764099,-2.593994 7.910217,-2.984863c3.899292,-1.328857 31.042358,-14.086853 40.209473,-18.898804l9.133057,-4.79541l5.960571,1.428345c103.379333,24.764771 209.697754,-35.597992 213.647827,-121.298767c3.750061,-81.362549 -89.421082,-146.057373 -192.266174,-133.502655m5.676331,65.481842c9.184692,4.810181 19.158691,18.636169 19.412964,26.911133c0.059143,1.919556 0.420044,1.115082 1.226074,-2.737091c3.637573,-17.377106 13.62738,-26.399872 29.997925,-27.093536c46.156738,-1.957031 68.741211,54.063171 36.255249,89.929016c-15.733765,17.370148 -63.925903,57.462494 -67.396729,56.068207c-7.409302,-2.976166 -49.854309,-38.677979 -64.511108,-54.262085c-19.998047,-21.263336 -22.9104,-46.422485 -8.062744,-69.6586c11.948669,-18.701599 36.812866,-27.674622 53.078369,-19.157043" id="svg_5"/>
  <g id="svg_6"/>
 </g>
</svg>