<?xml version="1.0" encoding="utf-8"?>
<!-- Generator: Adobe Illustrator 16.0.0, SVG Export Plug-In . SVG Version: 6.00 Build 0)  -->
<!DOCTYPE svg PUBLIC "-//W3C//DTD SVG 1.1//EN" "http://www.w3.org/Graphics/SVG/1.1/DTD/svg11.dtd">
<svg version="1.1" xmlns="http://www.w3.org/2000/svg" xmlns:xlink="http://www.w3.org/1999/xlink" x="0px" y="0px" width="308px"
	 height="308px" viewBox="0 0 308 308" enable-background="new 0 0 308 308" xml:space="preserve">
<g id="image_base">
</g>
<g id="drawing">
	<circle fill="#7F7F7F" cx="154" cy="154" r="154"/>
	<g>
		<path fill-rule="evenodd" clip-rule="evenodd" fill="#FFFFFF" d="M106.486,128.328c14.682,0,29.364,0.074,44.045-0.032
			c7.05-0.052,13.596,1.398,19.442,5.443c7.427,5.138,11.778,12.246,13.241,21.118c0.276,1.673,0.304,3.399,0.309,5.102
			c0.029,8.79,0.015,17.58,0.012,26.369c0,2.669-1.321,3.973-4.021,3.973c-31.739,0.002-63.479,0.113-95.218-0.05
			c-14.342-0.073-26.522-10.258-29.593-24.222c-0.482-2.195-0.663-4.493-0.681-6.746c-0.076-8.932-0.032-17.865-0.031-26.797
			c0-3.133,1.007-4.153,4.172-4.154C74.271,128.324,90.378,128.328,106.486,128.328z"/>
		<path fill-rule="evenodd" clip-rule="evenodd" fill="#FFFFFF" d="M117.391,81.918c0.09-19.129,15.12-35.22,35.277-35.236
			c19.778-0.016,35.329,15.441,35.356,35.32c0.027,19.953-16.076,35.866-36.479,35.285
			C132.853,116.756,117.421,101.523,117.391,81.918z"/>
		<path fill-rule="evenodd" clip-rule="evenodd" fill="#FFFFFF" d="M121.953,230.13c0-9.073-0.001-18.146,0.001-27.218
			c0-2.374,1.175-3.584,3.574-3.586c18.097-0.011,36.194-0.01,54.292-0.001c2.472,0.001,3.713,1.291,3.714,3.789
			c0.004,9.31,0.177,18.624-0.039,27.93c-0.329,14.135-10.11,26.168-23.989,29.341c-2.781,0.636-5.708,0.83-8.574,0.87
			c-8.168,0.112-16.339,0.04-24.509,0.039c-3.371-0.001-4.472-1.114-4.472-4.516C121.953,247.896,121.953,239.013,121.953,230.13z"
			/>
		<path fill-rule="evenodd" clip-rule="evenodd" fill="#FFFFFF" d="M253.97,146.812c0,4.132-0.078,8.265,0.014,12.394
			c0.296,13.313-8.723,25.341-20.893,29.396c-3.25,1.083-6.581,1.676-9.996,1.688c-8.833,0.032-17.666,0.012-26.499,0.01
			c-2.834,0-4.211-1.324-4.215-4.141c-0.016-8.786-0.161-17.574,0.031-26.355c0.273-12.433,5.716-21.943,16.738-27.99
			c4.42-2.426,9.227-3.495,14.275-3.489c8.833,0.01,17.666,0.049,26.498-0.028c2.392-0.021,4.203,1.057,4.092,4.127
			C253.844,137.215,253.97,142.016,253.97,146.812z"/>
	</g>
</g>
<g id="guides" display="none">
</g>
</svg>
