<?xml version="1.0" encoding="utf-8"?>
<!-- Generator: Adobe Illustrator 16.0.0, SVG Export Plug-In . SVG Version: 6.00 Build 0)  -->
<!DOCTYPE svg PUBLIC "-//W3C//DTD SVG 1.1//EN" "http://www.w3.org/Graphics/SVG/1.1/DTD/svg11.dtd">
<svg version="1.1" xmlns="http://www.w3.org/2000/svg" xmlns:xlink="http://www.w3.org/1999/xlink" x="0px" y="0px" width="64px"
	 height="64px" viewBox="0 0 64 64" enable-background="new 0 0 64 64" xml:space="preserve">
<g id="Layer_1">
</g>
<g id="Layer_3" display="none">
</g>
<g id="Layer_3_copy_3" display="none">
</g>
<g id="Layer_3_copy_2">
</g>
<g id="Layer_3_copy">
</g>
<g id="Layer_2">
	<path fill="#FFFFFF" d="M20.002,0.137h-3.863V4v42.015c-2-1.306-3.906-2.012-6.069-2.018C4.546,43.997,0.034,48.474,0.034,54
		c0,5.521,4.528,9.998,10.052,9.998c5.524,0,10.053-4.478,10.053-9.998V16.137h40v21.878c-2-1.304-3.908-2.012-6.068-2.015
		c-5.525,0-10.038,4.475-10.038,9.999c0,5.526,4.53,9.997,10.056,9.997c5.521,0,10.051-4.471,10.051-9.997V4V2V0.137H20.002z
		 M60.139,12.137h-40v-8h40V12.137z"/>
</g>
</svg>
