<?xml version="1.0" encoding="UTF-8" standalone="no"?>
<!-- Generator: Adobe Illustrator 16.0.0, SVG Export Plug-In . SVG Version: 6.00 Build 0)  -->

<svg
   xmlns:dc="http://purl.org/dc/elements/1.1/"
   xmlns:cc="http://creativecommons.org/ns#"
   xmlns:rdf="http://www.w3.org/1999/02/22-rdf-syntax-ns#"
   xmlns:svg="http://www.w3.org/2000/svg"
   xmlns="http://www.w3.org/2000/svg"
   xmlns:sodipodi="http://sodipodi.sourceforge.net/DTD/sodipodi-0.dtd"
   xmlns:inkscape="http://www.inkscape.org/namespaces/inkscape"
   version="1.1"
   x="0px"
   y="0px"
   width="308px"
   height="308px"
   viewBox="0 0 308 308"
   enable-background="new 0 0 308 308"
   xml:space="preserve"
   id="svg2"
   inkscape:version="0.92.0 r"
   sodipodi:docname="logo.svg"><metadata
     id="metadata45"><rdf:RDF><cc:Work
         rdf:about=""><dc:format>image/svg+xml</dc:format><dc:type
           rdf:resource="http://purl.org/dc/dcmitype/StillImage" /><dc:title /></cc:Work></rdf:RDF></metadata><defs
     id="defs43" /><sodipodi:namedview
     pagecolor="#ffffff"
     bordercolor="#666666"
     borderopacity="1"
     objecttolerance="10"
     gridtolerance="10"
     guidetolerance="10"
     inkscape:pageopacity="0"
     inkscape:pageshadow="2"
     inkscape:window-width="1280"
     inkscape:window-height="773"
     id="namedview41"
     showgrid="false"
     inkscape:zoom="0.76623377"
     inkscape:cx="-43.067796"
     inkscape:cy="154"
     inkscape:window-x="0"
     inkscape:window-y="27"
     inkscape:window-maximized="1"
     inkscape:current-layer="drawing" /><g
     id="image_base" /><g
     id="drawing"><circle
       fill="#7F7F7F"
       cx="154"
       cy="154"
       r="154"
       id="circle6" /><rect
       x="24.257"
       y="87.299"
       fill="none"
       width="257.485"
       height="117.402"
       id="rect8" /><path
       style="color:#000000;font-style:normal;font-variant:normal;font-weight:normal;font-stretch:normal;font-size:medium;line-height:normal;font-family:sans-serif;text-indent:0;text-align:start;text-decoration:none;text-decoration-line:none;text-decoration-style:solid;text-decoration-color:#000000;letter-spacing:normal;word-spacing:normal;text-transform:none;writing-mode:lr-tb;direction:ltr;baseline-shift:baseline;text-anchor:start;white-space:normal;clip-rule:nonzero;display:inline;overflow:visible;visibility:visible;opacity:1;isolation:auto;mix-blend-mode:normal;color-interpolation:sRGB;color-interpolation-filters:linearRGB;solid-color:#000000;solid-opacity:1;fill:#ffffff;fill-opacity:1;fill-rule:nonzero;stroke:none;stroke-width:13.12607193;stroke-linecap:butt;stroke-linejoin:miter;stroke-miterlimit:10;stroke-dasharray:none;stroke-dashoffset:0;stroke-opacity:1;color-rendering:auto;image-rendering:auto;shape-rendering:auto;text-rendering:auto;enable-background:accumulate"
       d="m 154.2047,92.862256 c -27.8404,0 -51.43739,18.873904 -58.750902,44.445924 -6.356138,-13.56378 -20.130266,-23.06639 -35.995652,-23.06639 -21.81861,0 -39.754064,17.93553 -39.754064,39.75416 0,21.81849 17.935454,39.76217 39.754064,39.76217 15.865386,0 29.639513,-9.5084 35.995652,-23.07449 7.313512,25.57396 30.910502,44.45411 58.750902,44.45411 27.63442,0 51.11109,-18.59546 58.61168,-43.881 6.47363,13.25823 20.07723,22.50138 35.71727,22.50138 21.81858,0 39.76227,-17.94368 39.76227,-39.76217 0,-21.81863 -17.94369,-39.75416 -39.76227,-39.75416 -15.64004,0 -29.24364,9.23743 -35.71727,22.49323 -7.50059,-25.28355 -30.97726,-43.872764 -58.61168,-43.872764 z m 0,23.336624 c 21.01626,0 37.80528,16.7808 37.80528,37.79707 0,21.01621 -16.78902,37.80516 -37.80528,37.80516 -21.01622,0 -37.79706,-16.78895 -37.79706,-37.80516 0,-21.01627 16.78084,-37.79707 37.79706,-37.79707 z m -94.746553,21.37954 c 9.207712,0 16.425681,7.20974 16.425681,16.41753 0,9.20766 -7.217969,16.42561 -16.425681,16.42561 -9.207777,0 -16.417516,-7.21795 -16.417516,-16.42561 0,-9.20779 7.209739,-16.41753 16.417516,-16.41753 z m 189.075503,0 c 9.20775,0 16.42563,7.20974 16.42563,16.41753 0,9.20766 -7.21796,16.42561 -16.42563,16.42561 -9.2077,0 -16.41754,-7.21795 -16.41754,-16.42561 0,-9.20779 7.20984,-16.41753 16.41754,-16.41753 z"
       id="XMLID_107_"
       inkscape:connector-curvature="0" /></g><g
     id="guides"
     display="none" /></svg>