<?xml version="1.0" encoding="UTF-8" standalone="no"?>
<!-- Generator: Adobe Illustrator 16.0.0, SVG Export Plug-In . SVG Version: 6.00 Build 0)  -->

<svg
   xmlns:dc="http://purl.org/dc/elements/1.1/"
   xmlns:cc="http://creativecommons.org/ns#"
   xmlns:rdf="http://www.w3.org/1999/02/22-rdf-syntax-ns#"
   xmlns:svg="http://www.w3.org/2000/svg"
   xmlns="http://www.w3.org/2000/svg"
   xmlns:sodipodi="http://sodipodi.sourceforge.net/DTD/sodipodi-0.dtd"
   xmlns:inkscape="http://www.inkscape.org/namespaces/inkscape"
   version="1.1"
   x="0px"
   y="0px"
   width="308px"
   height="308px"
   viewBox="0 0 308 308"
   enable-background="new 0 0 308 308"
   xml:space="preserve"
   id="svg2"
   inkscape:version="0.92.2 5c3e80d, 2017-08-06"
   sodipodi:docname="logo.svg"
   inkscape:export-filename="/home/colin/.local/share/MellowPlayer/MellowPlayer/plugins/Jamendo/logo.svg.png"
   inkscape:export-xdpi="96"
   inkscape:export-ydpi="96"><metadata
     id="metadata45"><rdf:RDF><cc:Work
         rdf:about=""><dc:format>image/svg+xml</dc:format><dc:type
           rdf:resource="http://purl.org/dc/dcmitype/StillImage" /><dc:title /></cc:Work></rdf:RDF></metadata><defs
     id="defs43" /><sodipodi:namedview
     pagecolor="#ffffff"
     bordercolor="#666666"
     borderopacity="1"
     objecttolerance="10"
     gridtolerance="10"
     guidetolerance="10"
     inkscape:pageopacity="0"
     inkscape:pageshadow="2"
     inkscape:window-width="2560"
     inkscape:window-height="1376"
     id="namedview41"
     showgrid="false"
     inkscape:zoom="1.9301948"
     inkscape:cx="239.86252"
     inkscape:cy="58.112183"
     inkscape:window-x="0"
     inkscape:window-y="27"
     inkscape:window-maximized="1"
     inkscape:current-layer="svg2"
     inkscape:snap-bbox="true" /><g
     id="image_base" /><g
     id="drawing"><circle
       cx="154"
       cy="154"
       r="154"
       id="circle6"
       fill="#7F7F7F" /><rect
       x="24.257"
       y="87.299"
       width="257.485"
       height="117.402"
       id="rect8"
       fill="none" /></g><g
     id="guides"
     display="none" /><g
     id="g146"
     transform="matrix(1.1893133,0,0,1.1893133,52.190355,34.808199)"
     style="fill:#e6e6e6"><g
       id="g112"
       style="fill:#e6e6e6"><g
         id="g98"
         style="fill:#e6e6e6"><path
           id="path96"
           d="m 40.2,129.5 c -0.9,0 -1.8,-0.2 -2.6,-0.6 -2.9,-1.5 -4.1,-5 -2.6,-7.9 L 46.8,97.4 c 1.5,-2.9 5,-4.1 7.9,-2.6 2.9,1.5 4.1,5 2.6,7.9 l -11.8,23.6 c -1.1,2 -3.1,3.2 -5.3,3.2 z"
           shape-rendering="optimizeQuality"
           inkscape:connector-curvature="0"
           style="fill:#e6e6e6" /></g><g
         id="g102"
         style="fill:#e6e6e6"><path
           id="path100"
           d="m 111.1,129.5 c -0.9,0 -1.8,-0.2 -2.6,-0.6 -2.9,-1.5 -4.1,-5 -2.6,-7.9 l 23.6,-47.2 c 1.5,-2.9 5,-4.1 7.9,-2.6 2.9,1.5 4.1,5 2.6,7.9 l -23.6,47.2 c -1.1,2 -3.2,3.2 -5.3,3.2 z"
           shape-rendering="optimizeQuality"
           inkscape:connector-curvature="0"
           style="fill:#e6e6e6" /></g><g
         id="g106"
         style="fill:#e6e6e6"><path
           id="path104"
           d="m 99.3,105.9 c -0.9,0 -1.8,-0.2 -2.6,-0.6 -2.9,-1.5 -4.1,-5 -2.6,-7.9 l 11.8,-23.6 c 1.5,-2.9 5,-4.1 7.9,-2.6 2.9,1.5 4.1,5 2.6,7.9 l -11.8,23.6 c -1.1,2 -3.2,3.2 -5.3,3.2 z"
           shape-rendering="optimizeQuality"
           inkscape:connector-curvature="0"
           style="fill:#e6e6e6" /></g><g
         id="g110"
         style="fill:#e6e6e6"><path
           id="path108"
           d="m 63.8,129.5 c -0.9,0 -1.8,-0.2 -2.6,-0.6 -2.9,-1.5 -4.1,-5 -2.6,-7.9 L 82.2,73.8 c 1.5,-2.9 5,-4.1 7.9,-2.6 2.9,1.5 4.1,5 2.6,7.9 l -23.6,47.2 c -1,2 -3.1,3.2 -5.3,3.2 z"
           shape-rendering="optimizeQuality"
           inkscape:connector-curvature="0"
           style="fill:#e6e6e6" /></g></g><g
       id="g142"
       style="fill:#e6e6e6"><g
         id="g128"
         style="fill:#e6e6e6"><path
           id="path114"
           d="m 232.5,54.6 c 0,-1 0.4,-1.8 1.1,-2.6 0.7,-0.7 1.6,-1.1 2.5,-1.1 1,0 1.8,0.4 2.5,1.1 0.7,0.7 1.1,1.6 1.1,2.6 v 26.7 c 0,3.6 -1.3,6.8 -3.9,9.4 -2.6,2.6 -5.7,3.9 -9.4,3.9 -1,0 -1.8,-0.4 -2.5,-1.1 -0.7,-0.7 -1.1,-1.5 -1.1,-2.5 0,-1 0.4,-1.8 1.1,-2.6 0.7,-0.7 1.5,-1.1 2.5,-1.1 1.7,0 3.1,-0.6 4.3,-1.8 1.2,-1.2 1.8,-2.6 1.8,-4.3 z"
           shape-rendering="optimizeQuality"
           inkscape:connector-curvature="0"
           style="fill:#e6e6e6" /><path
           id="path116"
           d="m 249,94.2 c -0.9,-0.4 -1.6,-1 -1.9,-1.9 -0.4,-0.9 -0.4,-1.8 0,-2.7 l 3.9,-9.3 v 0 l 11.2,-27 c 0,-0.1 0.1,-0.2 0.2,-0.3 l 0.1,-0.2 c 0.1,-0.1 0.1,-0.1 0.1,-0.2 0,0 0,-0.1 0.1,-0.2 0.1,-0.1 0.1,-0.1 0.1,-0.1 0,0 0,-0.1 0.1,-0.1 0.1,-0.1 0.1,-0.1 0.1,-0.2 0,0 0.1,0 0.1,-0.1 0.1,-0.1 0.1,-0.1 0.2,-0.1 0,0 0,0 0.1,-0.1 0.1,-0.1 0.1,-0.1 0.2,-0.1 l 0.1,-0.1 c 0.1,-0.1 0.2,-0.1 0.2,-0.1 0,0 0.1,-0.1 0.2,-0.1 0.1,-0.1 0.1,-0.1 0.1,-0.1 0,0 0,0 0.1,-0.1 0.1,0 0.2,0 0.2,-0.1 0,0 0.1,0 0.2,-0.1 h 0.1 c 0,0 0.1,0 0.2,0 h 0.2 c 0,0 0.1,0 0.2,0 0.1,0 0.1,0 0.2,0 0,0 0.1,0 0.2,0 h 0.2 0.2 0.2 c 0,0 0.1,0 0.2,0.1 0.1,0 0.2,0 0.1,0 0.2,0.1 0.5,0.2 0.7,0.3 0,0 0,0 0.1,0.1 0.1,0.1 0.2,0.1 0.2,0.1 l 0.1,0.1 c 0.1,0.1 0.1,0.1 0.2,0.1 0,0 0.1,0 0.1,0.1 0.1,0.1 0.1,0.1 0.2,0.1 0,0 0,0.1 0.1,0.1 0.1,0.1 0.1,0.1 0.1,0.2 l 0.1,0.1 c 0.1,0.1 0.1,0.1 0.1,0.2 0,0.1 0,0.1 0.1,0.2 0.1,0.1 0.1,0.1 0.1,0.2 0.1,0.1 0.1,0.2 0.2,0.3 l 11.2,27 v 0 l 3.9,9.3 c 0.4,0.9 0.4,1.8 0,2.7 -0.4,0.9 -1,1.6 -1.9,1.9 -0.4,0.2 -0.9,0.3 -1.4,0.3 -1.6,0 -2.7,-0.7 -3.3,-2.2 l -2.9,-7 h -17.6 l -2.9,7 c -0.6,1.5 -1.7,2.2 -3.3,2.2 -0.5,0 -0.7,0 -0.7,0 0,0 -0.8,0 -1.2,-0.2 z M 271.2,78.1 265.3,64 259.5,78.1 Z"
           shape-rendering="optimizeQuality"
           inkscape:connector-curvature="0"
           style="fill:#e6e6e6" /><path
           id="path118"
           d="m 331,51 c 0.8,0.2 1.4,0.7 1.9,1.3 0.5,0.6 0.7,1.3 0.7,2.2 V 91 c 0,1 -0.3,1.8 -1,2.5 -0.7,0.7 -1.6,1.1 -2.6,1.1 -1,0 -1.8,-0.4 -2.6,-1.1 -0.7,-0.7 -1,-1.5 -1,-2.5 V 67.3 L 315.1,86 v 0 0 0 0 c -0.1,0.1 -0.1,0.2 -0.1,0.2 l -0.1,0.1 c -0.1,0.1 -0.1,0.1 -0.2,0.2 0,0 -0.1,0.1 -0.1,0.1 -0.1,0.1 -0.1,0.1 -0.1,0.1 0,0 -0.1,0.1 -0.2,0.2 l -0.1,0.1 c -0.1,0 -0.1,0.1 -0.2,0.1 0,0 0,0 0,0 v 0 0 c 0,0 -0.1,0.1 -0.2,0.1 -0.1,0 -0.1,0.1 -0.1,0.1 0,0 -0.1,0 -0.2,0.1 -0.5,0.2 -1,0.3 -1.5,0.3 h -0.1 c 0,0 0,0 -0.1,0 -0.3,0 -0.5,-0.1 -0.8,-0.2 -0.1,0 -0.1,0 -0.1,0 0,0 0,0 -0.1,0 -0.1,0 -0.2,-0.1 -0.2,-0.1 0,0 0,0 -0.1,-0.1 -0.1,0 -0.2,-0.1 -0.2,-0.1 v 0 0 0 c -0.1,0 -0.1,-0.1 -0.2,-0.2 0,0 0,0 -0.1,-0.1 -0.1,-0.1 -0.1,-0.1 -0.2,-0.2 0,0 -0.1,-0.1 -0.1,-0.1 -0.1,-0.1 -0.1,-0.1 -0.1,-0.1 0,0 -0.1,-0.1 -0.2,-0.2 0,-0.1 -0.1,-0.1 -0.1,-0.1 0,0 -0.1,-0.1 -0.2,-0.2 v 0 c 0,0 0,0 0,0 v 0 c 0,0 0,0 0,0 L 297.8,67.3 v 23.6 c 0,1 -0.4,1.8 -1.1,2.5 -0.7,0.7 -1.6,1.1 -2.6,1.1 -1,0 -1.8,-0.4 -2.5,-1.1 -0.7,-0.7 -1.1,-1.5 -1.1,-2.5 V 54.4 c 0,-0.8 0.2,-1.5 0.7,-2.2 0.5,-0.6 1.1,-1.1 1.9,-1.3 0.8,-0.2 1.5,-0.2 2.3,0.1 0.7,0.3 1.3,0.8 1.8,1.5 L 312,77.3 326.9,52.6 c 0.4,-0.7 1,-1.2 1.7,-1.5 0.8,-0.3 1.1,-0.4 1.1,-0.4 0,0 0.5,0.1 1.3,0.3 z"
           shape-rendering="optimizeQuality"
           inkscape:connector-curvature="0"
           style="fill:#e6e6e6" /><path
           id="path120"
           d="m 369.3,87.3 c 1,0 1.8,0.4 2.5,1.1 0.7,0.7 1.1,1.6 1.1,2.6 0,1 -0.4,1.8 -1.1,2.5 -0.7,0.7 -1.5,1.1 -2.5,1.1 h -22 c -1,0 -1.8,-0.4 -2.5,-1.1 -0.7,-0.7 -1.1,-1.5 -1.1,-2.5 V 54.5 c 0,-1 0.4,-1.9 1.1,-2.6 0.7,-0.7 1.5,-1.1 2.5,-1.1 v 0 l 22,0.1 c 1,0 1.8,0.4 2.6,1.1 0.7,0.7 1,1.6 1,2.6 0,1 -0.4,1.8 -1.1,2.5 -0.7,0.7 -1.5,1.1 -2.5,1.1 v 0 L 351,58.1 v 11 h 13.2 c 1,0 1.8,0.3 2.5,1 0.7,0.7 1.1,1.6 1.1,2.5 0,0.9 -0.4,1.8 -1.1,2.5 -0.7,0.7 -1.6,1 -2.5,1 H 351 v 11 h 18.3 z"
           shape-rendering="optimizeQuality"
           inkscape:connector-curvature="0"
           style="fill:#e6e6e6" /><path
           id="path122"
           d="m 408.7,93.1 v 0 0 L 386.8,65 v 25.9 c 0,1 -0.4,1.8 -1.1,2.5 -0.7,0.7 -1.5,1.1 -2.5,1.1 -1,0 -1.8,-0.4 -2.5,-1.1 -0.7,-0.7 -1.1,-1.5 -1.1,-2.5 V 54.5 c 0,-0.8 0.2,-1.5 0.7,-2.1 0.4,-0.6 1,-1.1 1.8,-1.3 0.7,-0.3 1.4,-0.3 2.2,-0.1 0.7,0.2 1.3,0.6 1.8,1.2 l 21.8,28.1 V 54.5 c 0,-1 0.3,-1.8 1,-2.5 0.7,-0.7 1.6,-1.1 2.6,-1.1 1,0 1.8,0.4 2.5,1.1 0.7,0.7 1.1,1.5 1.1,2.5 V 91 c 0,0 0,0.1 0,0.2 0,0.1 0,0.1 0,0.2 0,0 0,0.1 0,0.2 0,0.1 0,0.1 0,0.2 V 92 c 0,0.1 0,0.2 -0.1,0.2 0,0 0,0.1 -0.1,0.2 0,0.1 0,0.1 -0.1,0.2 l -0.1,0.2 -0.1,0.2 c 0,0 -0.1,0.1 -0.1,0.2 l -0.1,0.1 c 0,0 -0.1,0.1 -0.1,0.2 l -0.1,0.1 c 0,0 -0.1,0.1 -0.1,0.1 -0.1,0.1 -0.1,0.1 -0.1,0.1 0,0 0,0.1 -0.1,0.1 -0.1,0.1 -0.1,0.1 -0.2,0.1 0.1,0 0.1,0 0,0 v 0 c -0.2,0.1 -0.3,0.2 -0.5,0.3 v 0 c -0.2,0.1 -0.3,0.2 -0.5,0.2 -0.1,0 -0.1,0.1 -0.1,0 -0.2,0.1 -0.3,0.1 -0.5,0.1 H 412 c -0.2,0 -0.4,0 -0.5,0 -0.1,0 -0.3,0 -0.4,0 0,0 0,0 -0.1,0 -0.1,0 -0.2,0 -0.3,-0.1 0,0 0,0 -0.1,0 -0.1,0 -0.2,0 -0.2,-0.1 0,0 -0.1,0 -0.1,-0.1 -0.1,0 -0.2,0 -0.2,-0.1 0,0 -0.1,0 -0.1,-0.1 -0.1,0 -0.2,-0.1 -0.2,-0.1 -0.1,0 -0.1,-0.1 -0.1,-0.1 -0.1,0 -0.1,-0.1 -0.2,-0.2 -0.1,0 -0.1,-0.1 -0.1,-0.1 -0.1,-0.1 -0.2,-0.2 -0.3,-0.2 v 0 0 C 409,93.3 409,93.3 409,93.3 c 0,0 -0.2,-0.1 -0.3,-0.2 z"
           shape-rendering="optimizeQuality"
           inkscape:connector-curvature="0"
           style="fill:#e6e6e6" /><path
           id="path124"
           d="m 428.8,94.5 c -1,0 -1.8,-0.3 -2.5,-1 -0.7,-0.7 -1.1,-1.6 -1.1,-2.5 V 54.6 c 0,-1 0.4,-1.8 1.1,-2.6 0.7,-0.7 1.5,-1 2.5,-1 h 9.2 c 6,0 11.1,2.1 15.4,6.3 4.2,4.3 6.3,9.4 6.3,15.3 0,6 -2.1,11.1 -6.3,15.3 -4.3,4.3 -9.4,6.4 -15.4,6.4 z m 3.6,-7.2 5.6,-0.1 c 4,0 7.5,-1.4 10.3,-4.3 2.8,-2.8 4.3,-6.3 4.3,-10.3 0,-4 -1.4,-7.4 -4.3,-10.2 -2.8,-2.9 -6.3,-4.3 -10.3,-4.3 h -5.6 z"
           shape-rendering="optimizeQuality"
           inkscape:connector-curvature="0"
           style="fill:#e6e6e6" /><path
           id="path126"
           d="m 487.9,94.5 c -6,0 -11.1,-2.1 -15.4,-6.4 -4.3,-4.3 -6.4,-9.4 -6.4,-15.4 0,-6 2.1,-11.2 6.4,-15.4 4.3,-4.3 9.4,-6.4 15.4,-6.4 6,0 11.2,2.1 15.4,6.4 4.3,4.3 6.4,9.4 6.4,15.4 0,6 -2.1,11.1 -6.4,15.4 -4.3,4.3 -9.4,6.4 -15.4,6.4 z m 0,-36.4 c -4,0 -7.5,1.4 -10.3,4.3 -2.9,2.9 -4.3,6.3 -4.3,10.4 0,4.1 1.4,7.5 4.3,10.3 2.9,2.9 6.3,4.3 10.3,4.3 4,0 7.5,-1.4 10.4,-4.3 2.9,-2.9 4.3,-6.3 4.3,-10.3 0,-4 -1.4,-7.5 -4.3,-10.4 -2.9,-2.9 -6.4,-4.3 -10.4,-4.3 z"
           shape-rendering="optimizeQuality"
           inkscape:connector-curvature="0"
           style="fill:#e6e6e6" /></g><g
         id="g140"
         style="fill:#e6e6e6"><path
           id="path130"
           d="m 263.5,106.2 c 0.8,0.2 1.4,0.7 1.9,1.3 0.5,0.6 0.7,1.3 0.7,2.2 v 36.5 c 0,1 -0.3,1.8 -1,2.5 -0.7,0.7 -1.6,1.1 -2.5,1.1 -1,0 -1.8,-0.4 -2.6,-1.1 -0.7,-0.7 -1,-1.5 -1,-2.5 v -23.6 l -11.3,18.7 v 0 0 0 0 c -0.1,0.1 -0.1,0.2 -0.1,0.2 l -0.1,0.1 c -0.1,0.1 -0.1,0.1 -0.2,0.1 0,0 -0.1,0.1 -0.1,0.1 -0.1,0.1 -0.1,0.1 -0.1,0.1 0,0 -0.1,0.1 -0.2,0.2 l -0.1,0.1 c -0.1,0 -0.1,0.1 -0.2,0.1 0,0 0,0 0,0 v 0 0 c 0,0 -0.1,0.1 -0.2,0.1 -0.1,0 -0.1,0.1 -0.1,0.1 0,0 -0.1,0 -0.2,0.1 -0.5,0.2 -1,0.3 -1.5,0.3 h -0.1 c 0,0 0,0 -0.1,0 -0.3,0 -0.5,-0.1 -0.8,-0.2 -0.1,0 -0.1,0 -0.1,0 0,0 0,0 -0.1,0 -0.1,0 -0.2,-0.1 -0.2,-0.1 0,0 0,0 -0.1,-0.1 -0.1,0 -0.2,-0.1 -0.2,-0.1 v 0 0 0 c -0.1,0 -0.2,-0.1 -0.2,-0.2 0,0 0,0 -0.1,-0.1 -0.1,-0.1 -0.1,-0.1 -0.2,-0.2 0,0 -0.1,-0.1 -0.1,-0.1 -0.1,-0.1 -0.1,-0.1 -0.1,-0.1 0,0 -0.1,-0.1 -0.2,-0.1 0,-0.1 -0.1,-0.1 -0.1,-0.1 0,0 -0.1,-0.1 -0.2,-0.2 v 0 c 0,0 0,0 0,0 v 0 c 0,0 0,0 0,0 l -11.3,-18.7 v 23.6 c 0,1 -0.4,1.8 -1.1,2.5 -0.7,0.7 -1.6,1.1 -2.6,1.1 -1,0 -1.8,-0.4 -2.5,-1.1 -0.7,-0.7 -1.1,-1.5 -1.1,-2.5 v -36.5 c 0,-0.8 0.2,-1.5 0.7,-2.2 0.5,-0.6 1.1,-1.1 1.9,-1.3 0.8,-0.2 1.5,-0.2 2.3,0.1 0.7,0.3 1.3,0.8 1.8,1.5 l 14.9,24.7 14.9,-24.7 c 0.4,-0.7 1,-1.2 1.7,-1.5 0.7,-0.3 1.1,-0.4 1.1,-0.4 0,0 0.3,0.1 1.1,0.3 z"
           shape-rendering="optimizeQuality"
           inkscape:connector-curvature="0"
           style="fill:#e6e6e6" /><path
           id="path132"
           d="m 303.1,106.2 c 1,0 1.8,0.3 2.5,1 0.7,0.7 1,1.5 1,2.5 v 24.5 c 0,4.3 -1.5,8 -4.6,11 -3,3 -6.7,4.6 -11,4.6 -4.3,0 -8,-1.5 -11,-4.6 -3,-3 -4.6,-6.7 -4.6,-11 v -24.5 c 0,-1 0.3,-1.8 1,-2.5 0.7,-0.7 1.5,-1 2.5,-1 1,0 1.8,0.3 2.5,1 0.7,0.7 1,1.5 1,2.5 v 24.5 c 0,2.3 0.8,4.4 2.5,6 1.7,1.7 3.7,2.5 6,2.5 2.3,0 4.3,-0.8 6,-2.5 1.7,-1.7 2.5,-3.7 2.5,-6 v -24.5 c 0,-1 0.3,-1.8 1,-2.5 0.9,-0.6 1.8,-1 2.7,-1 z"
           shape-rendering="optimizeQuality"
           inkscape:connector-curvature="0"
           style="fill:#e6e6e6" /><path
           id="path134"
           d="m 343.8,136.8 c -0.2,3.6 -1.6,6.7 -4.3,9.2 -2.8,2.5 -6,3.8 -9.8,3.8 -3.3,0 -6.3,-0.7 -8.9,-2.1 -3.1,-1.7 -5.1,-4.2 -6,-7.4 -0.2,-0.9 -0.1,-1.9 0.4,-2.7 0.5,-0.8 1.2,-1.4 2.2,-1.6 0.9,-0.2 1.8,-0.1 2.7,0.4 0.8,0.5 1.4,1.2 1.6,2.2 0.4,1.4 1.4,2.4 3,3.2 1.5,0.7 3.1,1 5,1 1.9,0 3.5,-0.6 4.9,-1.8 1.4,-1.2 2.1,-2.6 2.2,-4.4 0,-1.1 -0.3,-2 -1.1,-2.8 -1.3,-1.3 -3.4,-2 -6.3,-2.1 v 0 c -0.1,0 -0.1,0 -0.1,0 0,0 0,0 -0.1,0 -5,-0.1 -8.8,-1.5 -11.4,-4.3 -2.2,-2.3 -3.2,-5 -3,-8 0.2,-3.6 1.6,-6.7 4.3,-9.2 2.7,-2.5 6,-3.8 9.8,-3.8 3.3,0 6.3,0.7 8.9,2.1 3.1,1.7 5.1,4.2 6,7.4 0.2,1 0.1,1.9 -0.4,2.7 -0.5,0.8 -1.2,1.4 -2.2,1.6 -1,0.2 -1.9,0.1 -2.7,-0.4 -0.9,-0.5 -1.4,-1.2 -1.6,-2.2 -0.4,-1.4 -1.4,-2.4 -3,-3.2 -1.4,-0.7 -3.1,-1 -4.9,-1 -1.9,0 -3.5,0.6 -4.9,1.8 -1.4,1.2 -2.1,2.7 -2.2,4.4 0,1.1 0.3,2 1.1,2.9 1.3,1.3 3.4,2 6.3,2 h 0.2 c 5,0.1 8.8,1.5 11.4,4.3 2,2.2 3.1,4.9 2.9,8 z"
           shape-rendering="optimizeQuality"
           inkscape:connector-curvature="0"
           style="fill:#e6e6e6" /><path
           id="path136"
           d="m 355.5,149.8 c -1,0 -1.8,-0.4 -2.5,-1.1 -0.7,-0.7 -1.1,-1.5 -1.1,-2.5 V 110 c 0,-1 0.4,-1.8 1.1,-2.5 0.7,-0.7 1.5,-1.1 2.5,-1.1 1,0 1.8,0.4 2.5,1.1 0.7,0.7 1.1,1.5 1.1,2.5 v 36.2 c 0,1 -0.4,1.8 -1.1,2.5 -0.7,0.7 -1.5,1.1 -2.5,1.1 z"
           shape-rendering="optimizeQuality"
           inkscape:connector-curvature="0"
           style="fill:#e6e6e6" /><path
           id="path138"
           d="m 387.9,149.8 c -6,0 -11.1,-2.1 -15.3,-6.3 -4.2,-4.3 -6.3,-9.4 -6.3,-15.3 0,-6 2.1,-11.1 6.3,-15.3 4.3,-4.2 9.4,-6.4 15.3,-6.4 4.9,0 9.3,1.5 13.2,4.5 0.8,0.6 1.2,1.4 1.4,2.4 0.1,1 -0.1,1.9 -0.7,2.7 -0.6,0.8 -1.4,1.2 -2.4,1.4 -1,0.1 -1.9,-0.1 -2.7,-0.7 -2.6,-2 -5.5,-3 -8.8,-3 -4,0 -7.4,1.4 -10.2,4.2 -2.8,2.8 -4.3,6.3 -4.3,10.3 0,4 1.4,7.4 4.3,10.2 2.9,2.8 6.2,4.3 10.2,4.3 3.8,0 7,-1.3 9.8,-3.8 0.7,-0.7 1.6,-1 2.6,-0.9 1,0 1.8,0.4 2.5,1.2 0.7,0.7 1,1.6 0.9,2.6 0,1 -0.4,1.8 -1.2,2.5 -4.1,3.5 -9,5.4 -14.6,5.4 z"
           shape-rendering="optimizeQuality"
           inkscape:connector-curvature="0"
           style="fill:#e6e6e6" /></g></g><path
       id="path144"
       d="M 171.8,47.3 91.6,1 C 89.3,-0.3 86.5,-0.3 84.2,1 L 4,47.3 c -2.3,1.3 -3.7,3.8 -3.7,6.4 v 92.6 c 0,2.6 1.4,5.1 3.7,6.4 L 84.2,199 c 1.1,0.7 2.4,1 3.7,1 1.3,0 2.6,-0.3 3.7,-1 l 80.2,-46.3 c 2.3,-1.3 3.7,-3.8 3.7,-6.4 V 53.7 c 0,-2.6 -1.4,-5.1 -3.7,-6.4 z m -9.4,92.1 c 0,2.3 -1.2,4.3 -3.1,5.5 l -68.2,39.4 c -1,0.6 -2.1,0.8 -3.1,0.8 -1.1,0 -2.2,-0.3 -3.1,-0.8 L 16.7,144.9 c -1.9,-1.1 -3.1,-3.2 -3.1,-5.5 V 60.6 c 0,-2.2 1.2,-4.3 3.1,-5.5 L 84.9,15.7 c 1.9,-1.1 4.3,-1.1 6.3,0 l 68.2,39.4 c 1.9,1.1 3.1,3.2 3.1,5.5 v 78.8 z"
       shape-rendering="optimizeQuality"
       inkscape:connector-curvature="0"
       style="fill:#e6e6e6" /></g></svg>