<?xml version="1.0" encoding="utf-8"?>
<!-- Generator: Adobe Illustrator 16.0.0, SVG Export Plug-In . SVG Version: 6.00 Build 0)  -->
<!DOCTYPE svg PUBLIC "-//W3C//DTD SVG 1.1//EN" "http://www.w3.org/Graphics/SVG/1.1/DTD/svg11.dtd">
<svg version="1.1" xmlns="http://www.w3.org/2000/svg" xmlns:xlink="http://www.w3.org/1999/xlink" x="0px" y="0px" width="308px"
	 height="308px" viewBox="0 0 308 308" enable-background="new 0 0 308 308" xml:space="preserve">
<g id="image_base">
</g>
<g id="drawing">
	<circle fill="#7F7F7F" cx="154" cy="154" r="154"/>
	<rect x="24.257" y="87.299" fill="none" width="257.485" height="117.402"/>
	<g>
		<path fill-rule="evenodd" clip-rule="evenodd" fill="#FFFFFF" d="M236.355,149.099c1.208-0.398,2.324-0.813,3.467-1.135
			c14.997-4.21,30.549,3.214,36.714,17.516c5.65,13.104,1.322,28.649-10.288,36.978c-5.428,3.893-11.488,5.831-18.154,5.836
			c-12.481,0.009-24.961-0.009-37.441-0.02c-15.693-0.013-31.386-0.032-47.079-0.047c-2.275-0.002-3.8-1.468-3.888-3.74
			c-0.009-0.216-0.003-0.434-0.003-0.651c-0.001-31.995-0.001-63.988-0.001-95.982c0-2.774,0.496-3.517,3.096-4.507
			c7.874-2.999,16.007-4.194,24.401-3.404c23.016,2.167,41.806,18.107,47.642,40.458c0.66,2.529,0.962,5.152,1.425,7.732
			C236.296,148.429,236.313,148.732,236.355,149.099z"/>
		<path fill-rule="evenodd" clip-rule="evenodd" fill="#FFFFFF" d="M149.076,157.469c0.31-15.688,0.62-31.375,0.929-47.063
			c0.039-1.966,1.511-3.48,3.392-3.486c1.884-0.005,3.337,1.474,3.384,3.476c0.214,9.589,0.423,19.179,0.634,28.768
			c0.291,13.192,0.614,26.383,0.846,39.576c0.047,2.683-0.231,5.373-0.388,8.058c-0.272,4.679-0.564,9.356-0.85,14.034
			c-0.081,1.322-0.164,2.643-0.247,3.963c-0.116,1.836-1.552,3.248-3.329,3.272c-1.792,0.024-3.329-1.403-3.431-3.245
			c-0.419-7.541-1.003-15.077-1.179-22.623c-0.167-7.153,0.101-14.317,0.173-21.476c0.011-1.085,0.001-2.17,0.001-3.255
			C149.033,157.469,149.055,157.469,149.076,157.469z"/>
		<path fill-rule="evenodd" clip-rule="evenodd" fill="#FFFFFF" d="M147.021,160.604c0.125,6.097,0.313,12.194,0.349,18.292
			c0.018,3.012-0.232,6.026-0.386,9.039c-0.29,5.678-0.578,11.357-0.922,17.032c-0.042,0.679-0.309,1.412-0.678,1.985
			c-0.705,1.092-2.104,1.495-3.342,1.132c-1.291-0.376-2.201-1.464-2.284-2.861c-0.141-2.362-0.229-4.725-0.342-7.089
			c-0.28-5.938-0.61-11.876-0.822-17.818c-0.095-2.665,0.029-5.338,0.079-8.006c0.217-11.739,0.443-23.479,0.667-35.219
			c0.131-6.9,0.265-13.801,0.388-20.702c0.015-0.825,0.166-1.594,0.684-2.26c0.827-1.063,2.173-1.494,3.434-1.1
			c1.279,0.398,2.185,1.569,2.229,2.983c0.074,2.451,0.11,4.905,0.162,7.356c0.262,12.412,0.522,24.824,0.783,37.235
			C147.019,160.604,147.02,160.604,147.021,160.604z"/>
		<path fill-rule="evenodd" clip-rule="evenodd" fill="#FFFFFF" d="M128.425,165.747c0.244-10.003,0.488-20.007,0.734-30.009
			c0.079-3.19,0.158-6.38,0.249-9.568c0.047-1.642,1.299-2.896,2.896-2.932c1.601-0.036,2.925,1.15,2.99,2.812
			c0.152,3.905,0.25,7.81,0.36,11.715c0.199,7.072,0.392,14.146,0.586,21.219c0.188,6.791,0.432,13.582,0.532,20.375
			c0.039,2.598-0.251,5.201-0.399,7.801c-0.324,5.677-0.652,11.353-0.98,17.029c-0.025,0.433-0.055,0.867-0.101,1.299
			c-0.165,1.574-1.462,2.732-2.993,2.686c-1.551-0.048-2.8-1.249-2.886-2.813c-0.22-4.009-0.427-8.019-0.632-12.028
			c-0.227-4.4-0.531-8.798-0.638-13.2c-0.081-3.273,0.107-6.553,0.158-9.829c0.024-1.519,0.004-3.038,0.004-4.557
			C128.344,165.747,128.384,165.747,128.425,165.747z"/>
		<path fill-rule="evenodd" clip-rule="evenodd" fill="#FFFFFF" d="M118.094,164.75c0.347-13.452,0.693-26.904,1.04-40.354
			c0.045-1.742,1.142-2.94,2.72-2.959c1.602-0.018,2.73,1.128,2.783,2.88c0.255,8.459,0.498,16.92,0.75,25.38
			c0.279,9.372,0.616,18.742,0.82,28.115c0.063,2.899-0.2,5.806-0.371,8.707c-0.297,5.069-0.638,10.134-0.962,15.202
			c-0.08,1.256-0.147,2.514-0.246,3.768c-0.122,1.543-1.241,2.606-2.714,2.611c-1.499,0.003-2.658-1.072-2.762-2.638
			c-0.155-2.338-0.27-4.679-0.398-7.02c-0.337-6.068-0.698-12.133-0.99-18.204c-0.084-1.73,0.018-3.47,0.058-5.205
			C117.903,171.606,118.003,168.177,118.094,164.75z"/>
		<path fill-rule="evenodd" clip-rule="evenodd" fill="#FFFFFF" d="M114.962,152.009c0.282,9.088,0.62,18.176,0.814,27.266
			c0.057,2.614-0.296,5.238-0.472,7.858c-0.382,5.737-0.769,11.475-1.157,17.212c-0.028,0.432-0.075,0.865-0.105,1.298
			c-0.098,1.439-1.136,2.477-2.498,2.494c-1.361,0.017-2.457-1.007-2.549-2.439c-0.206-3.183-0.387-6.369-0.581-9.552
			c-0.325-5.35-0.706-10.697-0.954-16.049c-0.104-2.249,0.06-4.51,0.122-6.766c0.187-6.856,0.386-13.709,0.577-20.565
			c0.277-10,0.546-20.001,0.828-30c0.043-1.507,1.136-2.592,2.541-2.586c1.406,0.008,2.467,1.102,2.515,2.613
			c0.311,9.738,0.617,19.477,0.926,29.216C114.966,152.009,114.964,152.009,114.962,152.009z"/>
		<path fill-rule="evenodd" clip-rule="evenodd" fill="#FFFFFF" d="M98.019,152.742c0.243-7.68,0.486-15.359,0.728-23.039
			c0.053-1.649,0.105-3.297,0.157-4.946c0.045-1.47,0.962-2.483,2.271-2.508c1.302-0.025,2.292,0.985,2.345,2.435
			c0.257,7.114,0.505,14.229,0.757,21.344c0.283,8.004,0.569,16.007,0.85,24.012c0.108,3.081,0.292,6.161,0.284,9.241
			c-0.007,2.23-0.264,4.46-0.426,6.689c-0.317,4.394-0.646,8.786-0.971,13.178c-0.168,2.273-0.327,4.546-0.514,6.816
			c-0.101,1.231-1.1,2.124-2.307,2.117c-1.205-0.006-2.195-0.917-2.277-2.15c-0.352-5.261-0.689-10.524-1.032-15.785
			c-0.217-3.335-0.522-6.667-0.62-10.006c-0.079-2.729,0.074-5.466,0.157-8.2c0.191-6.399,0.403-12.798,0.607-19.199
			C98.026,152.742,98.022,152.742,98.019,152.742z"/>
		<path fill-rule="evenodd" clip-rule="evenodd" fill="#FFFFFF" d="M87.874,156.664c0.237-6.507,0.475-13.013,0.712-19.521
			c0.1-2.711,0.203-5.422,0.301-8.134c0.049-1.36,0.867-2.286,2.053-2.315c1.196-0.031,2.104,0.907,2.161,2.285
			c0.265,6.419,0.514,12.839,0.776,19.259c0.318,7.785,0.645,15.569,0.966,23.355c0.103,2.472,0.287,4.945,0.277,7.416
			c-0.008,2.036-0.231,4.071-0.388,6.104c-0.514,6.686-1.042,13.37-1.565,20.055c-0.028,0.369-0.047,0.739-0.099,1.103
			c-0.162,1.117-1.089,1.916-2.15,1.87c-1.087-0.046-1.94-0.881-2.019-2.006c-0.609-8.747-1.256-17.49-1.789-26.241
			c-0.134-2.2,0.092-4.424,0.169-6.635c0.195-5.532,0.399-11.063,0.6-16.594C87.877,156.665,87.876,156.664,87.874,156.664z"/>
		<path fill-rule="evenodd" clip-rule="evenodd" fill="#FFFFFF" d="M77.945,159.617c0.317-6.807,0.634-13.614,0.954-20.421
			c0.019-0.389,0.042-0.781,0.095-1.167c0.129-0.943,0.884-1.647,1.786-1.688c0.852-0.039,1.726,0.59,1.869,1.502
			c0.157,1.002,0.188,2.028,0.242,3.044c0.427,7.953,0.844,15.907,1.266,23.862c0.259,4.876,0.608,9.749,0.745,14.628
			c0.062,2.156-0.302,4.325-0.478,6.487c-0.421,5.169-0.847,10.338-1.271,15.508c-0.13,1.578-0.253,3.157-0.396,4.734
			c-0.106,1.175-0.854,1.953-1.861,1.978c-1.061,0.026-1.831-0.693-1.935-1.941c-0.263-3.179-0.481-6.361-0.715-9.542
			c-0.386-5.259-0.805-10.517-1.132-15.781c-0.105-1.704-0.003-3.425,0.072-5.136C77.421,170.327,77.688,164.972,77.945,159.617z"/>
		<path fill-rule="evenodd" clip-rule="evenodd" fill="#FFFFFF" d="M74.822,179.545c-0.287,3.255-0.566,6.432-0.846,9.608
			c-0.363,4.105-0.728,8.209-1.091,12.314c-0.137,1.555-0.256,3.112-0.413,4.666c-0.11,1.102-0.795,1.75-1.751,1.72
			c-0.923-0.029-1.535-0.688-1.619-1.774c-0.531-6.813-1.055-13.625-1.586-20.438c-0.146-1.881-0.377-3.759-0.434-5.642
			c-0.041-1.337,0.125-2.682,0.233-4.021c0.471-5.838,0.952-11.675,1.431-17.513c0.115-1.405,0.234-2.811,0.356-4.215
			c0.093-1.08,0.775-1.789,1.701-1.775c0.924,0.014,1.574,0.709,1.681,1.815c0.174,1.813,0.341,3.626,0.509,5.44
			c0.595,6.437,1.189,12.872,1.782,19.309C74.794,179.234,74.811,179.428,74.822,179.545z"/>
		<path fill-rule="evenodd" clip-rule="evenodd" fill="#FFFFFF" d="M57.129,179.585c0.184-2.336,0.363-4.627,0.547-6.919
			c0.52-6.443,1.042-12.886,1.563-19.329c0.033-0.411,0.058-0.823,0.111-1.231c0.106-0.819,0.656-1.354,1.393-1.38
			c0.771-0.027,1.401,0.484,1.496,1.333c0.196,1.747,0.339,3.499,0.501,5.247c0.457,4.945,0.913,9.89,1.368,14.835
			c0.221,2.396,0.541,4.791,0.625,7.192c0.054,1.548-0.229,3.11-0.375,4.664c-0.408,4.339-0.825,8.678-1.238,13.017
			c-0.282,2.958-0.554,5.917-0.847,8.874c-0.097,0.979-0.709,1.575-1.517,1.548c-0.792-0.026-1.346-0.612-1.427-1.567
			c-0.399-4.756-0.786-9.513-1.184-14.269c-0.319-3.826-0.649-7.65-0.973-11.475C57.158,179.93,57.142,179.736,57.129,179.585z"/>
		<path fill-rule="evenodd" clip-rule="evenodd" fill="#FFFFFF" d="M47.319,179.514c0.246-2.863,0.481-5.629,0.724-8.394
			c0.497-5.66,0.998-11.32,1.498-16.98c0.036-0.412,0.062-0.823,0.116-1.231c0.104-0.788,0.576-1.248,1.252-1.243
			c0.662,0.003,1.165,0.486,1.249,1.254c0.175,1.617,0.331,3.237,0.491,4.855c0.7,7.013,1.434,14.024,2.07,21.043
			c0.118,1.299-0.113,2.636-0.245,3.949c-0.635,6.257-1.289,12.512-1.938,18.768c-0.123,1.188-0.242,2.374-0.374,3.56
			c-0.09,0.809-0.589,1.311-1.27,1.307c-0.689-0.005-1.164-0.481-1.244-1.325c-0.3-3.174-0.581-6.351-0.871-9.525
			c-0.365-3.995-0.733-7.991-1.098-11.986C47.555,182.183,47.434,180.801,47.319,179.514z"/>
		<path fill-rule="evenodd" clip-rule="evenodd" fill="#FFFFFF" d="M44.907,179.57c-0.241,1.884-0.489,3.82-0.734,5.756
			c-0.636,5.015-1.271,10.031-1.906,15.046c-0.044,0.344-0.081,0.689-0.134,1.032c-0.101,0.649-0.502,1.061-1.032,1.068
			c-0.57,0.01-0.981-0.397-1.063-1.096c-0.257-2.198-0.504-4.396-0.751-6.596c-0.535-4.785-1.105-9.568-1.572-14.36
			c-0.118-1.212,0.042-2.464,0.173-3.688c0.696-6.492,1.414-12.981,2.163-19.468c0.044-0.391,0.332-0.879,0.656-1.086
			c0.609-0.392,1.321,0.136,1.429,0.99c0.346,2.711,0.681,5.423,1.019,8.136c0.566,4.542,1.13,9.086,1.695,13.628
			C44.875,179.125,44.886,179.321,44.907,179.57z"/>
		<path fill-rule="evenodd" clip-rule="evenodd" fill="#FFFFFF" d="M29,179.557c0.229-1.738,0.448-3.414,0.669-5.09
			c0.375-2.836,0.752-5.674,1.128-8.51c0.017-0.129,0.03-0.259,0.058-0.386c0.115-0.514,0.386-0.884,0.955-0.898
			c0.567-0.015,0.893,0.324,0.993,0.845c0.175,0.915,0.315,1.836,0.459,2.757c0.565,3.621,1.186,7.234,1.649,10.869
			c0.129,1.019-0.187,2.101-0.348,3.146c-0.546,3.537-1.115,7.069-1.675,10.603c-0.021,0.128-0.046,0.256-0.079,0.381
			c-0.137,0.511-0.429,0.868-0.997,0.851c-0.563-0.016-0.869-0.382-0.951-0.902c-0.161-1.006-0.286-2.019-0.423-3.028
			c-0.472-3.459-0.942-6.917-1.413-10.375C29.011,179.711,29.004,179.603,29,179.557z"/>
	</g>
</g>
<g id="guides" display="none">
</g>
</svg>
