<?xml version="1.0" encoding="UTF-8" standalone="no"?>
<svg
   xmlns:dc="http://purl.org/dc/elements/1.1/"
   xmlns:cc="http://creativecommons.org/ns#"
   xmlns:rdf="http://www.w3.org/1999/02/22-rdf-syntax-ns#"
   xmlns:svg="http://www.w3.org/2000/svg"
   xmlns="http://www.w3.org/2000/svg"
   xmlns:xlink="http://www.w3.org/1999/xlink"
   xmlns:sodipodi="http://sodipodi.sourceforge.net/DTD/sodipodi-0.dtd"
   xmlns:inkscape="http://www.inkscape.org/namespaces/inkscape"
   width="48"
   height="48"
   id="svg2"
   version="1.1"
   inkscape:version="0.48.4 r9939"
   sodipodi:docname="gear-system-settings.svg">
  <sodipodi:namedview
     pagecolor="#ffffff"
     bordercolor="#666666"
     borderopacity="1"
     objecttolerance="10"
     gridtolerance="10"
     guidetolerance="10"
     inkscape:pageopacity="0"
     inkscape:pageshadow="2"
     inkscape:window-width="863"
     inkscape:window-height="770"
     id="namedview34"
     showgrid="false"
     inkscape:zoom="4.8118278"
     inkscape:cx="55.817929"
     inkscape:cy="50.390262"
     inkscape:window-x="959"
     inkscape:window-y="161"
     inkscape:window-maximized="0"
     inkscape:current-layer="svg2" />
  <metadata
     id="metadata7">image/svg+xml<rdf:RDF>
  <cc:Work
     rdf:about="">
    <dc:format>image/svg+xml</dc:format>
    <dc:type
       rdf:resource="http://purl.org/dc/dcmitype/StillImage" />
  </cc:Work>
</rdf:RDF>
</metadata>
  <g
     id="g17"
     transform="matrix(0.08689427,0,0,0.08689427,1.9729725,-0.74239617)">
    <title
       id="title19">Layer 1</title>
    <g
       id="layer1">
      <path
         stroke-miterlimit="4"
         id="path2274"
         d="m 249.6384,25.241638 c -2.4076,18.120819 -17.91083,32.125 -36.6875,32.125 -17.82254,1.5e-5 -32.72373,-12.597519 -36.25,-29.375 -13.05912,2.811798 -25.65302,6.850143 -37.6875,11.96875 6.59542,16.770355 0.1373,36.312973 -15.9375,45.59375 -14.92545,8.617218 -33.387881,5.681183 -44.937503,-6.0625 -8.09996,7.531219 -15.637527,15.690613 -22.46875,24.406252 14.381088,11.16882 18.672455,31.53808 9.3125,47.75 -8.9272,15.46237 -27.340164,22.07309 -43.65625,16.6875 -3.910324,12.02029 -6.779068,24.51465 -8.46875,37.375 18.742218,1.82535 33.40625,17.62408 33.40625,36.84375 1.5e-5,18.10476 -13.012253,33.16067 -30.1875,36.375 1.277954,5.75903 2.759415,11.42917 4.5,17 3.359619,-0.88443 6.79512,-1.29526 10.1875,-1.21875 12.507599,0.28213 24.572922,6.91208 31.28125,18.53125 9.130905,15.81521 5.263657,35.57922 -8.28125,46.90625 7.557648,9.94781 15.978577,19.20843 25.15625,27.65625 6.978363,-8.45319 17.227966,-13.19947 27.781253,-13.4375 6.5516,-0.14777 13.19503,1.45483 19.28125,4.96875 16.87545,9.74304 23.1712,30.78021 14.875,48.0625 11.47454,4.75067 23.45239,8.51947 35.84375,11.1875 3.52627,-16.77747 18.42746,-29.375 36.25,-29.375 18.77664,0 34.27987,14.00415 36.6875,32.125 11.22039,-1.52948 22.16482,-3.92511 32.75,-7.15625 -5.53757,-16.37812 1.05172,-34.93305 16.59375,-43.90625 5.53293,-3.19446 11.5606,-4.78345 17.53125,-4.9375 12.00396,-0.30969 23.78512,5.25311 31.09378,15.5 10.67425,-8.07825 20.55432,-17.16217 29.5,-27.09375 -12.83087,-11.43585 -16.33533,-30.69068 -7.40625,-46.15625 6.70831,-11.61917 18.77362,-18.24912 31.28125,-18.53125 4.98938,-0.11255 10.05707,0.79239 14.875,2.78125 4.32318,-10.70374 7.78839,-21.85141 10.3125,-33.34375 -16.0976,-4.02341 -28.03125,-18.59738 -28.03125,-35.9375 0,-18.44177 13.50635,-33.74143 31.15625,-36.5625 -2.44861,-18.8367 -7.39685,-36.88211 -14.5,-53.8125 -17.27747,8.27774 -38.29303,1.99215 -48.03125,-14.875 -9.10419,-15.76889 -5.26654,-35.46939 8.1875,-46.812502 -8.07678,-8.699493 -16.8772,-16.736557 -26.3125,-23.96875 -11.35633,13.372879 -30.98905,17.175293 -46.71878,8.09375 -14.78348,-8.535233 -21.46149,-25.745178 -17.3125,-41.5 -11.27509,-3.579941 -22.96024,-6.238251 -34.96875,-7.875 z M 221.0759,158.99164 c 1.28143,0 2.54693,0.0295 3.8125,0.0937 5.06219,0.25708 10.00421,1.0271 14.75,2.25 1.18649,0.30551 2.36844,0.63806 3.53125,1 2.32556,0.72436 4.591,1.5592 6.8125,2.5 1.11081,0.47009 2.20031,0.9754 3.28125,1.5 0.54046,0.2623 1.09201,0.53738 1.625,0.8125 0.0745,0.0382 0.14441,0.0866 0.21875,0.125 0.725,0.37478 1.4454,0.75854 2.15625,1.15625 0.78265,0.44 1.54669,0.87826 2.3125,1.34375 2.04205,1.24203 4.0307,2.57278 5.9375,4 0.71508,0.53491 1.4291,1.09668 2.125,1.65625 0.42749,0.34454 0.86163,0.67752 1.28125,1.03125 0.56656,0.47632 1.10428,0.97607 1.65625,1.46875 1.03448,0.9234 2.05194,1.86444 3.03125,2.84375 0.63022,0.63058 1.23675,1.28479 1.84375,1.9375 0.0101,0.0109 0.0212,0.0204 0.0312,0.0312 0.28067,0.30218 0.56814,0.59945 0.84375,0.90625 0.70736,0.78738 1.3891,1.58908 2.0625,2.40625 0.18902,0.2294 0.37619,0.45581 0.5625,0.6875 0.56134,0.69674 1.11987,1.40793 1.65625,2.125 0.66839,0.8952 1.30905,1.79303 1.9375,2.71875 0.8779,1.29318 1.73385,2.61892 2.53125,3.96875 0.4544,0.76858 0.88534,1.55774 1.3125,2.34375 1.14404,2.1051 2.18481,4.24713 3.125,6.46875 0.41211,0.97314 0.81634,1.94351 1.1875,2.9375 0.0379,0.10147 0.0563,0.21081 0.0937,0.3125 0.32959,0.89462 0.64181,1.80826 0.9375,2.71875 0.0406,0.12503 0.085,0.24966 0.125,0.375 0.11505,0.36081 0.20285,0.73056 0.3125,1.09375 0.26931,0.892 0.54495,1.78171 0.78125,2.6875 0.065,0.24927 0.125,0.49972 0.1875,0.75 0.16006,0.6401 0.29416,1.29095 0.4375,1.9375 0.17688,0.79785 0.34903,1.59903 0.5,2.40625 0.008,0.0421 0.0235,0.0828 0.0312,0.125 0.0134,0.0723 0.0181,0.14636 0.0312,0.21875 0.16989,0.93277 0.3341,1.86798 0.46875,2.8125 0.009,0.063 0.0224,0.12448 0.0312,0.1875 0.0289,0.20675 0.0353,0.41772 0.0625,0.625 0.11459,0.8724 0.22851,1.74341 0.3125,2.625 0.10428,1.09564 0.19375,2.20385 0.25,3.3125 0.0632,1.2554 0.0937,2.54147 0.0937,3.8125 0,2.56286 -0.12125,5.06625 -0.375,7.5625 -0.001,0.0103 10e-4,0.021 0,0.0312 -0.12635,1.23767 -0.28232,2.46853 -0.46875,3.6875 -0.002,0.0102 0.002,0.0211 0,0.0312 -0.18692,1.21881 -0.41077,2.42642 -0.65625,3.625 -0.002,0.01 0.002,0.0212 0,0.0312 -0.12299,0.59924 -0.26392,1.18753 -0.40625,1.78125 -0.13758,0.59506 -0.28571,1.19174 -0.4375,1.78125 -0.003,0.01 0.003,0.0215 0,0.0312 -0.30347,1.17657 -0.64106,2.34671 -1,3.5 -0.003,0.01 0.003,0.0217 0,0.0312 -0.72181,2.31582 -1.56363,4.59991 -2.5,6.8125 -0.94019,2.22162 -1.98096,4.36364 -3.125,6.46875 -0.004,0.008 0.004,0.0232 0,0.0312 -1.14045,2.09668 -2.3884,4.12509 -3.71875,6.09375 -0.005,0.007 0.005,0.024 0,0.0312 -0.66324,0.98074 -1.3544,1.92834 -2.0625,2.875 -0.005,0.007 0.005,0.0244 0,0.0312 -0.70862,0.94671 -1.4668,1.87021 -2.21875,2.78125 -0.005,0.006 0.005,0.025 0,0.0312 -3.02475,3.66229 -6.39923,7.03891 -10.0625,10.0625 -3.66904,3.02832 -7.63379,5.71219 -11.84375,8 -2.10511,1.14404 -4.27838,2.18481 -6.5,3.125 -2.2215,0.94006 -4.48694,1.77624 -6.8125,2.5 -1.16281,0.36194 -2.34476,0.69452 -3.53125,1 -4.74579,1.22186 -9.68781,1.99316 -14.75,2.25 -1.26557,0.0642 -2.53107,0.0937 -3.8125,0.0937 -1.28144,0 -2.54694,-0.0295 -3.8125,-0.0937 -5.0622,-0.25708 -10.00421,-1.0271 -14.75,-2.25 -1.1865,-0.30548 -2.36844,-0.63806 -3.53125,-1 -2.32557,-0.72437 -4.59101,-1.55918 -6.8125,-2.5 -2.22162,-0.94019 -4.3949,-1.98096 -6.5,-3.125 -1.05249,-0.57236 -2.07273,-1.19147 -3.09375,-1.8125 -1.02103,-0.621 -2.04047,-1.27115 -3.03125,-1.9375 -0.98807,-0.6677 -1.95279,-1.34931 -2.90625,-2.0625 -1.90696,-1.42639 -3.74076,-2.93219 -5.5,-4.53125 -0.87406,-0.79447 -1.72721,-1.63394 -2.5625,-2.46875 -0.84592,-0.8454 -1.66416,-1.67731 -2.46875,-2.5625 -0.005,-0.006 0.005,-0.0255 0,-0.0312 -0.79947,-0.88004 -1.58667,-1.76975 -2.34375,-2.6875 -0.75714,-0.91733 -1.50556,-1.85904 -2.21875,-2.8125 -0.71314,-0.95389 -1.39487,-1.91779 -2.0625,-2.90625 -1.33539,-1.97611 -2.57471,-4.0199 -3.71875,-6.125 -1.14402,-2.10511 -2.18482,-4.24713 -3.125,-6.46875 -0.004,-0.009 0.004,-0.0224 0,-0.0312 -0.46628,-1.10224 -0.9299,-2.21518 -1.34375,-3.34375 -0.003,-0.009 0.003,-0.022 0,-0.0312 -0.41675,-1.13788 -0.79438,-2.27442 -1.15625,-3.4375 -0.3541,-1.1377 -0.6684,-2.2778 -0.96875,-3.4375 -0.0215,-0.0831 -0.0413,-0.16684 -0.0625,-0.25 -0.26944,-1.05564 -0.52631,-2.14588 -0.75,-3.21875 -0.0561,-0.26963 -0.10309,-0.54181 -0.15625,-0.8125 -0.1496,-0.76056 -0.31137,-1.51258 -0.4375,-2.28125 -0.0631,-0.38498 -0.13034,-0.76929 -0.1875,-1.15625 -0.004,-0.0304 0.004,-0.0633 0,-0.0937 -0.14908,-1.0167 -0.26773,-2.03263 -0.375,-3.0625 -0.0185,-0.17765 -0.0452,-0.35321 -0.0625,-0.53125 -0.10205,-1.05377 -0.16147,-2.12085 -0.21875,-3.1875 -0.005,-0.0844 -0.027,-0.1655 -0.0312,-0.25 -0.0642,-1.2656 -0.0937,-2.53107 -0.0937,-3.8125 0,-1.28144 0.0295,-2.54694 0.0937,-3.8125 0.0613,-1.25299 0.15493,-2.5072 0.28125,-3.75 0.001,-0.0103 -0.001,-0.0209 0,-0.0312 0.12582,-1.2378 0.28283,-2.46839 0.46875,-3.6875 0.002,-0.0102 -0.002,-0.0211 0,-0.0312 0.1864,-1.21894 0.41128,-2.42627 0.65625,-3.625 0.002,-0.01 -0.002,-0.0213 0,-0.0312 0.24545,-1.19861 0.54126,-2.38565 0.84375,-3.5625 0.002,-0.01 -0.003,-0.0215 0,-0.0312 0.30294,-1.17673 0.64154,-2.34656 1,-3.5 0.003,-0.009 -0.003,-0.0218 0,-0.0312 0.36187,-1.16278 0.7395,-2.29996 1.15625,-3.4375 0.31225,-0.8523 0.65771,-1.69388 1,-2.53125 0.0389,-0.095 0.0858,-0.1864 0.125,-0.28125 0.16827,-0.4068 0.32476,-0.81562 0.5,-1.21875 0.27026,-0.62097 0.55706,-1.23175 0.84375,-1.84375 0.19638,-0.41971 0.3898,-0.8346 0.59375,-1.25 0.44925,-0.914 0.92038,-1.82471 1.40625,-2.71875 0.004,-0.008 -0.004,-0.0233 0,-0.0312 0.57196,-1.05249 1.16067,-2.07273 1.78125,-3.09375 0.62509,-1.02838 1.26468,-2.03638 1.9375,-3.03125 0.66287,-0.98093 1.35479,-1.92816 2.0625,-2.875 0.005,-0.007 -0.005,-0.0247 0,-0.0312 0.70825,-0.94687 1.46716,-1.87003 2.21875,-2.78125 0.005,-0.006 -0.005,-0.0252 0,-0.0312 0.75708,-0.91727 1.54428,-1.80796 2.34375,-2.6875 2.39859,-2.63886 4.96676,-5.10355 7.71875,-7.375 3.66903,-3.02832 7.63379,-5.71219 11.84375,-8 2.1051,-1.14401 4.27838,-2.18482 6.5,-3.125 2.22149,-0.94007 4.48693,-1.77622 6.8125,-2.5 1.16281,-0.36194 2.34475,-0.69449 3.53125,-1 4.74579,-1.22187 9.6878,-1.99314 14.75,-2.25 1.26556,-0.0642 2.53106,-0.0937 3.8125,-0.0937 z"
         inkscape:connector-curvature="0"
         style="fill:#7f8c8d;stroke-width:0;stroke-miterlimit:4" />
      <path
         stroke-miterlimit="4"
         id="path2249"
         d="m 221.06027,62.147888 c -94.47085,1.5e-5 -171.124983,76.685392 -171.124983,171.156252 0,94.47085 76.654133,171.125 171.124983,171.125 94.47086,6e-5 171.15622,-76.65415 171.15622,-171.125 0,-94.47086 -76.68536,-171.156252 -171.15622,-171.156252 z m 0.0312,96.843752 c 1.28143,0 2.54694,0.0295 3.8125,0.0937 5.0622,0.25708 10.00421,1.0271 14.75,2.25 1.18649,0.30551 2.36844,0.63806 3.53125,1 2.32556,0.72436 4.591,1.5592 6.8125,2.5 3.3324,1.41028 6.53052,3.07559 9.59375,4.9375 2.04202,1.24203 4.0307,2.57278 5.9375,4 2.86041,2.13962 5.5727,4.47894 8.09375,7 5.04172,5.04464 9.34952,10.80755 12.78125,17.125 1.14404,2.1051 2.18482,4.24713 3.125,6.46875 3.29685,7.78506 5.30002,16.25577 5.75,25.125 0.0632,1.2554 0.0937,2.54147 0.0937,3.8125 0,2.56286 -0.12124,5.06625 -0.375,7.5625 -0.001,0.0103 10e-4,0.021 0,0.0312 -0.12634,1.23767 -0.28232,2.46853 -0.46875,3.6875 -0.002,0.0102 0.002,0.0211 0,0.0312 -0.18692,1.21881 -0.41077,2.42642 -0.65625,3.625 -0.002,0.01 0.002,0.0212 0,0.0312 -0.24597,1.19845 -0.54074,2.3858 -0.84375,3.5625 -0.002,0.01 0.003,0.0215 0,0.0312 -0.30347,1.17657 -0.64102,2.34671 -1,3.5 -0.003,0.01 0.003,0.0217 0,0.0312 -1.44656,4.64105 -3.34158,9.07959 -5.625,13.28125 -0.004,0.008 0.004,0.0232 0,0.0312 -1.14044,2.09668 -2.3884,4.12509 -3.71875,6.09375 -0.005,0.007 0.005,0.024 0,0.0312 -0.66324,0.98074 -1.3544,1.92834 -2.0625,2.875 -0.005,0.007 0.005,0.0244 0,0.0312 -0.70862,0.94671 -1.4668,1.87021 -2.21875,2.78125 -0.005,0.006 0.005,0.025 0,0.0312 -1.50986,1.82812 -3.10608,3.57483 -4.78125,5.25 -0.8454,0.84591 -1.70855,1.66418 -2.59375,2.46875 -0.87961,0.79953 -1.77017,1.58661 -2.6875,2.34375 -3.66904,3.02832 -7.63379,5.71219 -11.84375,8 -2.1051,1.14404 -4.27838,2.18481 -6.5,3.125 -2.2215,0.94006 -4.48694,1.77624 -6.8125,2.5 -1.16281,0.36194 -2.34476,0.69452 -3.53125,1 -4.74579,1.22186 -9.6878,1.99316 -14.75,2.25 -1.26556,0.0642 -2.53107,0.0937 -3.8125,0.0937 -1.28143,0 -2.54693,-0.0295 -3.8125,-0.0937 -5.06219,-0.25708 -10.00421,-1.0271 -14.75,-2.25 -1.18649,-0.30548 -2.36841,-0.63806 -3.53125,-1 -2.32556,-0.72437 -4.591,-1.55918 -6.8125,-2.5 -3.3324,-1.41028 -6.53049,-3.07559 -9.59375,-4.9375 -2.04202,-1.24204 -4.03067,-2.57279 -5.9375,-4 -3.82016,-2.85752 -7.32895,-6.06845 -10.53125,-9.59375 -0.79947,-0.88004 -1.58667,-1.76975 -2.34375,-2.6875 -3.02859,-3.66931 -5.71194,-7.63355 -8,-11.84375 -1.14401,-2.10511 -2.18481,-4.24713 -3.125,-6.46875 -0.004,-0.009 0.004,-0.0224 0,-0.0312 -0.46628,-1.10224 -0.9299,-2.21518 -1.34375,-3.34375 -0.003,-0.009 0.003,-0.022 0,-0.0312 -0.41675,-1.13788 -0.79437,-2.27442 -1.15625,-3.4375 -1.81256,-5.82355 -2.93097,-11.94248 -3.25,-18.28125 -0.0642,-1.2656 -0.0937,-2.53107 -0.0937,-3.8125 0,-2.57346 0.11917,-5.08747 0.375,-7.59375 0.12583,-1.2378 0.28284,-2.46839 0.46875,-3.6875 0.002,-0.0102 -0.002,-0.0211 0,-0.0312 0.1864,-1.21894 0.41129,-2.42627 0.65625,-3.625 0.002,-0.01 -0.002,-0.0213 0,-0.0312 0.24545,-1.19861 0.54126,-2.38565 0.84375,-3.5625 0.002,-0.01 -0.002,-0.0215 0,-0.0312 0.30295,-1.17673 0.64154,-2.34656 1,-3.5 0.003,-0.009 -0.003,-0.0218 0,-0.0312 0.36188,-1.16278 0.7395,-2.29996 1.15625,-3.4375 1.25351,-3.42136 2.74729,-6.71009 4.46875,-9.875 0.57196,-1.05249 1.16068,-2.07273 1.78125,-3.09375 0.62509,-1.02838 1.26468,-2.03638 1.9375,-3.03125 0.66287,-0.98093 1.3548,-1.92816 2.0625,-2.875 0.005,-0.007 -0.005,-0.0247 0,-0.0312 0.70825,-0.94687 1.46716,-1.87003 2.21875,-2.78125 0.005,-0.006 -0.005,-0.0252 0,-0.0312 0.75708,-0.91727 1.54428,-1.80796 2.34375,-2.6875 0.79953,-0.87961 1.59714,-1.72214 2.4375,-2.5625 0.84543,-0.84592 1.70859,-1.66416 2.59375,-2.46875 0.87961,-0.79953 1.77017,-1.58661 2.6875,-2.34375 3.66904,-3.02832 7.63379,-5.71219 11.84375,-8 2.1051,-1.14401 4.27841,-2.18482 6.5,-3.125 2.2215,-0.94007 4.48694,-1.77622 6.8125,-2.5 1.16284,-0.36194 2.34476,-0.69449 3.53125,-1 4.74579,-1.22187 9.68781,-1.99314 14.75,-2.25 1.26557,-0.0642 2.53107,-0.0937 3.8125,-0.0937 z"
         inkscape:connector-curvature="0"
         style="fill:#95a5a6;stroke-width:0;stroke-miterlimit:4" />
      <path
         stroke-miterlimit="4"
         id="path2252"
         d="m 221.06027,84.429138 c -82.16916,0 -148.843748,66.705842 -148.843748,148.875002 0,82.16916 66.674618,148.84375 148.843748,148.84375 82.16916,0 148.87503,-66.67459 148.87503,-148.84375 0,-82.16916 -66.70587,-148.875002 -148.87503,-148.875002 z m 0.0312,74.562502 c 41.00571,0 74.28125,33.30679 74.28125,74.3125 0,41.0057 -33.27554,74.28125 -74.28125,74.28125 -41.00571,0 -74.28125,-33.3068 -74.28125,-74.3125 0,-41.00571 33.27554,-74.28125 74.28125,-74.28125 z"
         inkscape:connector-curvature="0"
         style="fill:#4d4d4d;stroke-width:0;stroke-miterlimit:4" />
      <path
         stroke-miterlimit="4"
         d="m 221.0759,142.29135 c -50.30101,0 -91.125,40.758 -91.125,90.98123 0,50.22321 40.82402,91.01319 91.125,91.01319 50.30099,0 91.12497,-40.75803 91.12497,-90.98125 l 0,-0.0319 c 0,-50.22323 -40.82398,-90.98123 -91.12497,-90.98123 z m 0,20.60495 c 38.9815,0 70.61868,31.54289 70.61868,70.40822 -6e-5,38.86531 -31.63721,70.37627 -70.61868,70.37627 -38.98149,0 -70.61869,-31.54288 -70.61869,-70.40821 0,-38.86534 31.6372,-70.37628 70.61869,-70.37628 z"
         id="path3318"
         inkscape:connector-curvature="0"
         style="fill:#7f8c8d;stroke-width:0;stroke-miterlimit:4" />
      <path
         stroke-miterlimit="4"
         d="m 414.30487,289.99017 c -4.40265,10.57859 -16.09564,16.53254 -27.50616,13.4751 -10.83063,-2.90207 -17.84247,-12.9552 -17.26374,-23.68671 -8.39209,-0.42413 -16.70044,-0.0299 -24.84405,1.10935 1.28747,11.22696 -5.80731,22.0068 -17.08142,25.00806 -10.46802,2.78665 -21.21125,-1.99714 -26.32483,-10.98758 -6.14405,3.24057 -12.04819,6.95303 -17.61338,11.11731 6.92753,9.10345 6.23105,22.13409 -2.08685,30.42495 -7.93335,7.9075 -20.19522,8.91153 -29.23678,2.99424 -4.32621,6.64056 -8.09638,13.73773 -11.20939,21.24847 11.09345,4.15692 17.44181,16.10944 14.32398,27.74536 -2.93695,10.96088 -13.28684,17.95715 -24.24558,17.10651 -0.15762,3.6947 -0.17715,7.36871 -0.0231,11.02484 2.18509,0.0116 4.33948,0.32226 6.38861,0.92096 7.55503,2.20745 13.81156,8.18591 16.0033,16.31268 2.98325,11.06158 -2.57297,22.39728 -12.64163,27.04931 2.979,7.25318 6.59408,14.23096 10.8009,20.83979 5.61203,-3.98145 12.6106,-5.18592 19.06238,-3.61163 4.00537,0.97735 7.78256,3.02935 10.9111,6.14776 8.67462,8.64642 9.08786,22.40784 1.24274,31.5199 6.20239,4.74457 12.86987,8.97662 19.96725,12.60962 4.86453,-9.58319 15.9635,-14.78357 26.79419,-11.88147 11.41046,3.05737 18.55994,14.06018 17.0835,25.42285 7.06665,0.90106 14.1062,1.23279 21.06292,1.00024 -0.70831,-10.81726 6.30597,-20.97778 17.20643,-23.87958 3.88055,-1.03302 7.80127,-1.01355 11.45465,-0.13458 7.34497,1.76715 13.60193,7.05329 16.3811,14.44696 7.79712,-3.15253 15.27478,-7.04333 22.32214,-11.59942 -5.94213,-9.01276 -4.94824,-21.24048 2.98676,-29.14966 5.96149,-5.94214 14.36908,-7.9914 22.01562,-6.12555 3.0503,0.74426 5.9831,2.11731 8.58832,4.10589 4.36353,-5.77624 8.27771,-11.96099 11.67591,-18.50762 -9.12976,-5.05701 -14.01758,-15.82349 -11.20466,-26.32148 2.99164,-11.16491 13.68128,-18.22833 24.86469,-17.06231 1.56769,-11.80274 1.48804,-23.53345 -0.0821,-34.93994 -11.84229,2.19812 -23.59363,-5.02924 -26.77533,-16.8266 -2.97455,-11.02918 2.5534,-22.33124 12.56946,-27.00782 -3.49695,-6.58197 -7.5412,-12.8807 -12.10175,-18.79556 -9.07056,6.24698 -21.6181,5.3522 -29.70374,-2.70721 -7.5993,-7.57459 -8.86566,-19.08115 -3.78857,-27.94376 -6.27112,-4.0033 -12.94092,-7.51538 -19.9729,-10.46167 z m -39.05426,76.32349 c 0.77869,0.20862 1.54297,0.43255 2.30158,0.67755 3.0346,0.97992 5.9129,2.25079 8.59851,3.76392 0.67151,0.37817 1.33581,0.77197 1.9837,1.18042 1.29572,0.8172 2.53699,1.69152 3.73438,2.62286 0.59881,0.46545 1.17889,0.94879 1.75067,1.44238 0.28589,0.24683 0.57641,0.50318 0.85571,0.75653 0.0391,0.0352 0.0737,0.0759 0.11267,0.11127 0.37976,0.34497 0.75531,0.69458 1.12274,1.05115 0.4043,0.3938 0.79749,0.78357 1.18732,1.19006 1.03949,1.08441 2.0321,2.21393 2.95935,3.38849 0.34778,0.44025 0.69055,0.89661 1.02264,1.34869 0.20392,0.2782 0.4137,0.55048 0.61133,0.83301 0.26703,0.38062 0.51276,0.77069 0.76825,1.15888 0.47882,0.72748 0.94446,1.46289 1.38074,2.21521 0.2807,0.48437 0.54315,0.97925 0.80615,1.4732 0.004,0.008 0.01,0.0158 0.0139,0.024 0.12152,0.22864 0.24798,0.45538 0.36572,0.68604 0.30213,0.59185 0.58637,1.18823 0.86304,1.7926 0.0776,0.16968 0.15466,0.33722 0.23028,0.50781 0.22809,0.51325 0.45215,1.03473 0.66181,1.55622 0.26092,0.65081 0.50464,1.2987 0.73633,1.96148 0.32373,0.92584 0.62884,1.86786 0.89441,2.81488 0.15148,0.53931 0.28533,1.08722 0.41741,1.63269 0.35376,1.46076 0.63874,2.927 0.84967,4.42511 0.0926,0.65625 0.18085,1.30957 0.24512,1.97174 0.007,0.0676 0,0.13684 0.006,0.20447 0.0552,0.59528 0.0967,1.19928 0.12872,1.79865 0.004,0.0823 0.0111,0.16497 0.0151,0.24737 0.0114,0.23718 0.005,0.47534 0.0125,0.71308 0.0189,0.58386 0.0421,1.16741 0.0388,1.75427 -9.2e-4,0.1615 -0.005,0.32287 -0.008,0.48456 -0.007,0.41363 -0.0306,0.82946 -0.0485,1.24426 -0.0219,0.51184 -0.0473,1.0249 -0.0865,1.53821 -0.002,0.0268 8.5e-4,0.0539 -10e-4,0.0808 -0.004,0.046 -0.0128,0.0915 -0.0165,0.13751 -0.0481,0.59241 -0.1,1.1853 -0.17139,1.77905 -0.005,0.0396 -0.007,0.079 -0.0115,0.11865 -0.0159,0.12983 -0.0463,0.25861 -0.0634,0.38855 -0.0719,0.54682 -0.14398,1.09265 -0.23596,1.64008 -0.11432,0.6803 -0.23975,1.36578 -0.38544,2.04614 -0.16522,0.77033 -0.35528,1.55396 -0.56146,2.32343 -0.41577,1.55157 -0.89551,3.04742 -1.45471,4.51739 -0.002,0.006 -0.003,0.0129 -0.005,0.0189 -0.27753,0.7287 -0.57196,1.44849 -0.88306,2.15613 -0.003,0.006 -0.002,0.0131 -0.005,0.0189 -0.31128,0.70746 -0.64319,1.4021 -0.98682,2.08777 -0.003,0.006 -0.002,0.0132 -0.005,0.0189 -0.17194,0.34278 -0.35303,0.67597 -0.53583,1.01227 -0.18018,0.33783 -0.36694,0.67499 -0.55481,1.00714 -0.003,0.005 -0.002,0.0134 -0.005,0.0189 -0.37524,0.66291 -0.7702,1.31635 -1.17541,1.95612 -0.003,0.005 -0.002,0.0137 -0.005,0.0189 -0.81433,1.28448 -1.69641,2.53027 -2.62439,3.71735 -0.93176,1.19189 -1.91168,2.31921 -2.94842,3.40741 -0.004,0.004 -0.001,0.0148 -0.005,0.0189 -1.03314,1.08368 -2.12061,2.10846 -3.24841,3.08374 -0.004,0.004 -9.2e-4,0.0153 -0.005,0.0189 -0.56213,0.48572 -1.13586,0.9469 -1.71973,1.40472 -0.004,0.003 -8.5e-4,0.0156 -0.005,0.0189 -0.58423,0.45777 -1.19477,0.89344 -1.7995,1.32251 -0.004,0.003 -9.2e-4,0.016 -0.005,0.0189 -2.43225,1.72467 -5.03064,3.21949 -7.74731,4.45349 -2.72089,1.23597 -5.56562,2.21527 -8.49512,2.9148 -1.46484,0.34985 -2.95441,0.6261 -4.45697,0.83356 -1.5025,0.20739 -3.01483,0.34472 -4.54547,0.40423 -0.76538,0.0298 -1.5376,0.0386 -2.30817,0.0304 -3.08221,-0.033 -6.21057,-0.37079 -9.32849,-1.03955 -0.77954,-0.16724 -1.55334,-0.35541 -2.33203,-0.56403 -0.77875,-0.20868 -1.54303,-0.43262 -2.30164,-0.67755 -3.0346,-0.97998 -5.9129,-2.25085 -8.59851,-3.76398 -0.67151,-0.37817 -1.33581,-0.77197 -1.9837,-1.18042 -1.29578,-0.8172 -2.53699,-1.69153 -3.73438,-2.6228 -1.19757,-0.93097 -2.34942,-1.91498 -3.44308,-2.95038 -0.54675,-0.51788 -1.06635,-1.05884 -1.58606,-1.60107 -0.51971,-0.54218 -1.03378,-1.10181 -1.52777,-1.66657 -0.49213,-0.56512 -0.96781,-1.13482 -1.43152,-1.72186 -0.92746,-1.17413 -1.79758,-2.38434 -2.60727,-3.63885 -0.40228,-0.62336 -0.78455,-1.27051 -1.15674,-1.91193 -0.37692,-0.64954 -0.73922,-1.28644 -1.08456,-1.95337 -0.002,-0.004 0.007,-0.0145 0.005,-0.0189 -0.34307,-0.66296 -0.67712,-1.32977 -0.98831,-2.00867 -0.31131,-0.67865 -0.61334,-1.3706 -0.89206,-2.06402 -0.27865,-0.69361 -0.53656,-1.38819 -0.78192,-2.09534 -0.49096,-1.41382 -0.91253,-2.85291 -1.26626,-4.31366 -0.35376,-1.46075 -0.63874,-2.92706 -0.8497,-4.42517 -8.3e-4,-0.006 0.006,-0.0129 0.005,-0.0189 -0.10455,-0.74323 -0.20575,-1.4925 -0.27417,-2.24317 -5.5e-4,-0.006 0.006,-0.0127 0.005,-0.0189 -0.0686,-0.75671 -0.11377,-1.50628 -0.14499,-2.26935 -0.0306,-0.74646 -0.0367,-1.48785 -0.0311,-2.23889 4e-4,-0.0538 0.002,-0.10772 0.003,-0.1615 0.008,-0.68298 0.0283,-1.38488 0.0664,-2.0708 0.01,-0.17242 0.0252,-0.34485 0.0368,-0.51739 0.0325,-0.4848 0.0562,-0.96643 0.10421,-1.45233 0.0241,-0.24335 0.0456,-0.48694 0.0736,-0.73053 0.002,-0.0192 0.013,-0.0376 0.0152,-0.0568 0.0743,-0.63977 0.16702,-1.27417 0.26889,-1.91516 0.0176,-0.11053 0.0298,-0.22119 0.0482,-0.33179 0.10892,-0.6546 0.24591,-1.31024 0.38415,-1.96539 0.0109,-0.0518 0.0104,-0.10455 0.0215,-0.15643 0.16629,-0.77667 0.35364,-1.54761 0.56149,-2.32343 0.20789,-0.77575 0.43112,-1.53711 0.67545,-2.29284 0.24048,-0.74866 0.50088,-1.49268 0.77923,-2.22455 0.002,-0.006 0.003,-0.0128 0.005,-0.0189 0.27725,-0.72888 0.57233,-1.44831 0.88306,-2.15613 0.003,-0.006 0.002,-0.013 0.005,-0.0189 0.31101,-0.70758 0.64353,-1.40192 0.98685,-2.08777 0.003,-0.006 0.002,-0.0132 0.005,-0.0189 0.34356,-0.68567 0.71591,-1.35614 1.09063,-2.01941 0.003,-0.005 0.002,-0.0134 0.005,-0.0189 0.375,-0.66309 0.77051,-1.31616 1.17547,-1.95612 0.003,-0.005 0.002,-0.0137 0.005,-0.0189 0.40854,-0.64502 0.82248,-1.27203 1.26028,-1.89282 0.32801,-0.46515 0.67447,-0.9184 1.01832,-1.36963 0.039,-0.0512 0.0823,-0.0989 0.12158,-0.1499 0.16824,-0.21893 0.32965,-0.44092 0.50155,-0.6565 0.26496,-0.3319 0.53836,-0.65496 0.81183,-0.97882 0.18744,-0.2221 0.37226,-0.44177 0.5636,-0.66009 0.42127,-0.48017 0.85532,-0.95484 1.29563,-1.41699 0.004,-0.004 0.001,-0.0148 0.005,-0.0189 0.51831,-0.54407 1.04157,-1.06586 1.58432,-1.58295 0.54666,-0.52081 1.09891,-1.02692 1.66916,-1.51965 0.56195,-0.48597 1.13605,-0.94678 1.71973,-1.40479 0.004,-0.003 10e-4,-0.0157 0.005,-0.0189 0.58405,-0.45789 1.19495,-0.89319 1.7995,-1.32251 0.004,-0.003 0.001,-0.016 0.005,-0.0189 0.60889,-0.43201 1.23175,-0.84308 1.86029,-1.24542 1.88568,-1.20703 3.84619,-2.28101 5.88702,-3.20807 2.72089,-1.23596 5.56562,-2.21521 8.49518,-2.9148 1.46479,-0.34985 2.95435,-0.62604 4.45691,-0.83349 1.5025,-0.2074 3.01483,-0.34479 4.54547,-0.4043 0.76538,-0.0297 1.5376,-0.0386 2.30817,-0.0304 3.08221,0.033 6.21057,0.37079 9.32849,1.03955 0.77948,0.16724 1.55335,0.35541 2.33209,0.56409 z"
         id="path3396"
         inkscape:connector-curvature="0"
         style="fill:#7f8c8d;stroke-width:0;stroke-miterlimit:4" />
      <path
         stroke-miterlimit="4"
         d="m 390.95111,307.68036 c -57.40948,-15.38281 -116.43179,18.56201 -131.75693,75.75616 -15.32513,57.1941 18.82239,116.08344 76.23185,131.46631 57.40948,15.38282 116.4458,-18.53802 131.77087,-75.73218 15.32513,-57.19409 -18.83624,-116.10745 -76.24579,-131.49029 z m -15.69104,58.6358 c 0.77875,0.20868 1.54297,0.43262 2.30164,0.67755 3.03454,0.97992 5.9129,2.25086 8.59851,3.76398 0.67145,0.37817 1.33575,0.77197 1.9837,1.18042 1.29572,0.8172 2.53699,1.69153 3.73438,2.6228 1.79632,1.39643 3.4696,2.92542 5.02911,4.5514 1.03943,1.08447 2.03204,2.21392 2.95929,3.38848 1.39117,1.76117 2.65991,3.61902 3.78302,5.55585 2.24548,3.87506 3.92841,8.06543 4.98908,12.44892 0.3537,1.46075 0.63873,2.92706 0.84967,4.42517 0.7406,5.25 0.5838,10.70446 -0.58155,16.14733 -0.16522,0.77033 -0.35528,1.5539 -0.56146,2.32343 -0.41577,1.55157 -0.89557,3.04742 -1.45471,4.51739 -0.002,0.006 -0.003,0.0129 -0.005,0.0189 -0.27758,0.72869 -0.57202,1.44848 -0.88305,2.15612 -0.003,0.006 -0.003,0.013 -0.005,0.0189 -0.31128,0.70746 -0.64325,1.4021 -0.98688,2.08777 -0.003,0.006 -0.002,0.0132 -0.005,0.0189 -0.34387,0.68549 -0.71564,1.35633 -1.09064,2.01941 -0.003,0.005 -0.002,0.0134 -0.005,0.0189 -0.3753,0.66291 -0.7702,1.31635 -1.17547,1.95612 -0.003,0.005 -0.002,0.0136 -0.005,0.0189 -1.63196,2.57422 -3.50354,4.95282 -5.57275,7.12476 -0.004,0.004 -0.001,0.0147 -0.005,0.0189 -1.0332,1.08368 -2.1206,2.10846 -3.24841,3.08368 -0.004,0.004 -9.2e-4,0.0154 -0.005,0.0189 -0.56213,0.48578 -1.13586,0.94696 -1.71978,1.40478 -0.004,0.003 -8.6e-4,0.0156 -0.005,0.0189 -0.58417,0.45771 -1.1947,0.89338 -1.7995,1.32251 -0.004,0.003 -8.6e-4,0.0159 -0.005,0.0189 -1.21411,0.8609 -2.46747,1.6585 -3.7572,2.3999 -0.65094,0.37445 -1.30823,0.72931 -1.97668,1.07226 -0.66425,0.34082 -1.33313,0.67231 -2.01337,0.98133 -2.72095,1.23596 -5.56568,2.21521 -8.49518,2.91479 -1.46484,0.34986 -2.95435,0.62604 -4.45697,0.8335 -1.50244,0.20739 -3.01483,0.34472 -4.54547,0.40429 -0.76532,0.0297 -1.53754,0.0386 -2.30817,0.0304 -3.08215,-0.033 -6.21051,-0.37079 -9.32849,-1.03961 -0.77948,-0.16718 -1.55328,-0.35535 -2.33203,-0.56403 -0.77869,-0.20862 -1.54297,-0.43261 -2.30164,-0.67755 -3.03454,-0.97992 -5.9129,-2.25079 -8.59851,-3.76391 -0.67144,-0.37818 -1.33575,-0.77198 -1.9837,-1.18042 -1.29571,-0.81727 -2.53699,-1.69153 -3.73437,-2.62287 -1.79633,-1.39642 -3.46964,-2.92535 -5.02912,-4.55139 -1.03943,-1.08447 -2.03207,-2.21393 -2.95929,-3.38849 -1.85794,-2.35199 -3.46933,-4.86731 -4.8435,-7.52301 -0.34305,-0.66296 -0.6771,-1.32977 -0.98832,-2.00867 -1.24524,-2.7146 -2.23279,-5.55157 -2.94024,-8.47308 -0.35373,-1.46075 -0.63874,-2.927 -0.8497,-4.42511 -8.3e-4,-0.006 0.006,-0.0129 0.005,-0.0189 -0.10455,-0.74323 -0.20578,-1.49249 -0.27417,-2.24316 -5.5e-4,-0.006 0.006,-0.0128 0.005,-0.0189 -0.0687,-0.75677 -0.1138,-1.50634 -0.14502,-2.2694 -0.1568,-3.82081 0.15619,-7.7074 0.99057,-11.59693 0.16629,-0.77667 0.35363,-1.54761 0.56152,-2.32342 0.41745,-1.55799 0.8977,-3.06061 1.45975,-4.53632 0.27725,-0.72888 0.57229,-1.44836 0.88302,-2.15613 0.003,-0.006 0.002,-0.013 0.005,-0.0189 0.311,-0.70764 0.64355,-1.40192 0.98685,-2.08777 0.003,-0.006 0.002,-0.0132 0.005,-0.0189 0.34363,-0.68567 0.71594,-1.3562 1.09067,-2.01941 0.003,-0.005 0.002,-0.0134 0.005,-0.0189 0.375,-0.66308 0.7705,-1.31616 1.17547,-1.95611 0.003,-0.005 0.002,-0.0137 0.005,-0.0189 0.40854,-0.64508 0.82251,-1.27203 1.26028,-1.89282 1.31677,-1.86725 2.75803,-3.61511 4.31757,-5.25085 0.51831,-0.54407 1.04156,-1.06586 1.58432,-1.58295 0.54669,-0.52081 1.09888,-1.02692 1.66913,-1.51971 0.56195,-0.4859 1.1361,-0.94672 1.71978,-1.40473 0.004,-0.003 0.001,-0.0157 0.005,-0.0189 0.58398,-0.45788 1.19495,-0.89325 1.7995,-1.32251 0.004,-0.003 10e-4,-0.0161 0.005,-0.0189 0.60888,-0.43207 1.23175,-0.84314 1.86023,-1.24542 0.6286,-0.40234 1.24993,-0.78253 1.89697,-1.15448 0.651,-0.37445 1.30823,-0.72931 1.97668,-1.07227 0.66425,-0.34082 1.33313,-0.6723 2.01337,-0.98132 2.72095,-1.23596 5.56567,-2.21527 8.49518,-2.91479 1.46484,-0.34986 2.95441,-0.6261 4.45697,-0.83356 1.5025,-0.2074 3.01483,-0.34473 4.54547,-0.40424 0.76532,-0.0298 1.53754,-0.0386 2.3081,-0.0304 3.08222,0.033 6.21058,0.37079 9.32856,1.03955 0.77948,0.16723 1.55328,0.35541 2.33203,0.56402 z"
         id="path3398"
         inkscape:connector-curvature="0"
         style="fill:#95a5a6;stroke-width:0;stroke-miterlimit:4" />
      <path
         stroke-miterlimit="4"
         d="m 387.33667,321.1698 c -49.93384,-13.37973 -101.27274,16.14832 -114.60226,65.89477 -13.32953,49.74653 16.37231,100.96912 66.30612,114.34882 49.93378,13.37976 101.28668,-16.12433 114.61621,-65.87079 13.32953,-49.74652 -16.38629,-100.99307 -66.32007,-114.3728 z m -12.0766,45.14636 c 24.91901,6.67706 39.73731,32.25983 33.08539,57.08533 -6.65198,24.8255 -32.27136,39.55273 -57.19037,32.87567 -24.91898,-6.677 -39.7373,-32.25977 -33.08533,-57.08527 6.65195,-24.8255 32.2713,-39.55273 57.19031,-32.87573 z"
         id="path3400"
         inkscape:connector-curvature="0"
         style="fill:#4d4d4d;stroke-width:0;stroke-miterlimit:4" />
      <path
         stroke-miterlimit="4"
         id="path3402"
         d="m 377.95975,356.20303 c -30.56769,-8.19058 -61.98804,9.83753 -70.13529,40.24344 -8.14724,30.40592 10.04434,61.74826 40.61203,69.93885 30.56769,8.19058 61.98804,-9.83753 70.13529,-40.24347 l 0.005,-0.0193 c 8.14725,-30.40595 -10.0495,-61.72891 -40.61718,-69.9195 z m -3.34256,12.47455 c 23.68887,6.34741 37.79773,30.59552 31.49298,54.12518 -6.30478,23.52967 -30.64228,37.45539 -54.33112,31.10798 -23.68887,-6.34742 -37.79776,-30.59552 -31.49298,-54.12519 6.30475,-23.52969 30.64224,-37.45538 54.33112,-31.10797 z"
         inkscape:connector-curvature="0"
         style="fill:#7f8c8d;stroke-width:0;stroke-miterlimit:4" />
    </g>
  </g>
</svg>
