<?xml version="1.0" encoding="utf-8"?>
<!-- Generator: Adobe Illustrator 16.0.0, SVG Export Plug-In . SVG Version: 6.00 Build 0)  -->
<!DOCTYPE svg PUBLIC "-//W3C//DTD SVG 1.1//EN" "http://www.w3.org/Graphics/SVG/1.1/DTD/svg11.dtd">
<svg version="1.1" id="Layer_1" xmlns="http://www.w3.org/2000/svg" xmlns:xlink="http://www.w3.org/1999/xlink" x="0px" y="0px"
	 width="308px" height="308px" viewBox="0 0 308 308" enable-background="new 0 0 308 308" xml:space="preserve">
<g>
	<path fill="#7F7F7F" d="M154,308c85.048,0,154-68.952,154-154C308,68.948,239.048,0,154,0C68.948,0,0,68.948,0,154
		C0,239.048,68.948,308,154,308L154,308L154,308z"/>
	<path fill="#FFFFFF" d="M152.193,232.029c-41.445-1.389-74.616-35.422-74.616-77.205c-0.004-42.403,34.844-77.247,77.247-77.247
		c41.783,0,75.816,33.171,77.205,74.616c0.042,1.472,1.263,2.631,2.735,2.631h22.471c1.54,0,2.777-1.276,2.744-2.823
		c-1.506-56.788-48.004-102.366-105.155-102.366c-58.193,0-105.189,46.996-105.189,105.189c0,57.151,45.578,103.649,102.366,105.155
		c1.543,0.033,2.823-1.204,2.823-2.744v-22.471C154.824,233.292,153.661,232.071,152.193,232.029L152.193,232.029L152.193,232.029z
		 M154.824,94.012c-33.686,0-60.813,27.127-60.813,60.813c0,32.623,25.692,59.252,57.947,60.749c1.56,0.067,2.865-1.18,2.865-2.744
		v-17.836c0-1.397-1.146-2.627-2.543-2.728c-19.539-1.305-34.986-17.568-34.986-37.441c0-20.752,16.777-37.529,37.529-37.529
		c19.873,0,36.137,15.447,37.441,34.986c0.101,1.396,1.33,2.543,2.728,2.543h17.836c1.557,0,2.812-1.306,2.744-2.865
		C214.076,119.704,187.447,94.012,154.824,94.012L154.824,94.012L154.824,94.012z"/>
</g>
</svg>
