<?xml version="1.0" encoding="utf-8"?>
<!-- Generator: Adobe Illustrator 16.0.0, SVG Export Plug-In . SVG Version: 6.00 Build 0)  -->
<!DOCTYPE svg PUBLIC "-//W3C//DTD SVG 1.1//EN" "http://www.w3.org/Graphics/SVG/1.1/DTD/svg11.dtd">
<svg version="1.1" xmlns="http://www.w3.org/2000/svg" xmlns:xlink="http://www.w3.org/1999/xlink" x="0px" y="0px" width="308px"
	 height="308px" viewBox="0 0 308 308" enable-background="new 0 0 308 308" xml:space="preserve">
<g id="image_base">
</g>
<g id="drawing">
	<g>
		<circle fill="#7F7F7F" cx="154" cy="154" r="154"/>
		<g>
			<rect x="227.983" y="92.978" fill="#FFFFFF" width="40.979" height="13.021"/>
			<rect x="227.983" y="108.679" fill="#FFFFFF" width="40.979" height="13.023"/>
			<rect x="227.983" y="124.383" fill="#FFFFFF" width="40.979" height="13.022"/>
			<rect x="227.983" y="140.085" fill="#FFFFFF" width="40.979" height="13.021"/>
			<rect x="227.983" y="155.788" fill="#FFFFFF" width="40.979" height="13.022"/>
			<rect x="227.983" y="171.49" fill="#FFFFFF" width="40.979" height="13.023"/>
			<rect x="227.983" y="187.193" fill="#FFFFFF" width="40.979" height="13.022"/>
			<rect x="227.983" y="202.897" fill="#FFFFFF" width="40.979" height="13.021"/>
			<rect x="181.64" y="140.085" fill="#FFFFFF" width="40.981" height="13.021"/>
			<rect x="181.64" y="155.788" fill="#FFFFFF" width="40.981" height="13.022"/>
			<rect x="181.64" y="171.49" fill="#FFFFFF" width="40.981" height="13.023"/>
			<rect x="181.64" y="187.193" fill="#FFFFFF" width="40.981" height="13.022"/>
			<rect x="181.64" y="202.897" fill="#FFFFFF" width="40.981" height="13.021"/>
			<rect x="135.299" y="108.679" fill="#FFFFFF" width="40.979" height="13.023"/>
			<rect x="135.299" y="124.383" fill="#FFFFFF" width="40.979" height="13.022"/>
			<rect x="135.299" y="140.085" fill="#FFFFFF" width="40.979" height="13.021"/>
			<rect x="135.299" y="155.788" fill="#FFFFFF" width="40.979" height="13.022"/>
			<rect x="135.299" y="171.49" fill="#FFFFFF" width="40.979" height="13.023"/>
			<rect x="135.299" y="187.193" fill="#FFFFFF" width="40.979" height="13.022"/>
			<rect x="135.299" y="202.897" fill="#FFFFFF" width="40.979" height="13.021"/>
			<rect x="88.955" y="171.49" fill="#FFFFFF" width="40.981" height="13.023"/>
			<rect x="88.955" y="187.193" fill="#FFFFFF" width="40.981" height="13.022"/>
			<rect x="88.955" y="202.897" fill="#FFFFFF" width="40.981" height="13.021"/>
			<rect x="42.613" y="140.085" fill="#FFFFFF" width="40.981" height="13.021"/>
			<rect x="42.613" y="155.788" fill="#FFFFFF" width="40.981" height="13.022"/>
			<rect x="42.613" y="171.49" fill="#FFFFFF" width="40.981" height="13.023"/>
			<rect x="42.613" y="187.193" fill="#FFFFFF" width="40.981" height="13.022"/>
			<rect x="42.613" y="202.897" fill="#FFFFFF" width="40.981" height="13.021"/>
		</g>
	</g>
</g>
<g id="guides" display="none">
</g>
</svg>
