<svg xmlns="http://www.w3.org/2000/svg" width="36" height="36" viewBox="0 0 36 36">
  <g fill="none" fill-rule="evenodd">
    <!-- <path fill="#F44336" fill-rule="nonzero" d="M17.9764708,35.9529412 C27.9045923,35.9529412 35.9529462,27.9046015 35.9529462,17.9764708 C35.9529462,8.04833077 27.9045923,0 17.9764708,0 C8.04834,0 0,8.04833077 0,17.9764708 C0,27.9046015 8.04834,35.9529412 17.9764708,35.9529412 L17.9764708,35.9529412 L17.9764708,35.9529412 Z"/> -->
    <path fill="#7F7F7F" fill-rule="nonzero" d="M17.9764708,35.9529412 C27.9045923,35.9529412 35.9529462,27.9046015 35.9529462,17.9764708 C35.9529462,8.04833077 27.9045923,0 17.9764708,0 C8.04834,0 0,8.04833077 0,17.9764708 C0,27.9046015 8.04834,35.9529412 17.9764708,35.9529412 L17.9764708,35.9529412 L17.9764708,35.9529412 Z"/>
    <path fill="#FFF" fill-rule="nonzero" d="M17.765721,27.0847848 C12.9278379,26.922921 9.05559254,22.9501133 9.05549562,18.0728656 C9.05539869,13.1228402 13.1228264,9.05540792 18.0728495,9.05550023 C22.9500972,9.05561562 26.9229002,12.9278518 27.0847618,17.7657372 C27.0904848,17.9372564 27.2325695,18.0727064 27.4041695,18.0727064 L30.0273464,18.0727064 C30.2076925,18.0727064 30.351831,17.9236018 30.3471002,17.7432902 C30.1725233,11.1142387 24.7439541,5.79401562 18.0727872,5.79396946 C11.2798318,5.79394638 5.79392562,11.2798387 5.79395792,18.072801 C5.79402023,24.7439587 11.1142295,30.1725325 17.7433064,30.3470887 C17.9235856,30.3518541 18.0726902,30.2077064 18.0726902,30.0273625 L18.0726902,27.4041902 C18.0726902,27.2325764 17.9372402,27.0905079 17.765721,27.0847848 L17.765721,27.0847848 L17.765721,27.0847848 Z M18.0727872,10.9740695 C14.1407149,10.9740002 10.9739841,14.1406964 10.9740487,18.072801 C10.974111,21.8811902 13.9731925,24.9890864 17.7384464,25.1636102 C17.9205164,25.1720518 18.0726902,25.0261456 18.0726902,24.8439141 L18.0726902,22.7622533 C18.0726902,22.5986333 17.9391902,22.4544233 17.7759233,22.4435195 C15.4949887,22.2909302 13.6920925,20.3924587 13.6919956,18.0728979 C13.691901,15.6502779 15.6502618,13.6919148 18.0728818,13.6920118 C20.3924425,13.6921087 22.2909141,15.4950025 22.4435033,17.7759372 C22.4544072,17.9391741 22.5986195,18.0727064 22.7622395,18.0727064 L24.8439002,18.0727064 C25.0261387,18.0727064 25.172031,17.9205325 25.1635848,17.7384625 C24.9890772,13.9732064 21.8811764,10.9741156 18.0727872,10.9740695 L18.0727872,10.9740695 L18.0727872,10.9740695 Z"/>
  </g>
</svg>