<?xml version="1.0" encoding="utf-8"?>
<!-- Generator: Adobe Illustrator 16.0.0, SVG Export Plug-In . SVG Version: 6.00 Build 0)  -->
<!DOCTYPE svg PUBLIC "-//W3C//DTD SVG 1.1//EN" "http://www.w3.org/Graphics/SVG/1.1/DTD/svg11.dtd">
<svg version="1.1" xmlns="http://www.w3.org/2000/svg" xmlns:xlink="http://www.w3.org/1999/xlink" x="0px" y="0px" width="308px"
	 height="308px" viewBox="0 0 308 308" enable-background="new 0 0 308 308" xml:space="preserve">
<g id="image_base">
</g>
<g id="drawing">
	<g>
		<path fill-rule="evenodd" clip-rule="evenodd" fill="#7F7F7F" d="M153.923-0.018C240.481,0.154,308.085,70.479,308,154.115
			c-0.087,84.844-69.147,153.891-154.042,153.902C70.484,308.028,0.125,240.571,0,154.031C-0.122,69.066,68.962,0.022,153.923-0.018
			z M126.619,81.466c-16.171,0.003-33.587,1.623-52.673,5.606c-5.636,1.177-11.244,2.603-16.74,4.312
			c-5.694,1.771-9.704,7.635-9.688,13.353c0.016,6.267,3.942,11.788,9.778,13.787c3.24,1.11,6.437,0.89,9.681-0.061
			c13.277-3.889,26.864-6.118,40.625-7.269c14.806-1.237,29.623-1.308,44.453-0.22c15.781,1.157,31.37,3.45,46.725,7.29
			c16.083,4.021,31.58,9.54,45.922,18.007c0.96,0.567,1.986,1.069,3.042,1.422c5.421,1.809,10.358,0.747,14.522-3.054
			c4.121-3.762,5.478-8.567,4.172-14.012c-1.056-4.407-3.912-7.402-7.769-9.623c-13.754-7.921-28.368-13.78-43.578-18.197
			C187.796,84.88,159.87,81.569,126.619,81.466z M133.242,134.441c-23.378-0.022-41.329,2.02-58.977,6.521
			c-2.868,0.731-5.767,1.446-8.518,2.516c-4.266,1.657-7,4.858-7.638,9.438c-0.647,4.647,1.008,8.551,4.789,11.387
			c3.479,2.609,7.367,2.861,11.437,1.622c13.723-4.177,27.803-6.346,42.086-7.101c17.926-0.945,35.733,0.231,53.354,3.784
			c19.777,3.987,38.613,10.515,56.059,20.797c1.169,0.688,2.371,1.39,3.647,1.814c4.294,1.43,8.284,0.711,11.667-2.308
			c3.427-3.058,4.713-6.921,3.805-11.504c-0.759-3.828-3.042-6.415-6.286-8.368c-8.05-4.846-16.438-9.008-25.15-12.514
			C186.101,139.494,157.534,134.547,133.242,134.441z M123.181,184.678c-11.561-0.003-29.58,2.295-47.427,6.092
			c-1.874,0.398-3.796,0.762-5.548,1.496c-4.024,1.688-6.333,5.79-5.794,9.845c0.581,4.375,3.691,7.805,8.062,8.368
			c1.845,0.239,3.838-0.091,5.681-0.521c13.621-3.173,27.418-5.135,41.369-5.871c14.62-0.771,29.171-0.041,43.582,2.766
			c16.5,3.215,32.13,8.738,46.6,17.385c0.893,0.534,1.793,1.07,2.737,1.502c4.417,2.021,9.466,0.566,12.067-3.439
			c2.642-4.07,1.846-9.452-1.918-12.602c-0.855-0.716-1.822-1.311-2.782-1.886c-7.234-4.333-14.783-8.025-22.633-11.107
			C175.549,188.216,153.047,184.638,123.181,184.678z"/>
		<path fill-rule="evenodd" clip-rule="evenodd" fill="#FFFFFF" d="M126.619,81.466c33.251,0.104,61.178,3.414,88.471,11.342
			c15.21,4.417,29.824,10.276,43.578,18.197c3.856,2.221,6.712,5.216,7.769,9.623c1.306,5.444-0.051,10.25-4.172,14.012
			c-4.165,3.801-9.102,4.862-14.522,3.054c-1.056-0.353-2.081-0.854-3.042-1.422c-14.342-8.467-29.839-13.985-45.922-18.007
			c-15.354-3.84-30.944-6.133-46.725-7.29c-14.83-1.088-29.647-1.018-44.453,0.22c-13.761,1.15-27.349,3.38-40.625,7.269
			c-3.244,0.95-6.441,1.171-9.681,0.061c-5.836-1.999-9.762-7.521-9.778-13.787c-0.015-5.718,3.994-11.581,9.688-13.353
			c5.497-1.709,11.104-3.135,16.74-4.312C93.032,83.089,110.447,81.469,126.619,81.466z"/>
		<path fill-rule="evenodd" clip-rule="evenodd" fill="#FFFFFF" d="M133.242,134.441c24.292,0.105,52.859,5.053,80.275,16.084
			c8.712,3.506,17.1,7.668,25.15,12.514c3.244,1.953,5.527,4.54,6.286,8.368c0.908,4.583-0.377,8.446-3.805,11.504
			c-3.382,3.019-7.373,3.737-11.667,2.308c-1.276-0.425-2.478-1.126-3.647-1.814c-17.445-10.282-36.282-16.81-56.059-20.797
			c-17.621-3.553-35.428-4.729-53.354-3.784c-14.284,0.755-28.364,2.924-42.086,7.101c-4.07,1.239-7.958,0.987-11.437-1.622
			c-3.781-2.836-5.436-6.739-4.789-11.387c0.638-4.579,3.372-7.78,7.638-9.438c2.75-1.069,5.649-1.784,8.518-2.516
			C91.913,136.461,109.864,134.419,133.242,134.441z"/>
		<path fill-rule="evenodd" clip-rule="evenodd" fill="#FFFFFF" d="M123.181,184.678c29.866-0.04,52.369,3.538,73.994,12.027
			c7.85,3.082,15.398,6.774,22.633,11.107c0.96,0.575,1.927,1.17,2.782,1.886c3.764,3.149,4.561,8.531,1.918,12.602
			c-2.601,4.006-7.65,5.461-12.067,3.439c-0.944-0.432-1.845-0.968-2.737-1.502c-14.47-8.646-30.1-14.17-46.6-17.385
			c-14.411-2.807-28.962-3.537-43.582-2.766c-13.95,0.736-27.748,2.698-41.369,5.871c-1.842,0.43-3.836,0.76-5.681,0.521
			c-4.37-0.563-7.481-3.993-8.062-8.368c-0.539-4.055,1.77-8.157,5.794-9.845c1.752-0.734,3.675-1.098,5.548-1.496
			C93.601,186.973,111.62,184.675,123.181,184.678z"/>
	</g>
</g>
<g id="guides" display="none">
</g>
</svg>
