<?xml version="1.0" encoding="utf-8"?>
<!-- Generator: Adobe Illustrator 16.0.0, SVG Export Plug-In . SVG Version: 6.00 Build 0)  -->
<!DOCTYPE svg PUBLIC "-//W3C//DTD SVG 1.1//EN" "http://www.w3.org/Graphics/SVG/1.1/DTD/svg11.dtd">
<svg version="1.1" id="Layer_1" xmlns="http://www.w3.org/2000/svg" xmlns:xlink="http://www.w3.org/1999/xlink" x="0px" y="0px"
	 width="126px" height="126px" viewBox="0 0 126 126" enable-background="new 0 0 126 126" xml:space="preserve">
<circle fill-rule="evenodd" clip-rule="evenodd" fill="#797979" cx="63" cy="63" r="63"/>
<path fill="#FEFEFE" d="M104.084,70.47c-2.69-3.742-6.347-6.468-9.841-9.39c-2.638-2.206-5.405-4.47-6.275-8.077
	c-0.891-3.686-1.635-7.406-2.508-11.096c-1.059-4.472-2.625-8.786-5.895-12.109c-4.592-4.669-10.226-7.011-16.888-6.868
	c-6.977,0.148-12.671,2.787-17.214,8.084c-4.64,5.408-6.713,11.702-6.719,18.74c-0.001,2.147-0.504,4.081-1.681,5.902
	c-2.571,3.979-6.554,6.43-9.996,9.472c-2.439,2.155-4.828,4.383-6.098,7.509c-0.708,1.742-0.188,2.822,1.482,3.493
	c1.707,0.687,2.959-0.189,4.246-0.99c2.242-1.392,4.565-2.608,7.111-3.634c-0.426,7.062,1.682,13.174,5.875,18.709
	c-3.893,1.627-6.877,3.952-7.892,8.229c-0.663,2.793,0.613,4.645,3.43,4.521c9.188-0.4,18.435,0.967,27.57-0.905
	c2.186-0.448,4.056,0.925,6.204,0.887c7.682-0.136,15.365-0.118,23.049-0.153c2.098-0.01,2.656-0.448,2.878-2.476
	c0.149-1.354-0.078-2.677-0.662-3.918c-1.29-2.735-3.49-4.491-6.198-5.669c-1.03-0.447-1.044-0.852-0.372-1.782
	c2.833-3.918,4.435-8.311,4.83-13.158c0.116-1.414,0.135-2.816-0.069-4.355c1.636,0.493,2.903,1.236,4.203,1.934
	c1.688,0.905,3.083,2.307,4.95,2.893c2.035,0.638,3.705-0.604,3.73-2.695C105.35,72.337,104.735,71.376,104.084,70.47z
	 M74.264,40.56c2.036,0.715,3.682,1.883,4.65,3.815c1.8,3.592,0.025,7.79-3.949,9.372c-0.774,0.309-1.558,0.681-2.441,0.678
	c-1.056-0.005-1.978-0.006-2.873-0.907c-0.919-0.925-2.285-1.315-3.622-1.551c-0.481-0.085-0.968-0.203-1.41-0.4
	c-0.173-0.077-0.229-0.413-0.339-0.63c0.17-0.061,0.34-0.168,0.51-0.172c2.094-0.047,2.55-2.129,2.343-4.698
	c-0.11-1.374-1.305-2.28-2.962-2.333C65.904,40.661,70.518,39.242,74.264,40.56z M64.412,44.48c1.026-0.132,1.026-0.132,1.66,0.63
	c1.103,1.786-0.508,2.279-1.023,2.202C64.625,47.249,63.466,45.646,64.412,44.48z M49.286,38.819
	c3.473-4.375,9.558-2.321,11.371,1.661c0.455,1.003,1.198,1.976,0.875,3.337c-1.304-0.896-2.488-0.725-3.504,0.334
	c-1.391,1.451-1.174,3.242-0.743,4.934s1.767,2.404,3.559,2.598c-1.317,0.523-2.634,1.05-3.952,1.569
	c-0.843,0.331-1.518,0.925-1.626,1.794c-0.181,1.438-1.079,1.351-2.041,1.123c-2.887-0.682-4.871-2.59-5.819-5.244
	C45.875,46.641,46.328,42.547,49.286,38.819z M61.262,45.163c-0.005,1.629-2.213,2.566-2.9,0.566
	c-0.192-0.561,0.646-1.584,1.25-1.688C60.391,43.907,60.934,44.341,61.262,45.163z M84.895,88.853
	c-0.184,0.494-0.061,0.686-0.792,0.521c-4.78-1.062-9.387-0.464-13.549,2.158c-2.741,1.725-4.953,3.963-4.958,7.586
	c-0.003,1.205-0.727,1.861-1.944,1.711c-0.969-0.121-2.222,0.272-2.375-1.456c-0.521-5.873-5.606-8.934-10.171-9.86
	c-2.896-0.588-5.723-0.896-8.601,0c-0.697,0.219-0.912-0.304-1.053-0.945c-0.22-1.01-0.698-1.971-0.859-2.985
	c-0.347-2.174-0.756-4.352-0.666-5.795c0.073-7.252,1.763-13.229,5.601-18.484c1.205-1.649,2.545-3.24,4.295-4.407
	c0.423-0.283,0.71-0.467,1.197-0.149c1.007,0.654,2.144,0.872,3.323,0.715c0.953-0.128,1.464,0.398,2.001,1.061
	c1.725,2.123,3.589,4.101,5.891,5.635c1.06,0.705,1.901,0.662,2.708-0.338c1.691-2.103,3.842-3.817,5.244-6.168
	c0.05-0.084,0.197-0.143,0.202-0.218c0.105-2.359,2.224-1.986,3.494-2.194c1.216-0.198,2.252,1.122,3.201,1.974
	c5.024,4.507,7.963,10.131,9.019,16.806C86.901,79.081,86.683,84.014,84.895,88.853z"/>
</svg>
