<?xml version="1.0" encoding="utf-8"?>
<!-- Generator: Adobe Illustrator 16.0.0, SVG Export Plug-In . SVG Version: 6.00 Build 0)  -->
<!DOCTYPE svg PUBLIC "-//W3C//DTD SVG 1.1//EN" "http://www.w3.org/Graphics/SVG/1.1/DTD/svg11.dtd">
<svg version="1.1" id="Layer_1" xmlns="http://www.w3.org/2000/svg" xmlns:xlink="http://www.w3.org/1999/xlink" x="0px" y="0px"
	 width="126px" height="126px" viewBox="0 0 126 126" enable-background="new 0 0 126 126" xml:space="preserve">
<circle fill-rule="evenodd" clip-rule="evenodd" fill="#797979" cx="63" cy="63.001" r="63"/>
<path fill-rule="evenodd" clip-rule="evenodd" fill="#FFFFFF" d="M46.402,83.04c-3.695,2.736-7.53,4.634-11.727,5.873
	c-4.212,1.246-8.534,1.238-12.866,1.296c0.137,0.209,0.259,0.315,0.397,0.396c5.076,2.981,10.455,5.159,16.263,6.266
	c3.676,0.7,7.376,0.628,11.083,0.627c8.094-0.003,15.653-2.094,22.563-6.228c12.889-7.714,20.376-19.256,23.198-33.87
	c0.616-3.194,0.628-6.507,0.882-9.769c0.046-0.588,0.226-0.982,0.706-1.349c2.404-1.828,4.473-4.004,6.358-6.354
	c0.381-0.475,0.715-0.988,1.07-1.482c-0.041-0.057-0.081-0.113-0.122-0.169c-2.815,0.9-5.589,1.981-8.594,2.153
	c2.95-2.41,5.306-5.199,6.655-9.009c-0.791,0.35-1.369,0.636-1.969,0.866c-2.419,0.931-4.84,1.852-7.268,2.761
	c-1.039,0.389-1.877,0.127-2.722-0.644c-2.736-2.501-5.959-3.951-9.689-4.258c-6.448-0.529-11.574,1.868-15.472,6.958
	c-2.943,3.842-3.589,8.258-3.068,12.936c0.03,0.279,0.052,0.561,0.076,0.843c-0.182,0.027-0.262,0.059-0.338,0.05
	c-1.265-0.129-2.536-0.218-3.793-0.403C47.941,49.03,39.1,44.93,31.696,37.854c-1.562-1.491-3.092-3.016-4.644-4.533
	c-1.27,1.744-2.238,5.41-2.212,8.417c0.052,5.822,2.501,10.459,7.068,14.068c-2.551-0.127-4.91-0.777-7.208-1.999
	c-0.117,3.161,0.67,5.893,2.105,8.477c2.434,4.375,6.15,7.075,10.918,8.493c-2.291,0.67-4.621,0.408-7.104,0.39
	C33.404,78.432,38.697,82.153,46.402,83.04z"/>
</svg>
