<?xml version="1.0" encoding="utf-8"?>
<!-- Generator: Adobe Illustrator 16.0.0, SVG Export Plug-In . SVG Version: 6.00 Build 0)  -->
<!DOCTYPE svg PUBLIC "-//W3C//DTD SVG 1.1//EN" "http://www.w3.org/Graphics/SVG/1.1/DTD/svg11.dtd">
<svg version="1.1" id="Layer_1" xmlns="http://www.w3.org/2000/svg" xmlns:xlink="http://www.w3.org/1999/xlink" x="0px" y="0px"
	 width="164.676px" height="137.005px" viewBox="0 0 164.676 137.005" enable-background="new 0 0 164.676 137.005"
	 xml:space="preserve">
<path fill-rule="evenodd" clip-rule="evenodd" fill="#70E500" d="M64.877,137.004c-5.936,0.076-9.371-4.443-13.249-7.714
	c-16.699-14.083-32.582-29.08-48.472-44.067c-4.373-4.124-3.991-10.052-0.147-14.074c6.046-6.328,11.868-12.842,17.503-19.539
	c3.375-4.012,9.435-3.594,13.934,0.457c8.084,7.279,16.426,14.283,24.29,21.791c3.012,2.875,4.78,1.867,6.892-0.461
	c6.327-6.976,12.669-13.938,18.917-20.983c6.909-7.791,13.482-15.896,20.643-23.445c7.071-7.456,13.809-15.188,20.514-22.958
	c6.432-7.453,10.631-7.959,17.731-1.604c6.309,5.646,12.464,11.467,18.593,17.309c3.539,3.373,3.556,8.102-0.075,12.324
	c-10.964,12.75-22.101,25.353-33.05,38.115c-16.92,19.725-34.39,38.946-52.278,57.795C71.906,134.918,68.829,137.02,64.877,137.004z
	"/>
</svg>
