<?xml version="1.0" encoding="utf-8"?>
<!-- Generator: Adobe Illustrator 16.0.0, SVG Export Plug-In . SVG Version: 6.00 Build 0)  -->
<!DOCTYPE svg PUBLIC "-//W3C//DTD SVG 1.1//EN" "http://www.w3.org/Graphics/SVG/1.1/DTD/svg11.dtd">
<svg version="1.1" id="Layer_1" xmlns="http://www.w3.org/2000/svg" xmlns:xlink="http://www.w3.org/1999/xlink" x="0px" y="0px"
	 width="126px" height="126px" viewBox="0 0 126 126" enable-background="new 0 0 126 126" xml:space="preserve">
<circle fill-rule="evenodd" clip-rule="evenodd" fill="#797979" cx="63.001" cy="63" r="63"/>
<g>
	<path fill-rule="evenodd" clip-rule="evenodd" fill="#FFFFFF" d="M95.048,43.845c-0.069-0.106-0.121-0.19-0.178-0.271
		c-1.618-2.291-3.643-4.136-6.088-5.513c-3.086-1.736-6.425-2.521-9.941-2.641c-1.517-0.051-3.006,0.144-4.478,0.492
		c-1.77,0.421-3.466,1.061-5.159,1.711c-1.251,0.48-2.508,0.95-3.771,1.393c-1.221,0.428-2.464,0.442-3.695,0.039
		c-0.98-0.322-1.955-0.664-2.919-1.031c-1.427-0.547-2.837-1.137-4.3-1.582c-1.277-0.387-2.572-0.684-3.91-0.75
		c-1.712-0.084-3.404,0.092-5.071,0.493c-4.496,1.085-8.187,3.464-11.136,7.005c-2.218,2.664-3.673,5.722-4.575,9.054
		c-1.026,3.79-1.239,7.65-0.968,11.549c0.147,2.109,0.456,4.195,0.893,6.264c1.093,5.174,2.893,10.09,5.393,14.75
		c1.334,2.49,2.944,4.797,4.619,7.061c1.101,1.486,2.271,2.916,3.61,4.197c1.119,1.07,2.331,2.012,3.745,2.666
		c1.166,0.539,2.384,0.826,3.674,0.793c1.31-0.033,2.583-0.262,3.809-0.709c1.053-0.385,2.086-0.82,3.12-1.254
		c1.774-0.744,3.595-1.297,5.527-1.438c1.936-0.143,3.843-0.012,5.714,0.537c1.206,0.354,2.352,0.861,3.502,1.357
		c0.889,0.383,1.783,0.75,2.723,0.994c1.749,0.457,3.513,0.566,5.289,0.172c1.542-0.344,2.9-1.07,4.144-2.025
		c1.211-0.93,2.256-2.029,3.228-3.199c1.371-1.654,2.591-3.418,3.781-5.201c2.364-3.541,4.204-7.338,5.527-11.387
		c0.036-0.111,0.063-0.227,0.096-0.344c-0.082-0.039-0.141-0.066-0.198-0.098c-0.766-0.41-1.556-0.777-2.288-1.238
		c-3.018-1.9-5.386-4.406-6.957-7.625c-1.287-2.639-1.835-5.441-1.828-8.367c0.004-2.144,0.353-4.227,1.117-6.23
		c1.511-3.966,4.13-7.04,7.622-9.405C94.818,43.998,94.919,43.931,95.048,43.845z"/>
	<path fill-rule="evenodd" clip-rule="evenodd" fill="#FFFFFF" d="M79.756,15.051c-0.093,0-0.158-0.004-0.222,0
		c-0.846,0.063-1.685,0.182-2.501,0.412c-5.608,1.586-9.803,4.912-12.412,10.16c-1.114,2.241-1.794,4.604-1.823,7.125
		c-0.007,0.581,0.005,1.163,0.113,1.758c0.172,0.015,0.335,0.037,0.496,0.042c1.264,0.035,2.501-0.133,3.713-0.486
		c2.989-0.871,5.523-2.499,7.604-4.791c3.019-3.328,4.792-7.226,5.104-11.743C79.885,16.715,79.856,15.905,79.756,15.051z"/>
</g>
</svg>
