<?xml version="1.0" encoding="utf-8"?>
<!-- Generator: Adobe Illustrator 16.0.0, SVG Export Plug-In . SVG Version: 6.00 Build 0)  -->
<!DOCTYPE svg PUBLIC "-//W3C//DTD SVG 1.1//EN" "http://www.w3.org/Graphics/SVG/1.1/DTD/svg11.dtd">
<svg version="1.1" id="Layer_1" xmlns="http://www.w3.org/2000/svg" xmlns:xlink="http://www.w3.org/1999/xlink" x="0px" y="0px"
	 width="126px" height="126px" viewBox="0 0 126 126" enable-background="new 0 0 126 126" xml:space="preserve">
<circle fill-rule="evenodd" clip-rule="evenodd" fill="#797979" cx="63" cy="63.001" r="63"/>
<g>
	<path fill-rule="evenodd" clip-rule="evenodd" fill="#FFFFFF" d="M59.487,64.53c0,0.938-0.003,1.783,0.001,2.629
		c0.021,8.533,0.07,17.068,0.026,25.602c-0.006,1.166,0.575,1.406,1.418,1.525c5.231,0.744,10.464,1.459,15.696,2.193
		c7.09,0.994,14.179,1.992,21.267,2.998c1.078,0.152,1.707,0.012,1.702-1.363c-0.045-10.629-0.038-21.26-0.005-31.891
		c0.005-1.156-0.388-1.471-1.518-1.475c-10.319-0.041-20.64-0.143-30.958-0.217C64.672,64.515,62.227,64.53,59.487,64.53z"/>
	<path fill-rule="evenodd" clip-rule="evenodd" fill="#FFFFFF" d="M59.573,61.409c0.534,0.043,0.785,0.084,1.036,0.082
		c12.568-0.076,25.14-0.17,37.708-0.217c1.102-0.004,1.265-0.508,1.263-1.406c-0.01-10.682-0.019-21.362,0.02-32.043
		c0.004-1.262-0.531-1.477-1.593-1.294c-1.804,0.31-3.607,0.608-5.421,0.853c-4.177,0.564-8.364,1.062-12.541,1.644
		c-6.136,0.855-12.264,1.781-18.399,2.635c-2.106,0.293-2.119,0.236-2.116,2.384c0.013,8.585,0.028,17.17,0.044,25.756
		C59.573,60.3,59.573,60.796,59.573,61.409z"/>
	<path fill-rule="evenodd" clip-rule="evenodd" fill="#FFFFFF" d="M56.587,32.396c-3.188,0.426-6.19,0.818-9.191,1.23
		c-6.433,0.885-12.862,1.799-19.3,2.65c-1.218,0.16-1.706,0.594-1.695,1.912c0.059,7.102,0.016,14.204,0.021,21.307
		c0,0.741,0.092,1.483,0.127,2.001c10.143,0,20.069,0,30.038,0C56.587,51.728,56.587,42.232,56.587,32.396z"/>
	<path fill-rule="evenodd" clip-rule="evenodd" fill="#FFFFFF" d="M26.529,64.433c0,8.297,0,16.605,0,25.004
		c10.037,1.398,19.972,2.781,29.996,4.178c0-9.826,0-19.396,0-29.182C46.521,64.433,36.627,64.433,26.529,64.433z"/>
</g>
</svg>
