<?xml version="1.0" encoding="utf-8"?>
<!-- Generator: Adobe Illustrator 16.0.0, SVG Export Plug-In . SVG Version: 6.00 Build 0)  -->
<!DOCTYPE svg PUBLIC "-//W3C//DTD SVG 1.1//EN" "http://www.w3.org/Graphics/SVG/1.1/DTD/svg11.dtd">
<svg version="1.1" id="Layer_1" xmlns="http://www.w3.org/2000/svg" xmlns:xlink="http://www.w3.org/1999/xlink" x="0px" y="0px"
	 width="126px" height="126px" viewBox="0 0 126 126" enable-background="new 0 0 126 126" xml:space="preserve">
<g>
	<circle fill-rule="evenodd" clip-rule="evenodd" fill="#FFC000" cx="63.001" cy="63" r="63"/>
	<path fill-rule="evenodd" clip-rule="evenodd" fill="#FFFFFF" d="M28.177,93.289c23.27,0,46.391,0,69.467,0
		c0.08-0.323,0.141-0.461,0.141-0.6c0.01-16.448,0-32.896,0.041-49.344c0.004-1.388-0.58-1.798-1.824-1.784
		c-2.447,0.028-4.896,0.009-7.41,0.009c0-2.576-0.061-4.769,0.02-6.956c0.055-1.452-0.535-1.905-1.938-1.892
		c-5.41,0.055-10.82,0.079-16.227-0.011c-1.729-0.029-2.123,0.69-2.057,2.228c0.094,2.157,0.023,4.322,0.023,6.509
		c-3.936,0-7.557,0-11.404,0c0-2.28-0.09-4.458,0.027-6.624c0.092-1.681-0.586-2.13-2.174-2.108
		c-5.334,0.074-10.672,0.068-16.01,0.003c-1.506-0.019-2.113,0.452-2.047,2.009c0.098,2.233,0.025,4.476,0.025,6.874
		c-3.043,0-5.793,0-8.654,0C28.177,58.843,28.177,75.917,28.177,93.289z"/>
</g>
</svg>
