<?xml version="1.0" encoding="utf-8"?>
<!-- Generator: Adobe Illustrator 16.0.0, SVG Export Plug-In . SVG Version: 6.00 Build 0)  -->
<!DOCTYPE svg PUBLIC "-//W3C//DTD SVG 1.1//EN" "http://www.w3.org/Graphics/SVG/1.1/DTD/svg11.dtd">
<svg version="1.1" id="Layer_1" xmlns="http://www.w3.org/2000/svg" xmlns:xlink="http://www.w3.org/1999/xlink" x="0px" y="0px"
	 width="133.018px" height="132.864px" viewBox="0 0 133.018 132.864" enable-background="new 0 0 133.018 132.864"
	 xml:space="preserve">
<path fill-rule="evenodd" clip-rule="evenodd" fill="#FF0000" d="M33.218,0.64c3.747-0.287,6.049,1.83,8.322,4.061
	c6.994,6.861,14.117,13.597,20.961,20.604c2.501,2.561,4.134,2.462,6.762,0.161c7.899-6.912,15.114-14.513,22.491-21.941
	c4.848-4.881,10.031-4.493,14.592-0.066c6.438,6.251,13.063,12.309,19.494,18.566c6.004,5.843,5.976,9.508,0.172,15.314
	c-7.422,7.426-14.749,14.949-22.311,22.229c-3.319,3.195-3.561,5.797-0.247,9.148c8.761,8.859,17.347,17.891,25.981,26.873
	c4.717,4.906,4.92,9.979-0.259,14.432c-6.825,5.867-12.911,12.461-19.479,18.566c-6.309,5.863-9.671,5.715-15.775-0.545
	c-7.904-8.104-15.662-16.349-23.54-24.477c-3.907-4.029-5.026-3.861-8.681,0.152c-7.805,8.571-15.637,17.119-23.617,25.526
	c-4.768,5.022-8.655,4.538-13.997,0.188c-7.243-5.898-13.199-13.108-20.421-19.009c-4.841-3.955-4.771-9.68-0.489-14.246
	c8.819-9.404,17.532-18.909,26.358-28.307c2.615-2.784,2.222-5.063-0.394-7.582c-7.554-7.275-14.933-14.734-22.52-21.975
	c-6.184-5.9-6.551-10.645-0.206-16.238C13.026,16.248,19.26,10.06,25.51,3.874C27.701,1.706,30.198,0.226,33.218,0.64z"/>
</svg>
