<?xml version="1.0" encoding="utf-8"?>
<!-- Generator: Adobe Illustrator 16.0.0, SVG Export Plug-In . SVG Version: 6.00 Build 0)  -->
<!DOCTYPE svg PUBLIC "-//W3C//DTD SVG 1.1//EN" "http://www.w3.org/Graphics/SVG/1.1/DTD/svg11.dtd">
<svg version="1.1" id="Layer_1" xmlns="http://www.w3.org/2000/svg" xmlns:xlink="http://www.w3.org/1999/xlink" x="0px" y="0px"
	 width="126px" height="126px" viewBox="0 0 126 126" enable-background="new 0 0 126 126" xml:space="preserve">
<circle fill-rule="evenodd" clip-rule="evenodd" fill="#797979" cx="63.001" cy="63" r="63"/>
<g>
	<path fill-rule="evenodd" clip-rule="evenodd" fill="#FFFFFF" d="M24.589,85.515c0.08-0.517,0.139-1.038,0.245-1.551
		c0.916-4.447,3.451-7.68,7.379-9.893c3.866-2.177,8.013-3.408,12.416-3.821c1.671-0.155,3.345-0.29,5.017-0.436
		c0.153-0.014,0.305-0.036,0.441-0.053c-0.615-1.032-1.253-2.026-1.816-3.061c-0.993-1.823-1.134-3.734-0.456-5.7
		c0.165-0.481,0.337-0.96,0.521-1.484c-0.852,0.045-1.657,0.112-2.464,0.125c-3.805,0.067-7.433-0.607-10.449-3.083
		c-7.349-6.035-7.302-14.351-3.646-20.449c2.83-4.721,6.999-7.646,12.319-8.91c2.541-0.604,5.143-0.854,7.758-0.859
		c6.272-0.011,12.546-0.003,18.819-0.002c0.125,0,0.249,0.011,0.48,0.021c-0.186,0.131-0.289,0.215-0.402,0.281
		c-1.709,1.005-3.416,2.013-5.134,3.003c-0.209,0.12-0.478,0.184-0.719,0.187c-1.601,0.018-3.202,0.009-4.801,0.009
		c-0.155,0-0.309,0-0.59,0c0.426,0.34,0.772,0.582,1.079,0.866c3.13,2.914,5.089,6.406,5.322,10.758
		c0.119,2.207-0.069,4.374-0.706,6.497c-0.733,2.439-2.281,4.342-4.018,6.112c-0.707,0.718-1.534,1.319-2.212,2.06
		c-0.806,0.88-1.579,1.808-2.239,2.799c-0.828,1.249-0.868,3.44,0.389,4.926c1.318,1.561,2.939,2.752,4.482,4.041
		c1.738,1.451,3.324,3.045,4.787,4.771c1.415,1.671,2.213,3.608,2.601,5.739c0.563,3.099,0.355,6.123-0.945,9.017
		c-1.644,3.647-4.306,6.399-7.687,8.47c-3.207,1.965-6.758,2.923-10.45,3.413c-3.634,0.484-7.271,0.494-10.902-0.07
		c-4.147-0.645-7.876-2.158-10.874-5.208c-1.984-2.019-3.277-4.357-3.469-7.23c-0.007-0.109-0.052-0.216-0.078-0.323
		C24.589,86.156,24.589,85.835,24.589,85.515z M49.562,95.62c0.679-0.041,1.352-0.061,2.02-0.128
		c2.39-0.243,4.695-0.771,6.794-2.011c6.118-3.612,5.928-11.637,1.578-15.325c-2.108-1.788-4.329-3.441-6.484-5.176
		c-0.451-0.364-0.939-0.492-1.497-0.519c-2.944-0.137-5.843,0.164-8.702,0.871c-2.261,0.559-4.456,1.264-6.388,2.626
		c-4.105,2.897-5.327,8.524-2.773,12.848c1.114,1.886,2.747,3.237,4.604,4.323C42.067,95.088,45.771,95.564,49.562,95.62z
		 M57.859,47.334c-0.039-3.099-0.748-6.45-2.101-9.651c-0.82-1.939-1.771-3.794-3.26-5.33c-3.301-3.409-8.359-3.737-11.812-0.709
		c-1.961,1.722-2.779,4.025-3.043,6.539c-0.335,3.184,0.267,6.243,1.42,9.205c0.97,2.491,2.192,4.827,4.128,6.737
		c2.309,2.277,4.999,3.361,8.244,2.675c3.238-0.686,5.397-2.56,6.054-5.89C57.72,49.74,57.742,48.529,57.859,47.334z"/>
	<path fill-rule="evenodd" clip-rule="evenodd" fill="#FFFFFF" d="M101.413,62.276c-3.232,0.005-6.465,0.011-9.697,0.016
		c-0.188,0.001-0.378,0-0.625,0c0,3.362,0,6.682,0,10.036c-1.998,0-3.938,0-5.936,0c0-3.339,0-6.657,0-10.036
		c-0.244,0-0.43,0-0.617,0c-2.976,0-5.952-0.009-8.93,0.01c-0.454,0.003-0.619-0.121-0.614-0.585c0.02-1.774,0.008-3.55,0.008-5.374
		c3.38,0,6.731,0,10.138,0c0-3.449,0-6.851,0-10.289c1.992,0,3.933,0,5.928,0c0,3.411,0,6.812,0,10.269c0.227,0,0.397,0,0.567,0
		c3.024,0,6.048-0.003,9.073,0.003c0.234,0.001,0.47,0.062,0.705,0.093C101.413,58.371,101.413,60.324,101.413,62.276z"/>
</g>
</svg>
