<?xml version="1.0" encoding="utf-8"?>
<!-- Generator: Adobe Illustrator 16.0.0, SVG Export Plug-In . SVG Version: 6.00 Build 0)  -->
<!DOCTYPE svg PUBLIC "-//W3C//DTD SVG 1.1//EN" "http://www.w3.org/Graphics/SVG/1.1/DTD/svg11.dtd">
<svg version="1.1" id="Layer_1" xmlns="http://www.w3.org/2000/svg" xmlns:xlink="http://www.w3.org/1999/xlink" x="0px" y="0px"
	 width="126px" height="126px" viewBox="0 0 126 126" enable-background="new 0 0 126 126" xml:space="preserve">
<g>
	<circle fill-rule="evenodd" clip-rule="evenodd" fill="#FFC000" cx="63" cy="63" r="63"/>
	<path fill-rule="evenodd" clip-rule="evenodd" fill="#FFFFFF" d="M64.541,103.597c3.129,0.201,4.121-1.301,4.332-4.329
		c0.492-7.066,0.551-14.312,2.281-21.104c2.381-9.358,10.475-14.731,20.863-15.155c0,2.236-0.119,4.279,0.033,6.303
		c0.178,2.383,1.447,3.063,3.314,1.42c4.357-3.83,8.613-7.775,12.922-11.661c1.518-1.37,1.383-2.642-0.082-3.961
		c-4.223-3.802-8.393-7.662-12.664-11.406c-0.615-0.54-1.926-1.018-2.469-0.718c-0.615,0.34-0.941,1.574-1.008,2.448
		c-0.145,1.907-0.045,3.833-0.045,5.911c-8.561,0.832-16.334,3.057-23.018,9.289c0-7.259,0-13.83,0-20.896
		c1.984,0,3.996,0.121,5.984-0.059c0.818-0.074,1.852-0.624,2.266-1.284c0.258-0.411-0.279-1.599-0.775-2.16
		c-3.764-4.255-7.615-8.433-11.416-12.656c-0.686-0.763-1.365-1.184-2.061-1.193l0,0l0,0l0,0l0,0
		c-0.695,0.009-1.375,0.43-2.061,1.193c-3.801,4.223-7.652,8.4-11.416,12.656c-0.496,0.561-1.033,1.749-0.775,2.16
		c0.414,0.661,1.447,1.21,2.268,1.284c1.986,0.18,3.998,0.059,5.984,0.059c0,7.066,0,13.637,0,20.896
		c-6.684-6.232-14.459-8.457-23.02-9.289c0-2.078,0.1-4.003-0.045-5.911c-0.066-0.874-0.393-2.108-1.007-2.448
		c-0.542-0.3-1.854,0.178-2.47,0.718c-4.271,3.744-8.441,7.604-12.664,11.406c-1.465,1.319-1.6,2.592-0.082,3.961
		c4.309,3.886,8.564,7.831,12.921,11.661c1.868,1.643,3.138,0.963,3.315-1.42c0.152-2.024,0.033-4.067,0.033-6.303
		c10.389,0.424,18.482,5.797,20.863,15.155c1.73,6.792,1.791,14.038,2.283,21.104c0.211,3.028,1.201,4.53,4.332,4.329H64.541z"/>
</g>
</svg>
