<?xml version="1.0" encoding="utf-8"?>
<!-- Generator: Adobe Illustrator 16.0.0, SVG Export Plug-In . SVG Version: 6.00 Build 0)  -->
<!DOCTYPE svg PUBLIC "-//W3C//DTD SVG 1.1//EN" "http://www.w3.org/Graphics/SVG/1.1/DTD/svg11.dtd">
<svg version="1.1" id="Layer_1" xmlns="http://www.w3.org/2000/svg" xmlns:xlink="http://www.w3.org/1999/xlink" x="0px" y="0px"
	 width="126px" height="126px" viewBox="0 0 126 126" enable-background="new 0 0 126 126" xml:space="preserve">
<g>
	<circle fill-rule="evenodd" clip-rule="evenodd" fill="#FFC000" cx="63" cy="63" r="63"/>
	<path fill-rule="evenodd" clip-rule="evenodd" fill="#FFFFFF" d="M79.336,105.847c16.943-6.435,31-25.176,27.574-48.101
		c-3.291-22.02-22.724-38.191-45.232-37.575c-22.592,0.618-41.068,18.172-42.943,40.61c-1.889,22.604,12.867,39.488,27.938,45.045
		c3.73-9.423,7.461-18.849,11.189-28.272c-7.23-3.056-9.902-10.496-8.313-16.517c1.576-5.968,6.869-10.161,13.163-10.354
		c6.079-0.187,11.655,3.788,13.53,9.67c0.926,2.902,0.912,5.82-0.086,8.697c-1.388,4.001-4.125,6.772-8.028,8.473
		C71.871,86.982,75.594,96.391,79.336,105.847z"/>
</g>
</svg>
