<?xml version="1.0" encoding="utf-8"?>
<!-- Generator: Adobe Illustrator 16.0.0, SVG Export Plug-In . SVG Version: 6.00 Build 0)  -->
<!DOCTYPE svg PUBLIC "-//W3C//DTD SVG 1.1//EN" "http://www.w3.org/Graphics/SVG/1.1/DTD/svg11.dtd">
<svg version="1.1" id="Layer_1" xmlns="http://www.w3.org/2000/svg" xmlns:xlink="http://www.w3.org/1999/xlink" x="0px" y="0px"
	 width="126px" height="126px" viewBox="0 0 126 126" enable-background="new 0 0 126 126" xml:space="preserve">
<circle fill-rule="evenodd" clip-rule="evenodd" fill="#797979" cx="63" cy="63" r="63"/>
<path fill-rule="evenodd" clip-rule="evenodd" fill="#FFFFFF" d="M78.446,120.173c-0.01-4.704,0.019-9.409-0.009-14.113
	c-0.026-4.445-0.524-8.766-3.62-12.068c4.431-1.363,8.791-2.343,12.856-4.026c9.26-3.836,13.143-11.594,14.2-21.032
	c0.671-5.992,0.492-11.904-2.591-17.416c-2.432-4.347-2.261-4.857-2.222-9.892c0.022-2.826-0.385-5.705-0.989-8.476
	c-0.634-2.918-1.499-3.43-4.396-2.404c-3.655,1.293-7.255,2.838-10.679,4.65c-1.808,0.955-3.303,1.359-5.337,0.866
	c-8.592-2.079-17.203-1.827-25.823,0.048c-1.15,0.25-2.575-0.133-3.72-0.6c-3.743-1.526-7.345-3.417-11.133-4.803
	c-3.368-1.231-3.907-0.787-4.882,2.538c-1.143,3.9-1.335,7.802-0.221,11.774c0.236,0.845,0.072,2.142-0.449,2.804
	c-6.795,8.66-6.292,18.264-3.344,27.948c3.425,11.255,12.457,15.431,23.132,17.161c0.755,0.124,1.514,0.229,1.985,0.299
	c-1.005,2.535-1.916,4.942-2.926,7.307c-0.217,0.509-0.706,1.086-1.201,1.263c-6.123,2.188-11.738,1.854-16.057-4.257
	c-1.697-2.403-4.019-4.479-6.392-6.253c-1.765-1.317-4.078-1.781-6.774-0.302c0.934,1.021,1.764,1.883,2.542,2.79
	c2.042,2.383,4.819,4.478,5.947,7.24c3.508,8.581,8.919,9.474,16.831,9.538c1.487,0.011,2.976-0.24,4.745-0.394
	c0,3.995,0.127,7.807-0.045,11.604c-0.042,0.916-0.367,1.608-0.909,2.061c5.161,1.41,10.592,2.167,16.201,2.167
	c5.641,0,11.104-0.766,16.29-2.192C78.767,123.31,78.45,122.053,78.446,120.173z"/>
</svg>
