<?xml version="1.0" encoding="utf-8"?>
<!-- Generator: Adobe Illustrator 16.0.0, SVG Export Plug-In . SVG Version: 6.00 Build 0)  -->
<!DOCTYPE svg PUBLIC "-//W3C//DTD SVG 1.1//EN" "http://www.w3.org/Graphics/SVG/1.1/DTD/svg11.dtd">
<svg version="1.1" xmlns="http://www.w3.org/2000/svg" xmlns:xlink="http://www.w3.org/1999/xlink" x="0px" y="0px" width="64px"
	 height="64px" viewBox="0 0 64 64" enable-background="new 0 0 64 64" xml:space="preserve">
<g id="Layer_1">
</g>
<g id="Layer_3" display="none">
</g>
<g id="Layer_3_copy_3" display="none">
</g>
<g id="Layer_3_copy_2">
</g>
<g id="Layer_3_copy">
</g>
<g id="Layer_2">
	<g>
		<circle fill="#5F81D4" cx="43.649" cy="32.17" r="18.09"/>
		<circle fill="#5F81D4" cx="21.798" cy="19.222" r="19.222"/>
		<circle fill="#5F81D4" cx="20.414" cy="45.844" r="18.156"/>
		<circle fill="#F2F2F2" cx="14.804" cy="32.393" r="11.538"/>
		<circle fill="#F2F2F2" cx="34.745" cy="43.821" r="11.539"/>
		<circle fill="#F2F2F2" cx="34.745" cy="20.743" r="11.539"/>
		<path fill="#FFBF00" d="M15.522,10.299c0.77-0.376,1.549,0.225,1.549,0.225L34.78,20.721l17.111,9.87c0,0,1.088,0.515,1.088,1.746
			c0,1.234-1.089,1.635-1.089,1.635L34.76,43.842l-18.086,10.42c0,0-0.605,0.458-1.286,0.164c-0.778-0.337-0.648-1.194-0.648-1.194
			v-20.95V11.668C14.739,11.668,14.729,10.685,15.522,10.299z"/>
	</g>
</g>
</svg>
