<?xml version="1.0" encoding="utf-8"?>
<!-- Generator: Adobe Illustrator 16.0.0, SVG Export Plug-In . SVG Version: 6.00 Build 0)  -->
<!DOCTYPE svg PUBLIC "-//W3C//DTD SVG 1.1//EN" "http://www.w3.org/Graphics/SVG/1.1/DTD/svg11.dtd">
<svg version="1.1"
	 id="svg2" xmlns:inkscape="http://www.inkscape.org/namespaces/inkscape" xmlns:sodipodi="http://sodipodi.sourceforge.net/DTD/sodipodi-0.dtd" xmlns:svg="http://www.w3.org/2000/svg" xmlns:rdf="http://www.w3.org/1999/02/22-rdf-syntax-ns#" xmlns:dc="http://purl.org/dc/elements/1.1/" xmlns:cc="http://creativecommons.org/ns#" sodipodi:docname="logo.svg" inkscape:version="0.91 r13725"
	 xmlns="http://www.w3.org/2000/svg" xmlns:xlink="http://www.w3.org/1999/xlink" x="0px" y="0px" width="308px" height="308px"
	 viewBox="0 0 308 308" enable-background="new 0 0 308 308" xml:space="preserve">
<sodipodi:namedview  id="namedview41" inkscape:cy="217.59715" inkscape:cx="-12.835045" inkscape:zoom="1.0836182" showgrid="false" guidetolerance="10" gridtolerance="10" objecttolerance="10" borderopacity="1" pagecolor="#ffffff" bordercolor="#666666" inkscape:current-layer="svg2" inkscape:window-maximized="1" inkscape:window-y="0" inkscape:window-x="0" inkscape:window-height="747" inkscape:window-width="1280" inkscape:pageshadow="2" inkscape:pageopacity="0">
	</sodipodi:namedview>
<g id="image_base">
</g>
<circle id="circle6" fill="#797979" cx="154" cy="154" r="154"/>
<g id="guides" display="none">
</g>
<path id="path3476" inkscape:connector-curvature="0" fill="#FFFFFF" d="M93.646,236.451c-0.938-0.567-2.341-4.246-3.12-8.175
	c-2.238-11.296-2.403-11.544-7.973-11.985c-5.937-0.469-5.312,1.295-12.689-35.803c-5.134-25.819-5.02-35.855,0.588-51.481
	c5.359-14.933,10.285-22.443,22.144-33.762c18.245-17.414,37.44-24.999,62.611-24.742c12.328,0.126,16.098,0.717,25.685,4.032
	c15.706,5.43,25.36,11.355,36.233,22.236c15.251,15.263,24.684,36.965,24.749,56.939c0.022,6.717-9.883,58.763-11.723,61.6
	c-0.44,0.679-2.907,1.233-5.481,1.233c-5.063,0-4.771-0.522-8.389,15.078l-1.216,5.245l-15.386,0.369
	c-14.176,0.341-15.6,0.151-18.104-2.41c-1.496-1.528-2.984-3.76-3.309-4.959c-1.099-4.055,9.916-55.729,12.621-59.213
	c2.245-2.891,3.416-3.234,9.921-2.906c4.057,0.205,11.573,1.928,16.705,3.828c5.835,2.162,9.815,2.994,10.626,2.223
	c0.713-0.68,1.703-5.417,2.202-10.529c1.035-10.614,0.637-11.158-8.97-12.248l-6.075-0.69l-1.747-8.178
	c-3.551-16.628-17.453-33.939-32.764-40.797c-14.893-6.67-27.701-8.127-41.446-4.716c-12.564,3.118-19.836,7.065-28.86,15.664
	c-9.279,8.841-13.138,15.466-16.804,28.85l-2.514,9.178l-5.458,0.426c-8.458,0.659-9.403,2.045-8.488,12.441
	c1.096,12.459,2.068,13.261,11.231,9.263c10.526-4.591,22.37-6.264,26.426-3.731c3.582,2.236,3.073,0.574,9.392,30.664
	c5.603,26.681,5.864,31.298,1.991,35.259c-2.536,2.594-4.159,2.868-16.856,2.85C101.672,237.492,94.583,237.018,93.646,236.451
	L93.646,236.451z"/>
</svg>
