<?xml version="1.0" encoding="utf-8"?>
<!-- Generator: Adobe Illustrator 16.0.0, SVG Export Plug-In . SVG Version: 6.00 Build 0)  -->
<!DOCTYPE svg PUBLIC "-//W3C//DTD SVG 1.1//EN" "http://www.w3.org/Graphics/SVG/1.1/DTD/svg11.dtd">
<svg version="1.1" id="Layer_1" xmlns="http://www.w3.org/2000/svg" xmlns:xlink="http://www.w3.org/1999/xlink" x="0px" y="0px"
	 width="308px" height="308px" viewBox="0 0 308 308" enable-background="new 0 0 308 308" xml:space="preserve">
<circle fill="#7F7F7F" cx="153.999" cy="154.945" r="154.08"/>
<g>
	<path fill-rule="evenodd" clip-rule="evenodd" fill="#FFFFFF" d="M225.928,106.512c0.045-0.187,0.089-0.374,0.136-0.561
		c-0.663-0.238-1.321-0.488-1.988-0.711c-26.007-8.699-33.749-33.116-32.535-53.18c0.206-3.405-1.342-6.232-4.585-7.276
		c-3.311-1.066-6.263,0.299-8.315,3.854c-18.809,32.584-37.625,65.169-56.434,97.753c-0.38,0.66-0.776,1.311-1.355,2.288
		c-0.55-0.987-0.908-1.594-1.232-2.216c-9.547-18.23-32.961-28.859-52.975-24.046c-16.36,3.935-25.343,18.199-21.498,34.469
		c2.071,8.748,7.012,15.833,13.843,21.534c11.421,9.532,24.498,13.885,39.396,11.706c11.051-1.615,18.624-7.865,24.101-17.554
		c14.243-25.225,28.863-50.216,43.332-75.289c1.487-2.578,2.999-5.142,4.611-7.906C185.506,106.838,204.691,110.104,225.928,106.512
		z"/>
	<path fill-rule="evenodd" clip-rule="evenodd" fill="#FFFFFF" d="M238.621,181.477c-0.704,3.932-1.059,7.962-2.164,11.777
		c-8.283,28.588-27.208,46.224-56.403,51.057c-30.038,4.976-54.186-5.968-71.662-31.093c-0.788-1.134-1.43-2.371-2.127-3.566
		c-0.18-0.31-0.315-0.646-0.5-1.027c2.68-0.985,5.352-1.835,7.913-2.938c8.374-3.604,15.296-8.857,19.944-16.968
		c12.469-21.757,25.1-43.45,37.655-65.158c1.382-2.388,2.717-4.801,4.162-7.357c6.212,4.204,12.878,7.026,20.058,8.565
		c5.867,1.258,11.791,1.978,17.799,1.218c1.551-0.196,2.718,0.169,3.898,1.317c12.058,11.725,19.254,25.831,20.971,42.64
		c0.065,0.641,0.301,1.265,0.457,1.896C238.621,175.051,238.621,178.265,238.621,181.477z M168.092,155.791
		c-11.728,0.059-21.531,9.605-21.501,20.946c0.031,11.473,9.98,21.125,21.677,21.035c11.648-0.09,21.442-9.76,21.37-21.102
		C189.564,165.236,179.758,155.733,168.092,155.791z M223.493,205.005c-9.954-5.44-19.768-10.806-29.6-16.18
		c-1.68,2.402-3.249,4.648-5.021,7.183c8.032,7.696,16.07,15.397,24.248,23.233C217.353,215.608,220.814,210.765,223.493,205.005z"
		/>
	<path fill-rule="evenodd" clip-rule="evenodd" fill="#FFFFFF" d="M225.928,106.512c-21.237,3.591-40.422,0.326-55.5-17.134
		c-1.612,2.764-3.124,5.328-4.611,7.906c-14.469,25.072-29.089,50.064-43.332,75.289c-5.477,9.688-13.049,15.938-24.101,17.554
		c-14.898,2.179-27.976-2.174-39.396-11.706c-6.832-5.701-11.772-12.786-13.843-21.534c-3.845-16.27,5.138-30.534,21.498-34.469
		c20.014-4.813,43.428,5.816,52.975,24.046c0.325,0.622,0.682,1.229,1.232,2.216c0.579-0.978,0.975-1.628,1.355-2.288
		c18.81-32.583,37.625-65.168,56.434-97.753c2.053-3.554,5.005-4.919,8.315-3.854c3.243,1.043,4.791,3.871,4.585,7.276
		c-1.214,20.064,6.528,44.481,32.535,53.18c0.667,0.223,1.325,0.474,1.988,0.711C226.017,106.139,225.973,106.325,225.928,106.512z"
		/>
</g>
</svg>
