<?xml version="1.0" encoding="utf-8"?>
<!-- Generator: Adobe Illustrator 16.0.0, SVG Export Plug-In . SVG Version: 6.00 Build 0)  -->
<!DOCTYPE svg PUBLIC "-//W3C//DTD SVG 1.1//EN" "http://www.w3.org/Graphics/SVG/1.1/DTD/svg11.dtd">
<svg version="1.1" id="Layer_1" xmlns="http://www.w3.org/2000/svg" xmlns:xlink="http://www.w3.org/1999/xlink" x="0px" y="0px"
	 width="126px" height="126px" viewBox="0 0 126 126" enable-background="new 0 0 126 126" xml:space="preserve">
<g>
	<circle fill="#CECECE" cx="63" cy="63" r="63"/>
	<g>
		<path fill="#FFFFFF" d="M53.674,74.865v-3.613c0-3.125,0.667-5.843,2.002-8.154c1.334-2.311,3.775-4.769,7.324-7.373
			c3.418-2.441,5.672-4.427,6.764-5.957c1.09-1.53,1.635-3.239,1.635-5.127c0-2.116-0.779-3.727-2.344-4.834
			c-1.563-1.106-3.744-1.66-6.542-1.66c-4.883,0-10.449,1.595-16.699,4.785L40.49,32.238c7.259-4.069,14.957-6.104,23.096-6.104
			c6.705,0,12.036,1.611,15.991,4.834c3.955,3.223,5.933,7.52,5.933,12.891c0,3.581-0.814,6.673-2.441,9.277
			c-1.627,2.604-4.721,5.534-9.275,8.789c-3.125,2.312-5.104,4.069-5.934,5.273s-1.244,2.782-1.244,4.735v2.931L53.674,74.865
			L53.674,74.865z M52.111,91.564c0-2.734,0.732-4.801,2.197-6.201c1.465-1.399,3.597-2.1,6.396-2.1
			c2.701,0,4.793,0.715,6.274,2.146c1.479,1.433,2.222,3.482,2.222,6.15c0,2.572-0.749,4.6-2.246,6.08
			c-1.498,1.48-3.581,2.223-6.25,2.223c-2.734,0-4.851-0.727-6.348-2.174C52.859,96.243,52.111,94.201,52.111,91.564z"/>
	</g>
</g>
</svg>
