<?xml version="1.0" encoding="utf-8"?>
<!-- Generator: Adobe Illustrator 16.0.0, SVG Export Plug-In . SVG Version: 6.00 Build 0)  -->
<!DOCTYPE svg PUBLIC "-//W3C//DTD SVG 1.1//EN" "http://www.w3.org/Graphics/SVG/1.1/DTD/svg11.dtd">
<svg version="1.1" id="Layer_1" xmlns="http://www.w3.org/2000/svg" xmlns:xlink="http://www.w3.org/1999/xlink" x="0px" y="0px"
	 width="308px" height="308px" viewBox="0 0 308 308" enable-background="new 0 0 308 308" xml:space="preserve">
<circle fill="#7F7F7F" cx="153.999" cy="154.945" r="154.08"/>
<path fill="#FFFFFF" d="M244.104,110.698c0-0.805,0-1.609-0.805-2.414v-0.804c-2.414-7.241-8.85-12.068-16.895-12.068h1.609
	c0,0-31.376-4.827-74.015-4.827c-41.834,0-74.014,4.827-74.014,4.827h1.608c-8.045,0-14.48,4.828-16.895,12.068v0.804
	c0,0.805,0,1.609-0.804,2.414c-0.805,8.045-3.219,24.939-3.219,44.248c0,19.309,2.414,36.202,3.219,44.247
	c0,0.806,0,1.609,0.804,2.412v0.807c2.414,7.241,8.85,12.067,16.895,12.067h-1.608c0,0,31.375,4.825,74.014,4.825
	c41.834,0,74.015-4.825,74.015-4.825h-1.609c8.045,0,14.48-4.826,16.895-12.067v-0.807c0-0.803,0-1.606,0.805-2.412
	c0.804-8.045,3.218-24.938,3.218-44.247C247.322,135.637,245.71,118.743,244.104,110.698z M181.353,158.968l-37.812,27.354
	c-0.805,0.804-1.609,0.804-2.415,0.804c-0.804,0-1.608,0-2.413-0.804c-1.607-0.806-2.413-2.413-2.413-4.022v-54.707
	c0-1.609,0.806-3.218,2.413-4.022c1.609-0.805,3.219-0.805,4.828,0l37.812,27.352c0.804,0.805,1.608,2.415,1.608,4.023
	C183.766,156.555,182.961,158.164,181.353,158.968z"/>
</svg>
